<?xml version="1.0" encoding="iso-8859-1"?>
<!-- Generator: Adobe Illustrator 19.0.0, SVG Export Plug-In . SVG Version: 6.00 Build 0)  -->
<svg version="1.1" id="Capa_1" xmlns="http://www.w3.org/2000/svg" xmlns:xlink="http://www.w3.org/1999/xlink" x="0px" y="0px"
	 viewBox="0 0 511.968 511.968" style="enable-background:new 0 0 511.968 511.968;" xml:space="preserve">
<path style="fill:#ADB3BA;" d="M497.003,99.237H199.435c-8.277,0-14.987,6.709-14.987,14.987v231.605
	c0,8.277,6.709,14.987,14.987,14.987h297.557c8.267,0,14.976-6.709,14.976-14.987V114.224
	C511.979,105.947,505.269,99.237,497.003,99.237"/>
<g>
	<rect x="222.592" y="131.237" style="fill:#CED6E0;" width="35.861" height="197.579"/>
	<rect x="294.4" y="131.237" style="fill:#CED6E0;" width="35.851" height="197.579"/>
	<rect x="366.176" y="131.237" style="fill:#CED6E0;" width="35.851" height="197.579"/>
	<rect x="437.963" y="131.237" style="fill:#CED6E0;" width="35.861" height="197.579"/>
</g>
<path style="fill:#F3705A;" d="M174.976,153.968v191.467c0,8.437-6.933,15.381-15.488,15.381H15.371
	C6.933,360.816,0,353.872,0,345.435v-61.141c0-1.888,0.384-3.776,1.088-5.557L52,148.411c2.293-5.952,8.043-9.824,14.4-9.824h93.099
	C168.043,138.587,174.976,145.435,174.976,153.968"/>
<g>
	<path style="fill:#344A5E;" d="M147.104,158.427H74.837c-3.296,0-6.229,2.016-7.435,5.067L34.773,246.96
		c-2.037,5.227,1.813,10.88,7.424,10.88h32.235c2.368,0,4.597-1.045,6.101-2.837l15.072-17.899c1.515-1.803,3.744-2.837,6.101-2.837
		h45.387c4.405,0,7.979-3.573,7.979-7.979v-59.883C155.083,162,151.509,158.427,147.104,158.427"/>
	<path style="fill:#344A5E;" d="M145.269,267.707H132c-3.499,0-6.336,2.837-6.336,6.336s2.837,6.336,6.336,6.336h13.269
		c3.499,0,6.347-2.837,6.347-6.336C151.616,270.544,148.768,267.707,145.269,267.707"/>
</g>
<path style="fill:#213544;" d="M151.957,360.816H22.912c0-35.637,28.885-64.512,64.523-64.512
	C123.061,296.304,151.957,325.179,151.957,360.816"/>
<path style="fill:#344A5E;" d="M139.371,360.816c0,28.672-23.253,51.915-51.915,51.915s-51.904-23.243-51.904-51.915
	s23.243-51.915,51.904-51.915S139.371,332.144,139.371,360.816"/>
<path style="fill:#CED6E0;" d="M119.723,360.816c0,17.813-14.443,32.256-32.256,32.256s-32.245-14.443-32.245-32.256
	s14.421-32.256,32.235-32.256S119.723,343.003,119.723,360.816"/>
<path style="fill:#ADB3BA;" d="M98.581,360.816c0,6.144-4.981,11.125-11.125,11.125s-11.125-4.981-11.125-11.125
	s4.981-11.125,11.125-11.125S98.581,354.672,98.581,360.816"/>
<path style="fill:#213544;" d="M457.376,360.816H328.331c0-35.637,28.896-64.512,64.533-64.512
	C428.491,296.304,457.376,325.179,457.376,360.816"/>
<path style="fill:#344A5E;" d="M444.789,360.816c0,28.672-23.243,51.915-51.915,51.915c-28.661,0-51.893-23.243-51.893-51.915
	s23.243-51.915,51.893-51.915C421.547,308.901,444.789,332.144,444.789,360.816"/>
<path style="fill:#CED6E0;" d="M425.141,360.816c0,17.813-14.443,32.256-32.256,32.256s-32.256-14.443-32.256-32.256
	s14.443-32.256,32.256-32.256S425.141,343.003,425.141,360.816"/>
<path style="fill:#ADB3BA;" d="M404,360.816c0,6.144-4.981,11.125-11.125,11.125c-6.133,0-11.125-4.981-11.125-11.125
	s4.992-11.125,11.125-11.125C399.019,349.691,404,354.672,404,360.816"/>
<g>
</g>
<g>
</g>
<g>
</g>
<g>
</g>
<g>
</g>
<g>
</g>
<g>
</g>
<g>
</g>
<g>
</g>
<g>
</g>
<g>
</g>
<g>
</g>
<g>
</g>
<g>
</g>
<g>
</g>
</svg>
