<?xml version="1.0" encoding="utf-8"?>
<!-- Generator: Adobe Illustrator 24.0.1, SVG Export Plug-In . SVG Version: 6.00 Build 0)  -->
<svg version="1.1" id="Layer_1" xmlns="http://www.w3.org/2000/svg" xmlns:xlink="http://www.w3.org/1999/xlink" x="0px" y="0px"
	 viewBox="0 0 1000 700" style="enable-background:new 0 0 1000 700;" xml:space="preserve">
<style type="text/css">
	.st0{fill:url(#SVGID_1_);}
	.st1{opacity:0.1;fill:none;stroke:#E8505B;stroke-miterlimit:10;}
	.st2{fill:url(#SVGID_2_);}
	.st3{fill:url(#SVGID_3_);}
</style>
<linearGradient id="SVGID_1_" gradientUnits="userSpaceOnUse" x1="1186.2556" y1="419.0162" x2="-111.2974" y2="419.0162">
	<stop  offset="0" style="stop-color:#FFFCFA"/>
	<stop  offset="1" style="stop-color:#FFD6BB;stop-opacity:0.1"/>
</linearGradient>
<path class="st0" d="M1157.6,635.5c0,0,2.8,15.1-18.2,30.8c-0.1,0.1-0.2,0.2-0.3,0.2c-0.1,0.1-0.2,0.1-0.3,0.2c0,0,0,0,0,0
	c-1,0.7-2.1,1.5-3.2,2.2c0,0,0,0,0,0c-26.8,17.8-85.8,35.6-215.3,32.4C860,699.9,802.2,690,747,675.5h0
	c-174.1-45.6-322.1-136-438.9-146.2C154.3,515.9,38.6,551.3-58,483c-96.7-68.3-32.2-319.7-32.2-319.7s146.5,41.5,227,46.4
	c80.6,4.9,276.8-69.6,458.4-73.2c25-0.5,52.6,1.2,81.7,4.4c106.8,11.7,234.4,43.4,333,58.6c69.7,10.7,124.9,13.1,147.9-5.6
	C1222,141.2,1157.6,635.5,1157.6,635.5z"/>
<ellipse class="st1" cx="634.4" cy="373.7" rx="273.8" ry="280"/>
<ellipse class="st1" cx="210.6" cy="547.4" rx="132.9" ry="135.9"/>
<linearGradient id="SVGID_2_" gradientUnits="userSpaceOnUse" x1="839.4695" y1="272.1749" x2="839.4695" y2="140.77">
	<stop  offset="0" style="stop-color:#FFDAD8"/>
	<stop  offset="1" style="stop-color:#FFEFEE"/>
</linearGradient>
<path class="st2" d="M1009.8,199.3c-7.5,15.3-25.2,32.1-60.6,49c-117.1,55.8-121.5-4.4-178.3,0c-56.1,4.3-110.9-90.9-100.4-102.3
	c0.1-0.1,0.2-0.2,0.2-0.2c0.1-0.1,0.1-0.1,0.2-0.2c0,0,0,0,0,0c0.7-0.5,1.5-1.2,2.6-2.2c0,0,0,0,0,0c1.1-0.9,2.2-1.7,3.4-2.6
	C783.6,152.5,911.2,184.2,1009.8,199.3z"/>
<linearGradient id="SVGID_3_" gradientUnits="userSpaceOnUse" x1="343.5059" y1="484.9574" x2="343.5059" y2="383.1394">
	<stop  offset="0" style="stop-color:#FFDAD8"/>
	<stop  offset="1" style="stop-color:#FFEFEE"/>
</linearGradient>
<circle class="st3" cx="343.5" cy="434" r="50.9"/>
</svg>
