<svg xmlns="http://www.w3.org/2000/svg" viewBox="0 0 390.34 415.31"><defs><style>.cls-1{fill:#f5f5f5;}.cls-2{fill:#e0e0e0;}.cls-3{fill:#e8505b;}.cls-4{fill:#263238;}.cls-5{fill:#455a64;}.cls-6{fill:#fafafa;}.cls-7{fill:#ebebeb;}.cls-8{fill:#eb996e;}.cls-9{fill:#ffbe9d;}.cls-10,.cls-11{opacity:0.2;}.cls-12{opacity:0.3;}.cls-13{opacity:0.7;}</style></defs><title>Asset 1</title><g id="Layer_2" data-name="Layer 2"><g id="Background_Complete" data-name="Background Complete"><path class="cls-1" d="M0,187.47v47.64a15.6,15.6,0,0,0,15.61,15.6h170.8A15.6,15.6,0,0,0,202,235.11V194.86l21.26-22.34-207.63-.65A15.6,15.6,0,0,0,0,187.47Z"/><polygon class="cls-2" points="176.84 200.73 21.84 200.01 21.86 195.25 176.86 195.96 176.84 200.73"/><polygon class="cls-2" points="176.84 216.4 21.84 215.68 21.86 210.92 176.86 211.64 176.84 216.4"/><rect class="cls-2" x="143.81" y="198.48" width="4.76" height="61.33" transform="translate(-83.67 374.2) rotate(-89.72)"/><path class="cls-1" d="M158.27,352.07v47.64a15.6,15.6,0,0,0,15.61,15.6h170.8a15.6,15.6,0,0,0,15.61-15.6V359.46l21.26-22.35-207.63-.64A15.6,15.6,0,0,0,158.27,352.07Z"/><polygon class="cls-2" points="335.85 364.09 180.86 363.37 180.87 358.61 335.87 359.32 335.85 364.09"/><polygon class="cls-2" points="335.85 379.76 180.86 379.05 180.87 374.28 335.87 375 335.85 379.76"/><rect class="cls-2" x="302.82" y="361.84" width="4.76" height="61.33" transform="translate(-88.8 695.77) rotate(-89.72)"/><path class="cls-1" d="M91.3,8H192a9,9,0,0,1,9,9V66.33a9,9,0,0,1-9,9H106.55a9,9,0,0,1-9-9V14.25Z"/><path class="cls-2" d="M149.7,55.93v31.6a10.35,10.35,0,0,1-10.35,10.35H26.06A10.36,10.36,0,0,1,15.71,87.53V60.83L1.61,46l137.71-.43A10.35,10.35,0,0,1,149.7,55.93Z"/><polygon class="cls-1" points="32.41 64.72 135.21 64.25 135.2 61.09 32.4 61.56 32.41 64.72"/><polygon class="cls-1" points="32.41 75.12 135.21 74.64 135.2 71.48 32.4 71.96 32.41 75.12"/><rect class="cls-1" x="32.41" y="81.99" width="40.68" height="3.16" transform="matrix(1, 0, 0, 1, -0.41, 0.26)"/><path class="cls-2" d="M364.31,202.44V234A10.35,10.35,0,0,1,354,244.39H240.67A10.36,10.36,0,0,1,230.32,234v-26.7l-14.1-14.82,137.71-.43A10.35,10.35,0,0,1,364.31,202.44Z"/><polygon class="cls-1" points="247.02 211.23 349.82 210.76 349.81 207.6 247.01 208.07 247.02 211.23"/><polygon class="cls-1" points="247.02 221.63 349.82 221.15 349.81 217.99 247.01 218.47 247.02 221.63"/><rect class="cls-1" x="247.02" y="228.5" width="40.68" height="3.16" transform="matrix(1, 0, 0, 1, -1.13, 1.32)"/></g><g id="Plants"><path class="cls-3" d="M267.27,359.29c-16.94-16.49-17.21-42-12.81-64.16.74-3.7,1-7.68,3.27-10.66s6.8-4.53,9.88-2.41c2.55,1.75,3.23,5.16,4.34,8.07a22,22,0,0,0,7.36,9.76c2.16,1.62,5,2.85,7.52,1.94,3.5-1.24,4.6-5.61,5.19-9.32q1.62-10.35,3.26-20.71c.58-3.7,1.19-7.48,2.91-10.8s4.8-6.17,8.48-6.58,7.71,2.33,7.86,6.07a34.84,34.84,0,0,1-.65,4.63c-.15,1.55.29,3.37,1.68,4s3.05-.13,4.34-1c4.43-3.11,7.81-7.5,11-11.89s6.36-8.9,10.49-12.41,9.46-5.95,14.81-5.38,10.45,4.76,10.94,10.18-3.42,10.23-7.42,13.91a83.87,83.87,0,0,1-19.88,13.58,6.9,6.9,0,0,0-3.39,2.62c-1.2,2.33.73,5.17,3,6.38,2.6,1.37,5.64,1.57,8.47,2.38s5.75,2.6,6.39,5.5c.9,4-2.91,7.48-6.45,9.57A71.68,71.68,0,0,1,325,311.22c-2.88.55-5.89.95-8.4,2.5s-4.37,4.67-3.48,7.49,4.17,4.22,7.11,4.15,5.74-1.19,8.63-1.77c5.4-1.08,11.9.34,14.44,5.27,1.67,3.24,1.2,7.29-.45,10.56a27.25,27.25,0,0,1-7.1,8.22c-9.72,8.23-21.41,14.22-33.88,16.38s-23.57,1.47-34.59-4.73"/><path class="cls-4" d="M264.27,375.76a164.77,164.77,0,0,1,11-29.5,335.88,335.88,0,0,1,19-33.54l5.44-8.54c1.79-2.79,3.56-5.57,5.46-8.18A167.76,167.76,0,0,1,317,281.66c4-4.39,7.9-8.4,11.6-12.13s7.24-7.12,10.58-10.08A132.68,132.68,0,0,1,356,246.65c2.1-1.35,3.76-2.35,4.89-3l1.29-.74a3,3,0,0,1,.46-.23,3.48,3.48,0,0,1-.42.29l-1.26.8c-1.11.7-2.74,1.73-4.81,3.11a141,141,0,0,0-16.63,12.94c-3.32,3-6.82,6.4-10.5,10.13s-7.59,7.76-11.54,12.15a167.79,167.79,0,0,0-11.72,14.32c-1.89,2.59-3.65,5.34-5.44,8.15s-3.59,5.65-5.43,8.53a345,345,0,0,0-19,33.45,167.62,167.62,0,0,0-11.14,29.35"/><path class="cls-4" d="M305.41,296a8.2,8.2,0,0,1-.1-1.64c0-1.05,0-2.58,0-4.46.08-3.77.36-9,.7-14.71s.56-10.93.58-14.69c0-1.88,0-3.4,0-4.45a8.46,8.46,0,0,1,.05-1.64,6.78,6.78,0,0,1,.22,1.62c.09,1.06.17,2.58.22,4.47.1,3.77,0,9-.38,14.73s-.66,10.77-.91,14.68c-.1,1.77-.18,3.26-.24,4.46A7,7,0,0,1,305.41,296Z"/><path class="cls-4" d="M354.44,294.91a10.49,10.49,0,0,1-1.94-.09c-1.23-.09-3-.23-5.24-.33-4.44-.25-10.57-.37-17.35-.2s-12.91.59-17.33,1c-2.21.2-4,.41-5.24.55a10.2,10.2,0,0,1-1.93.15,10.88,10.88,0,0,1,1.9-.42c1.22-.22,3-.51,5.22-.77,4.42-.56,10.57-1.06,17.37-1.23a167.84,167.84,0,0,1,17.39.41c2.22.16,4,.38,5.24.56A10.14,10.14,0,0,1,354.44,294.91Z"/><path class="cls-4" d="M276,345.48s-.11-.21-.24-.63-.31-1.12-.53-1.86c-.45-1.61-1-4-1.75-6.87-1.4-5.83-3.09-13.94-4.82-22.91s-3.35-17.09-4.63-22.93c-.63-2.85-1.15-5.18-1.53-6.92-.17-.76-.3-1.38-.41-1.89a2.54,2.54,0,0,1-.1-.67,2.32,2.32,0,0,1,.23.64c.15.5.32,1.11.54,1.85.45,1.61,1.05,4,1.75,6.87,1.4,5.83,3.08,13.94,4.82,22.91S272.72,330.16,274,336c.63,2.85,1.15,5.19,1.53,6.92.17.76.3,1.38.41,1.89A3.22,3.22,0,0,1,276,345.48Z"/><path class="cls-4" d="M342.59,335.46a3.22,3.22,0,0,1-.67.15l-1.94.32L332.85,337c-6,.92-14.32,2.28-23.48,3.8s-17.49,2.81-23.53,3.6c-3,.4-5.47.7-7.16.87l-2,.18a2.52,2.52,0,0,1-.68,0,2.45,2.45,0,0,1,.67-.16l1.93-.31,7.13-1.09c6-.91,14.32-2.28,23.49-3.8s17.49-2.8,23.52-3.6c3-.39,5.47-.69,7.17-.86l1.95-.19A2.3,2.3,0,0,1,342.59,335.46Z"/><path class="cls-5" d="M99.05,134.43a11.1,11.1,0,0,1-3.83-10.5,14.75,14.75,0,0,1,6.36-9.49c1.49-1,3.34-1.83,5.08-1.32a4.76,4.76,0,0,1,3.08,3.71,9.68,9.68,0,0,1-.58,5c-1.9,5.48-4.74,10.44-10.11,12.62"/><path class="cls-5" d="M94,143.79a26,26,0,0,0-23-6c-2,.48-4.35,1.56-4.68,3.63s1.51,3.84,3.33,4.89a22.25,22.25,0,0,0,24.61-2"/><path class="cls-5" d="M64.62,100.45a13.05,13.05,0,0,1,10.07,1.73,23.25,23.25,0,0,1,7.2,7.53c3.62,5.72,4.9,13.41,5.06,20.19-7.52-.31-14-6.22-17-9.42-4.85-5.06-10.55-17.16-5.31-20"/><path class="cls-4" d="M105.35,154a27.69,27.69,0,0,1-1.88-2.84,47.66,47.66,0,0,1-4.23-12.07,24,24,0,0,1,.93-12.73,16,16,0,0,1,1.82-3.45,4.47,4.47,0,0,1,.93-1.09,32.63,32.63,0,0,0-2.24,4.72A25.18,25.18,0,0,0,100,139a55.19,55.19,0,0,0,4,12"/><path class="cls-4" d="M105.42,154.11l-3.92-5.05c-3.29-4.27-7.86-10.16-13-16.6s-9.85-12.2-13.28-16.36l-4-4.95a14.29,14.29,0,0,1-1.42-1.87A12.94,12.94,0,0,1,71.41,111c1,1.11,2.47,2.75,4.23,4.79,3.54,4.08,8.33,9.8,13.47,16.24s9.63,12.39,12.82,16.75c1.59,2.17,2.87,3.95,3.72,5.19"/><path class="cls-4" d="M75.66,142.21a4.62,4.62,0,0,1,1.3-.4,12.62,12.62,0,0,1,1.57-.3,17.15,17.15,0,0,1,2.11-.22,26.64,26.64,0,0,1,5.52.21,31.52,31.52,0,0,1,6.56,1.71,31,31,0,0,1,6,3.17,27.44,27.44,0,0,1,4.21,3.57,18.36,18.36,0,0,1,1.4,1.6,11.16,11.16,0,0,1,1,1.28c.49.73.42,1.07.37,1.1a43.65,43.65,0,0,0-3.11-3.6A30.77,30.77,0,0,0,98.32,147a33.73,33.73,0,0,0-5.88-3.05,34.18,34.18,0,0,0-6.38-1.72,30.66,30.66,0,0,0-5.4-.37C77.57,141.9,75.69,142.36,75.66,142.21Z"/></g><g id="Device"><path class="cls-4" d="M243.41,397.37l-115.5-.53a25.16,25.16,0,0,1-25-25.27L104.09,82A25.16,25.16,0,0,1,129.37,57l115.5.53a25.16,25.16,0,0,1,25,25.27l-1.22,289.56A25.16,25.16,0,0,1,243.41,397.37Z"/><path class="cls-6" d="M244.7,67.48l-22.39-.1A5.56,5.56,0,0,0,216.85,73l0,4.06a5.56,5.56,0,0,1-5.46,5.66l-43.65-.2a5.56,5.56,0,0,1-5.41-5.71V72.79a5.56,5.56,0,0,0-5.41-5.71L149,67,129.43,67a17.62,17.62,0,0,0-17.7,17.55l-1.19,282.63a17.63,17.63,0,0,0,17.54,17.7l115.27.53a17.62,17.62,0,0,0,17.7-17.55l1.19-282.63A17.63,17.63,0,0,0,244.7,67.48Z"/><path class="cls-5" d="M179.47,358.3a2.41,2.41,0,1,1-2.37-2.05A2.23,2.23,0,0,1,179.47,358.3Z"/><path class="cls-5" d="M186.84,358.33a2.41,2.41,0,1,1-2.37-2.05A2.25,2.25,0,0,1,186.84,358.33Z"/><path class="cls-5" d="M194.21,358.37a2.41,2.41,0,1,1-2.37-2.06A2.23,2.23,0,0,1,194.21,358.37Z"/><path class="cls-7" d="M146.19,203.74c1.87.27,115.18,22.49,115.18,22.49V203.74Z"/><path class="cls-7" d="M110.54,346.53s123.25-17.44,122.18-16.9-122.18,0-122.18,0Z"/><path class="cls-4" d="M253.68,16.54c.14,0,.26,6.23.26,13.92s-.12,13.92-.26,13.92-.26-6.23-.26-13.92S253.53,16.54,253.68,16.54Z"/><path class="cls-4" d="M303,48.57c.06.13-5.6,2.76-12.63,5.86s-12.78,5.51-12.84,5.38,5.6-2.75,12.63-5.86S302.94,48.44,303,48.57Z"/><path class="cls-4" d="M301.75,0a2.41,2.41,0,0,1-.27.53L300.63,2c-.75,1.28-1.87,3.1-3.26,5.35-2.8,4.49-6.83,10.6-11.4,17.26s-8.64,12.72-11.51,17.16L271.06,47c-.38.58-.7,1.05-.94,1.43a2.14,2.14,0,0,1-.36.47,3.73,3.73,0,0,1,.27-.53c.22-.38.51-.87.85-1.47.75-1.28,1.87-3.11,3.27-5.36C277,37.09,281,31,285.54,24.32s8.64-12.72,11.52-17.16l3.4-5.26.93-1.42A3.06,3.06,0,0,1,301.75,0Z"/></g><g id="Speech_Bubbles" data-name="Speech Bubbles"><path class="cls-3" d="M370.89,117.73H145.45a8.82,8.82,0,0,0-8.82,8.82v69.93a8.81,8.81,0,0,0,8.82,8.81h16.8c1.35,7.31,2.93,16.52,2.93,16.52l15.2-16.52H370.89a8.81,8.81,0,0,0,8.82-8.81V126.55A8.82,8.82,0,0,0,370.89,117.73Z"/><path class="cls-1" d="M277.88,155.66c0,.15-26.83.26-59.92.26s-59.93-.11-59.93-.26,26.82-.26,59.93-.26S277.88,155.52,277.88,155.66Z"/><path class="cls-1" d="M277.88,144.91c0,.15-26.83.26-59.92.26s-59.93-.11-59.93-.26,26.82-.26,59.93-.26S277.88,144.77,277.88,144.91Z"/><path class="cls-1" d="M277.88,166.29c0,.15-26.83.26-59.92.26s-59.93-.11-59.93-.26S184.85,166,218,166,277.88,166.15,277.88,166.29Z"/><path class="cls-1" d="M236.53,177.31c0,.14-17.57.26-39.25.26s-39.25-.12-39.25-.26,17.57-.26,39.25-.26S236.53,177.16,236.53,177.31Z"/><path class="cls-5" d="M269,243.45H41.74a6.17,6.17,0,0,0-6.17,6.17v74a6.17,6.17,0,0,0,6.17,6.17H206.82l15,16.32s1.58-9.17,2.91-16.32H269a6.17,6.17,0,0,0,6.17-6.17v-74A6.17,6.17,0,0,0,269,243.45Z"/><path class="cls-1" d="M260.12,281.61c0,.14-26.84.26-59.93.26s-59.93-.12-59.93-.26,26.83-.27,59.93-.27S260.12,281.46,260.12,281.61Z"/><path class="cls-1" d="M260.12,270.86c0,.14-26.84.26-59.93.26s-59.93-.12-59.93-.26,26.83-.26,59.93-.26S260.12,270.71,260.12,270.86Z"/><path class="cls-1" d="M260.12,292.24c0,.14-26.84.26-59.93.26s-59.93-.12-59.93-.26,26.83-.26,59.93-.26S260.12,292.09,260.12,292.24Z"/><path class="cls-1" d="M218.77,303.25c0,.14-17.58.26-39.25.26s-39.26-.12-39.26-.26,17.58-.26,39.26-.26S218.77,303.1,218.77,303.25Z"/></g><g id="Character_2" data-name="Character 2"><path class="cls-4" d="M314.22,88.07c.14-1.84-1.5-4.37-3-5.83a6,6,0,0,1-1.67-6.37c.61-2.27,2.05-2.1,2.62-3.44a10.19,10.19,0,0,0,.33-3.18,6.64,6.64,0,0,1,7.92-5.64,9.19,9.19,0,0,1,17-1.77,7.07,7.07,0,0,1,10.31,5.74,5.16,5.16,0,0,1,6.7,1,6.35,6.35,0,0,1,.48,7,8.29,8.29,0,0,1-6,4,12.2,12.2,0,0,1-7.22-1.31,23.38,23.38,0,0,1-5.91-4.47"/><ellipse class="cls-2" cx="330.57" cy="160.71" rx="43.29" ry="42.28"/><path class="cls-8" d="M374,160.74l-4.79-12.29-17.18,10.79,15.31,23.6S373.6,174.76,374,160.74Z"/><path class="cls-9" d="M326.63,134.14h0a11.53,11.53,0,0,0,11.57-10.89c.25-5.09.46-10,.46-10s9.45-.69,10.32-9.92,1-30.59,1-30.59h0a32.75,32.75,0,0,0-32.9,1.43l-.9.57-1.09,47.8A11.52,11.52,0,0,0,326.63,134.14Z"/><path class="cls-4" d="M332.05,87a1.35,1.35,0,0,1,.86,1.71,1.36,1.36,0,1,1-.86-1.71Z"/><path class="cls-4" d="M334.64,87.43c-.16.15-1-.6-2.32-.68s-2.26.52-2.39.35.1-.36.52-.64a3.1,3.1,0,0,1,1.93-.48,3.2,3.2,0,0,1,1.83.74C334.59,87.07,334.71,87.37,334.64,87.43Z"/><path class="cls-4" d="M346.15,87a1.35,1.35,0,0,1,.86,1.71,1.36,1.36,0,1,1-.86-1.71Z"/><path class="cls-4" d="M348.91,87.46c-.16.15-1-.6-2.32-.68s-2.26.52-2.39.34.1-.35.52-.64a3.17,3.17,0,0,1,1.93-.47,3.13,3.13,0,0,1,1.83.74C348.86,87.09,349,87.39,348.91,87.46Z"/><path class="cls-4" d="M339.21,97.45a6.14,6.14,0,0,1,2.11-.27c.34,0,.61-.06.65-.24a1.83,1.83,0,0,0-.16-1c-.27-.87-.53-1.75-.81-2.67-1.1-3.8-1.84-6.93-1.64-7s1.24,3,2.35,6.78c.25.92.5,1.81.74,2.68a2.12,2.12,0,0,1,.08,1.4.88.88,0,0,1-.63.48,2,2,0,0,1-.58,0A6.44,6.44,0,0,1,339.21,97.45Z"/><path class="cls-8" d="M338.69,113.13a21.89,21.89,0,0,1-11.88-4.41s2.33,6.89,11.71,6.8Z"/><path class="cls-9" d="M315.94,88.32a1.41,1.41,0,0,0-1.32-1.43c-1.74-.08-4.6.55-5,5.31-.52,6.8,6.12,5.23,6.15,5S315.91,91,315.94,88.32Z"/><path class="cls-8" d="M314.35,94.53s-.13.08-.34.15a1.17,1.17,0,0,1-.89-.05A2.9,2.9,0,0,1,312,91.9a3.87,3.87,0,0,1,.46-1.67,1.37,1.37,0,0,1,1-.84.61.61,0,0,1,.68.37c.08.2,0,.33.06.35s.15-.1.12-.39a.8.8,0,0,0-.24-.45.92.92,0,0,0-.65-.22A1.69,1.69,0,0,0,312,90a3.91,3.91,0,0,0-.56,1.87A3.06,3.06,0,0,0,313,94.94a1.29,1.29,0,0,0,1.11-.09C314.32,94.69,314.37,94.55,314.35,94.53Z"/><path class="cls-4" d="M328.55,83.81c.34.44,1.52.23,3.06.17s2.73-.07,3-.54-1.16-1.63-3.14-1.47S328.17,83.36,328.55,83.81Z"/><path class="cls-4" d="M343.53,83.36c.18.59,1.31.77,2.56.76s2.37-.23,2.54-.83-1-1.42-2.57-1.39S343.34,82.78,343.53,83.36Z"/><path class="cls-4" d="M351.29,75.67s-5.61,2.71-12.9-.93c-4.79-2.39-10.37-3.55-11.6-2.59s-1.49,5.89-6.23,7.33c0,0,.33,9.41-3.42,9.08s-1.41-14.91-1.41-14.91l9.18-4.48,10-1.9,9.44,1.33,7.3,2Z"/><path class="cls-5" d="M288.48,130.11c9.81-10.08,27.07-9,27.07-9l14.31,10.24,8.11-9.44A52.35,52.35,0,0,1,354.48,127l.56.17v.11c6.27,3.41,15.16,11.58,23.63,19.52l-10.13,9.4-11.22,9.95a.26.26,0,0,1,0,.2c-.11.6,1.56,14.3,3.28,24.7a42.22,42.22,0,0,1-37.68,11.39c-4.59-.81-6.81-1.93-11.06-3a15.38,15.38,0,0,1-11.39-13.56h0c-.76-8.72-1.35-19.52-1.35-19.52"/><path class="cls-4" d="M346.94,123.69a11.27,11.27,0,0,1,.62,1.61c.36,1,.86,2.57,1.45,4.46,1.18,3.78,2.69,9.05,4.11,14.93s2.48,11.26,3.16,15.16c.34,2,.59,3.54.74,4.64a12.81,12.81,0,0,1,.19,1.71,10.37,10.37,0,0,1-.39-1.68c-.23-1.17-.53-2.72-.9-4.6-.77-3.88-1.89-9.24-3.31-15.11s-2.86-11.14-3.95-14.95l-1.3-4.5A12.34,12.34,0,0,1,346.94,123.69Z"/><path class="cls-4" d="M356.15,159.74c-.09-.11,4.19-3.75,9.56-8.12s9.79-7.83,9.88-7.72S371.4,147.65,366,152,356.24,159.85,356.15,159.74Z"/><path class="cls-10" d="M301.42,144l-8.77,28.87,3.26,1.7,3.22-8.17S302.44,149.21,301.42,144Z"/><g class="cls-11"><path d="M346,123.7c4.73,2.5-7.13,8.5-12.48,8.34l3.89-10.26S344.4,122.87,346,123.7Z"/></g><path class="cls-5" d="M314.14,121.78v-7.65s14.93,3.84,15.47,12.78c0,0,1.9-9.88,9.6-10.35l1.08,13.89-9,7.79h-9.08l-7.18-6.2-.94-9.65"/><path class="cls-4" d="M333,169.77a11,11,0,0,1,0-1.64c0-1.06,0-2.59,0-4.48,0-3.77-.1-9-.57-14.73s-1.23-10.91-1.87-14.63c-.31-1.79-.58-3.28-.78-4.4a9,9,0,0,1-.24-1.63,10.73,10.73,0,0,1,.44,1.58c.26,1,.58,2.53.95,4.38a137.4,137.4,0,0,1,2,14.66,135.58,135.58,0,0,1,.43,14.78c-.05,1.89-.13,3.42-.21,4.47A9.21,9.21,0,0,1,333,169.77Z"/><path class="cls-4" d="M328.93,124.34a1.76,1.76,0,0,0-.89.08c-.57.18-1.08.89-1.5,1.91a43.07,43.07,0,0,0-2.84,8.26l-.08.34-.3-.18c-.89-.54-1.81-1.12-2.73-1.75a52.69,52.69,0,0,1-4.84-3.68,6,6,0,0,1-1.65-2.15,6.55,6.55,0,0,1-.5-2.31,13,13,0,0,1,.33-3.34,4.74,4.74,0,0,1,.33-1.19,8.15,8.15,0,0,1-.13,1.22,16.09,16.09,0,0,0-.17,3.29,6.83,6.83,0,0,0,.53,2.15,5.71,5.71,0,0,0,1.58,2c1.41,1.18,3.05,2.41,4.81,3.61q1.38.93,2.7,1.74l-.38.16a38.47,38.47,0,0,1,3-8.29,6.22,6.22,0,0,1,.79-1.28,2,2,0,0,1,1-.65C328.62,124.07,329,124.33,328.93,124.34Z"/><path class="cls-4" d="M339.21,116.56a6.13,6.13,0,0,1,.14,1.19l.24,3.26c.11,1.37.27,3,.55,4.79a7.84,7.84,0,0,1,.18,2.94,5,5,0,0,1-2,2.5,22.09,22.09,0,0,0-3.29,2.5l-.39.45,0-.6a18,18,0,0,0-2.21-7.45c-.95-1.7-1.73-2.57-1.67-2.62s.23.18.59.59A14.05,14.05,0,0,1,332.7,126a17,17,0,0,1,2.44,7.57l-.44-.15a20.12,20.12,0,0,1,3.35-2.58,4.65,4.65,0,0,0,1.78-2.22,8,8,0,0,0-.16-2.74c-.26-1.81-.39-3.46-.45-4.84s-.08-2.5-.08-3.27A5,5,0,0,1,339.21,116.56Z"/><path class="cls-4" d="M387.28,118.48c-.61.71-22.6,30.11-22.6,30.11l3.1,1.75,22.56-29Z"/><path class="cls-9" d="M299,141.72s23.13,33.29,24.53,33.95c2.74,1.29,34.38-26.06,37.4-28.67.42-.56,1.27-1.73,3-4.06,0,0,2.5-11.43,5.16-10.55s-1.46,5.81.28,10.15,9.68-6,10-6.95l2-2.67s2.15,6.09,2,8.63c-.47,8.15-8.18,17.85-8.18,17.85s-34.63,42.89-58.35,44.23c-6.83.38-19-19-27.09-33.54a19.89,19.89,0,0,1,5.67-25.76Z"/><path class="cls-8" d="M379.44,143a32,32,0,0,1,1.48-3,31.26,31.26,0,0,1,1.5-3,19,19,0,0,1-3,6Z"/><path class="cls-5" d="M295,125.47s-24.83,8.83-6.37,50.58l28.66-17.3L313.25,149Z"/><path class="cls-4" d="M293.13,126.19a8.81,8.81,0,0,1,3,.26,12,12,0,0,1,3.26,1.37,17.47,17.47,0,0,1,3.62,3,43.4,43.4,0,0,1,6.74,10.07c2.1,4.06,4.06,8.68,6.07,13.54.6,1.46,1.19,2.89,1.76,4.25l.09.22-.21.11c-8.29,4.52-15.51,8.75-20.61,11.92-2.56,1.58-4.59,2.88-6,3.78l-1.6,1a3.43,3.43,0,0,1-.58.34,2.9,2.9,0,0,1,.52-.42c.35-.25.87-.63,1.56-1.11,1.36-1,3.37-2.29,5.9-3.92,5.06-3.25,12.26-7.54,20.55-12.08l-.11.33c-.56-1.36-1.16-2.79-1.76-4.25-2-4.85-3.95-9.47-6-13.52a44,44,0,0,0-6.58-10,18,18,0,0,0-3.5-3,12.34,12.34,0,0,0-3.16-1.43A19.77,19.77,0,0,0,293.13,126.19Z"/><path class="cls-5" d="M346.54,64.3a1.3,1.3,0,0,1,.12.43,5.31,5.31,0,0,1,.07,1.3,6.63,6.63,0,0,1-8.57,6,5.92,5.92,0,0,1-3.42-2.48,3.46,3.46,0,0,1-.51-2.26,2.87,2.87,0,0,1,1.22-2.06,2.54,2.54,0,0,1,2.4-.16,3.07,3.07,0,0,1,1.65,1.65,4.4,4.4,0,0,1-.66,4.16,5.21,5.21,0,0,1-6.56,1.42,11.24,11.24,0,0,0-2.47-.95,3.09,3.09,0,0,0-1.91.21,10.39,10.39,0,0,0-1.42.93,1.71,1.71,0,0,1,.29-.34,2.61,2.61,0,0,1,.41-.37,3.27,3.27,0,0,1,.63-.41,3.32,3.32,0,0,1,2.05-.3,11.42,11.42,0,0,1,2.57.89,6.77,6.77,0,0,0,1.44.48,4.38,4.38,0,0,0,1.61,0,4.72,4.72,0,0,0,3-1.82,3.88,3.88,0,0,0,.57-3.67,2.35,2.35,0,0,0-3.28-1.26,2.4,2.4,0,0,0-1,1.7,2.93,2.93,0,0,0,.44,1.93,5.44,5.44,0,0,0,3.11,2.28,6.42,6.42,0,0,0,6.29-1.49A6.74,6.74,0,0,0,346.53,66,14.1,14.1,0,0,0,346.54,64.3Z"/><path class="cls-4" d="M341.13,102c0,.06-.3.19-.85.22a4.45,4.45,0,0,1-2.08-.48,4.39,4.39,0,0,1-1.62-1.38c-.31-.46-.39-.79-.33-.82a11.48,11.48,0,0,0,2.18,1.74A11.74,11.74,0,0,0,341.13,102Z"/><path class="cls-4" d="M314.91,97.59s.33.44,0,1.13a1.62,1.62,0,0,1-1,.8,1.71,1.71,0,0,1-1.55-.4,1.89,1.89,0,0,1-.66-1.45,2,2,0,0,1,.46-1.2c.48-.57,1-.62,1-.56s-.36.25-.68.77a1.55,1.55,0,0,0,.24,2,1.32,1.32,0,0,0,1.1.34,1.39,1.39,0,0,0,.82-.54C314.92,98,314.83,97.6,314.91,97.59Z"/><path class="cls-5" d="M348.19,67.67a3.39,3.39,0,0,1,.48,1.83,6.26,6.26,0,0,1-1.49,4.33,6.19,6.19,0,0,1-4.07,2.08,3.28,3.28,0,0,1-1.89-.21c0-.09.73,0,1.84-.15a6.18,6.18,0,0,0,5.24-6C348.33,68.38,348.1,67.69,348.19,67.67Z"/><path class="cls-2" d="M314.37,151.34c.06.12-6.53,3.52-14.73,7.57s-14.89,7.23-15,7.1,6.53-3.51,14.73-7.57S314.3,151.21,314.37,151.34Z"/><path class="cls-2" d="M308.36,140c.07.13-5.8,3.41-13.11,7.34s-13.29,7-13.36,6.87,5.8-3.41,13.11-7.33S308.29,139.87,308.36,140Z"/><path class="cls-2" d="M302.55,130.82a21.3,21.3,0,0,1-2.93,1.74l-7.18,4-7.14,4.07a22.75,22.75,0,0,1-3,1.61,20.33,20.33,0,0,1,2.82-1.93c1.78-1.12,4.27-2.63,7.07-4.21s5.38-2.93,7.26-3.87A21,21,0,0,1,302.55,130.82Z"/><path class="cls-2" d="M324.51,128.65a4.7,4.7,0,0,1-1.93-.52,14.6,14.6,0,0,1-4-2.63,27.84,27.84,0,0,1-3.26-3.53,6.62,6.62,0,0,1-1.13-1.64,8.41,8.41,0,0,1,1.41,1.4c.83.9,1.95,2.15,3.32,3.38a18.58,18.58,0,0,0,3.86,2.69C323.81,128.35,324.54,128.58,324.51,128.65Z"/><path class="cls-2" d="M339.1,123.24a7,7,0,0,1-5.38,4.53c-.05-.15,1.49-.67,3-1.93S339,123.16,339.1,123.24Z"/><path class="cls-2" d="M365.1,138.29a2.93,2.93,0,0,1-.55.1l-1.61.2c-1.4.15-3.43.35-5.94.54-5,.4-11.95.8-19.62,1.08s-14.63.37-19.66.33c-2.51,0-4.55-.07-6-.12l-1.62-.09a2.18,2.18,0,0,1-.57-.06,2.34,2.34,0,0,1,.57,0l1.62,0,6,0c5-.06,12-.22,19.64-.49s14.6-.61,19.62-.91l5.94-.38,1.62-.1A2,2,0,0,1,365.1,138.29Z"/><path class="cls-2" d="M357.21,150.14a9.23,9.23,0,0,1-1.65.26c-1.06.14-2.6.3-4.5.47-3.81.35-9.08.72-14.92.95s-11.12.3-14.94.26c-1.91,0-3.46-.06-4.53-.11a9.22,9.22,0,0,1-1.66-.12,9.91,9.91,0,0,1,1.66-.08l4.53-.06c3.82-.05,9.1-.17,14.92-.41s11.1-.54,14.91-.79l4.51-.31A11.64,11.64,0,0,1,357.21,150.14Z"/><path class="cls-2" d="M339.28,164.77a19.45,19.45,0,0,1-3.31.47c-2.06.21-4.9.44-8.05.6s-6,.21-8.07.2a20.18,20.18,0,0,1-3.35-.14,24.25,24.25,0,0,1,3.34-.23l8.05-.35,8.05-.45A22.82,22.82,0,0,1,339.28,164.77Z"/><path class="cls-2" d="M316.37,130.06c0,.15-3.07.19-6.85.35s-6.84.37-6.85.22a32.92,32.92,0,0,1,6.83-.75A34.55,34.55,0,0,1,316.37,130.06Z"/><path class="cls-2" d="M358.55,129.52a73.56,73.56,0,0,1-8.88.23,78.15,78.15,0,0,1-8.89-.29,73.67,73.67,0,0,1,8.89-.23A77.89,77.89,0,0,1,358.55,129.52Z"/><path class="cls-2" d="M360.09,190.37a3.92,3.92,0,0,1-.91.53c-.6.31-1.49.72-2.6,1.18a57.12,57.12,0,0,1-18.32,4.22c-1.21.07-2.18.09-2.86.08a4.45,4.45,0,0,1-1-.07c0-.09,1.49-.14,3.88-.37a73.43,73.43,0,0,0,9.25-1.49,74.44,74.44,0,0,0,9-2.71C358.69,190.9,360.05,190.3,360.09,190.37Z"/></g><g id="Character_1" data-name="Character 1"><ellipse class="cls-2" cx="89.96" cy="285.19" rx="43.29" ry="41.3"/><path class="cls-4" d="M81.14,185.62c-6.87.36-9.56,7.52-10.38,9.11a13.88,13.88,0,0,0-1.1,5.24,11.5,11.5,0,0,1-1.32,5.18c-1.51,2.41-4.69,3.65-5.55,6.37-1,3.06,1.53,6.34.86,9.49-.36,1.69-1.59,3.08-2,4.76a7,7,0,0,0,.93,5.19c2.25,3.87,6.93,5.82,11.41,6s8.86-1.18,13.14-2.51"/><path class="cls-4" d="M111.36,194.52a4.28,4.28,0,0,0,1,4.42,26.59,26.59,0,0,0,3.72,3,6.08,6.08,0,0,1,2.53,3.93c.14,1.46-.6,2.91-.4,4.37.51,3.74,6.48,4.87,6.8,8.63.21,2.51-2.36,4.81-1.65,7.23a11.53,11.53,0,0,0,1.49,2.46c1.69,2.82.55,6.7-1.91,8.88s-5.87,2.95-9.15,3.09c-2.75.13-5.89-.32-7.51-2.56-1.49-2-1.19-4.83-.89-7.34,1.39-11.71,1.15-23.56.91-35.35"/><path class="cls-9" d="M83,248.75c0-6.16,0-12.64,0-12.64S75,234.7,73.5,224.33c-1.45-9.88,1-31.15,1-31.15h0c11.47-4.52,24.38-2.77,32.42,6.46h0l-1.25,50c-.15,5.8-5.25,10.3-11.47,10.1h0C87.94,259.53,82.9,254.61,83,248.75Z"/><path class="cls-4" d="M76.67,209.51a1.33,1.33,0,0,0,1.26,1.36,1.27,1.27,0,0,0,1.38-1.18,1.32,1.32,0,0,0-1.26-1.36A1.26,1.26,0,0,0,76.67,209.51Z"/><path class="cls-4" d="M74.53,208.49c.17.17,1.18-.56,2.61-.54,2.69.39,2.64.8,2.62.57.08-.07-.09-.39-.54-.73a3.71,3.71,0,0,0-2.1-.67,3.51,3.51,0,0,0-2.07.64C74.61,208.1,74.45,208.41,74.53,208.49Z"/><path class="cls-4" d="M91.28,209.93a1.34,1.34,0,0,0,1.27,1.36,1.27,1.27,0,0,0,1.38-1.18,1.33,1.33,0,0,0-1.26-1.36A1.28,1.28,0,0,0,91.28,209.93Z"/><path class="cls-4" d="M89.43,209c.16.17,1.18-.56,2.6-.54s2.47.75,2.63.58-.09-.4-.54-.73a3.66,3.66,0,0,0-2.1-.68,3.56,3.56,0,0,0-2.08.65C89.5,208.59,89.35,208.9,89.43,209Z"/><path class="cls-4" d="M84.12,219.22a9.65,9.65,0,0,0-2.31-.44c-.37,0-.71-.12-.77-.37a1.91,1.91,0,0,1,.26-1.08l1.11-2.76c1.54-3.94,2.66-7.18,2.5-7.24s-1.54,3.08-3.08,7c-.37,1-.73,1.89-1.06,2.78a2.07,2.07,0,0,0-.21,1.43,1,1,0,0,0,.59.54,2.57,2.57,0,0,0,.62.09A9,9,0,0,0,84.12,219.22Z"/><path class="cls-8" d="M82.94,236.11a26.29,26.29,0,0,0,13.9-3.54s-3.44,7.07-13.79,6Z"/><path class="cls-8" d="M84.69,222.67a2.58,2.58,0,0,1,2.31-.93,2.38,2.38,0,0,1,1.62.89,1.48,1.48,0,0,1,.09,1.7,1.73,1.73,0,0,1-1.88.46A5.56,5.56,0,0,1,85,223.68a1.63,1.63,0,0,1-.4-.43.45.45,0,0,1,0-.53"/><path class="cls-4" d="M88.31,220.26c-.23,0-.25,1.53-1.59,2.62s-3,.89-3,1.11.36.3,1.06.33a3.85,3.85,0,0,0,2.51-.84,3.37,3.37,0,0,0,1.23-2.2C88.59,220.64,88.42,220.25,88.31,220.26Z"/><path class="cls-4" d="M102.43,192.26c-3.78,5.4-13.81,11-21,12.24.83-1.11,5.24-3.82,6.08-4.93-3.25,2.43-7.91,5.68-12.23,5.9a2.54,2.54,0,0,1-1.48-.23,2,2,0,0,1-.75-1.62,43.28,43.28,0,0,1,.29-9.38,10.41,10.41,0,0,1,3.74-6.69c2.76-2.14,6.72-2.67,10.45-2.76A23.72,23.72,0,0,1,96.76,186c2.86,1.13,5.31,3.36,5.72,6"/><path class="cls-4" d="M113.29,216.45a57.4,57.4,0,0,0,1-6.92c.31-5.34-1.23-25.05-19.65-23.46l-.74,5.6S91.09,210.87,103,211a21.33,21.33,0,0,0,6,11.28s3.12-.09,4.24-5.84"/><path class="cls-9" d="M103,211a6.15,6.15,0,0,1,3.32.25,4.36,4.36,0,0,1,2.42,2.24,4.56,4.56,0,0,1,0,3.31,7.68,7.68,0,0,1-1.92,2.76,5.19,5.19,0,0,1-2,1.31,2.46,2.46,0,0,1-2.3-.38"/><path class="cls-8" d="M103.53,217.73c-.13,0,.35.71,1.36.45a2.16,2.16,0,0,0,1.26-1.08,5,5,0,0,0,.58-1.83,3,3,0,0,0-.45-2,1.94,1.94,0,0,0-1.44-.88c-1,0-1.38.69-1.26.71s.49-.28,1.17-.11a1.87,1.87,0,0,1,1.13,2.15,3.13,3.13,0,0,1-1.19,2.43C104.05,217.93,103.6,217.63,103.53,217.73Z"/><path class="cls-4" d="M105,190.23a6.28,6.28,0,0,0,8.5-2.23,4,4,0,0,0,.58-3,4.11,4.11,0,0,0-3.09-2.68,6.29,6.29,0,0,0-5.81,1.39,5.55,5.55,0,0,0-1.49,5.7,4.93,4.93,0,0,0,4.77,3.29"/><path class="cls-4" d="M106.68,220.08a14.69,14.69,0,0,0-2.86,2.47,4.91,4.91,0,0,0-1.23,3.48,9.45,9.45,0,0,1,.23,2.1,7.05,7.05,0,0,1-1.45,2.5,5.93,5.93,0,0,0,.93,7,9.66,9.66,0,0,0,6.81,2.76,6.9,6.9,0,0,0,4.18-1c1.72-1.21,2.38-3.47,2.42-5.57"/><path class="cls-5" d="M107.93,194.36a6.46,6.46,0,0,1-1.08,1.89,21.76,21.76,0,0,1-3.55,3.88,21.32,21.32,0,0,1-4.37,2.92,6.71,6.71,0,0,1-2,.79,47,47,0,0,0,6.06-4.1A45.35,45.35,0,0,0,107.93,194.36Z"/><path class="cls-5" d="M109.84,194.26a8,8,0,0,1-.34,2.52,19.92,19.92,0,0,1-2.34,5.69,20.58,20.58,0,0,1-3.93,4.74,8.17,8.17,0,0,1-2.07,1.48,31.6,31.6,0,0,0,5.56-6.48A31.49,31.49,0,0,0,109.84,194.26Z"/><path class="cls-5" d="M69.87,202.6c.15,0,.35,1.72.95,3.76s1.34,3.62,1.2,3.7a11.91,11.91,0,0,1-2.15-7.46Z"/><path class="cls-5" d="M114,238a2.89,2.89,0,0,0,1.53.49,3.08,3.08,0,0,0,1.76-.55,3.55,3.55,0,0,0,1.33-2,6.53,6.53,0,0,0,0-3c-.21-1.08-.64-2.2-1-3.43a9.08,9.08,0,0,1-.44-4c.23-1.46,1.18-2.65,1.64-4a5.2,5.2,0,0,0-3-6.45,17.53,17.53,0,0,1-1.72-.75,3.4,3.4,0,0,1-1.37-1.23,5.8,5.8,0,0,1-.62-3.14,10.77,10.77,0,0,0-.1-2.54,4.34,4.34,0,0,0-.75-1.73,2.48,2.48,0,0,0-1.35-.83,1,1,0,0,1,.44,0,2.11,2.11,0,0,1,1.06.67,4.11,4.11,0,0,1,.88,1.79,10.28,10.28,0,0,1,.19,2.61,5.39,5.39,0,0,0,.62,2.91c.55.92,1.72,1.3,2.9,1.77a5.67,5.67,0,0,1,3.34,7.06c-.52,1.44-1.43,2.58-1.63,3.89a8.73,8.73,0,0,0,.4,3.81c.35,1.2.77,2.35,1,3.48A7,7,0,0,1,119,236a3.88,3.88,0,0,1-1.53,2.16,3.3,3.3,0,0,1-1.93.52,2.36,2.36,0,0,1-1.2-.4A1,1,0,0,1,114,238Z"/><path class="cls-5" d="M106.75,237.27s.14.32.62.54a1.64,1.64,0,0,0,1.94-.52,3.06,3.06,0,0,0-.16-3.13c-.57-1.13-1.7-2.24-2-3.89a2.79,2.79,0,0,1,.55-2.31c.49-.6,1.07-1,1.44-1.5a4.33,4.33,0,0,0,.7-3.19,12.2,12.2,0,0,0-.58-2.27,3.41,3.41,0,0,1-.23-.85s.19.26.42.78a9.27,9.27,0,0,1,.75,2.28,4.63,4.63,0,0,1-.68,3.54c-.42.58-1,1-1.42,1.53a2.33,2.33,0,0,0-.44,1.9c.24,1.44,1.3,2.53,1.9,3.76a3.38,3.38,0,0,1,0,3.56,1.83,1.83,0,0,1-1.27.7,1.73,1.73,0,0,1-1.06-.21C106.74,237.67,106.74,237.26,106.75,237.27Z"/><path class="cls-5" d="M67.56,234.66a4.2,4.2,0,0,1-.82-.81A9.88,9.88,0,0,1,65,231.22a5.22,5.22,0,0,1-.42-2.19,3.79,3.79,0,0,1,.88-2.42c.62-.72,1.52-1.09,2.06-1.76a2.94,2.94,0,0,0,.41-2.57,11,11,0,0,0-1.09-2.65,9.26,9.26,0,0,1-1-2.62,3.44,3.44,0,0,1,.52-2.53,8.87,8.87,0,0,1,1.52-1.58,4.6,4.6,0,0,0,1.71-2.44,3,3,0,0,0,0-1.1s.08.07.15.26a1.82,1.82,0,0,1,.09.87,4.58,4.58,0,0,1-1.66,2.68,8.83,8.83,0,0,0-1.41,1.55,3,3,0,0,0-.4,2.21,8.78,8.78,0,0,0,1,2.47,11,11,0,0,1,1.15,2.76,3.46,3.46,0,0,1-.52,3c-.68.8-1.58,1.15-2.1,1.76a3.38,3.38,0,0,0-.81,2.12,4.9,4.9,0,0,0,.33,2,10.88,10.88,0,0,0,1.56,2.64A6.27,6.27,0,0,1,67.56,234.66Z"/><path class="cls-3" d="M109.26,191.54a16.55,16.55,0,0,0-2.44-2.65,15.8,15.8,0,0,0-3.21-1.62,4.84,4.84,0,0,1,3.52,1.21A4.91,4.91,0,0,1,109.26,191.54Z"/><path class="cls-5" d="M110.7,182c.06,0,.39.36.66,1.14a5.4,5.4,0,0,1-1.62,5.85c-.63.53-1.11.69-1.14.64s.36-.35.89-.91a6.1,6.1,0,0,0,1.46-2.55,6.36,6.36,0,0,0,.06-2.93A7.27,7.27,0,0,1,110.7,182Z"/><path class="cls-12" d="M59.92,305s24.85,23.59,39.62,19.32S118.68,309,118.68,309l.35-4-1.48-1-56.86-4.6Z"/><path class="cls-8" d="M45.22,282.88,50,270.59l17.17,10.79L51.89,305S45.66,296.9,45.22,282.88Z"/><path class="cls-3" d="M64.6,248.93c8-4.17,18.34-5.37,18.34-5.37h0c3,6,12.47,6.77,18.2,2.67L106,243a18,18,0,0,1,2,.08,25.82,25.82,0,0,1,22.86,20.56,51.34,51.34,0,0,1,1.21,13c-.63,10.93-11.94,11.91-11.94,11.91s-.58,10.8-1.35,19.52h0a16.3,16.3,0,0,1-9.89,14.12A40,40,0,0,1,96.27,326a42.35,42.35,0,0,1-37.58-13c1.72-10.4,3.36-23.88,3.24-24.48a.33.33,0,0,1,0-.2l-11.21-9.95L44.38,273s13.95-20.7,20.22-24.11"/><path class="cls-6" d="M78.5,255.67a6,6,0,0,0-2.78-.77,4.55,4.55,0,0,0-2.85,1,11.44,11.44,0,0,0-1.28,1.37,3.35,3.35,0,0,1-1.81,1.2,2.94,2.94,0,0,1-2.11-.56c-.58-.37-1.07-.78-1.58-1.07a3.46,3.46,0,0,0-2.93-.25,3.89,3.89,0,0,0-1.71,1.17c-.31.39-.43.66-.47.64a1.63,1.63,0,0,1,.31-.76,3.86,3.86,0,0,1,5-1.21c.56.3,1.06.71,1.61,1a2.46,2.46,0,0,0,1.75.49,2.93,2.93,0,0,0,1.52-1,11.25,11.25,0,0,1,1.36-1.4,4.77,4.77,0,0,1,3.16-1,4.51,4.51,0,0,1,2.14.61A1.83,1.83,0,0,1,78.5,255.67Z"/><path class="cls-6" d="M89.89,270.59A6,6,0,0,0,87.51,269a4.56,4.56,0,0,0-3,0,12.28,12.28,0,0,0-1.64.89,3.32,3.32,0,0,1-2.1.56,3,3,0,0,1-1.83-1.21c-.42-.54-.76-1.08-1.15-1.51a3.42,3.42,0,0,0-2.7-1.18,3.89,3.89,0,0,0-2,.57c-.42.27-.61.48-.65.45s.12-.28.54-.62a3.71,3.71,0,0,1,2.09-.77,3.75,3.75,0,0,1,3.07,1.23c.43.47.78,1,1.19,1.5a2.44,2.44,0,0,0,1.5,1,2.79,2.79,0,0,0,1.78-.49,11.31,11.31,0,0,1,1.73-.89,4.77,4.77,0,0,1,3.31.07,4.61,4.61,0,0,1,1.84,1.27A1.69,1.69,0,0,1,89.89,270.59Z"/><path class="cls-6" d="M115.2,248.73a6.08,6.08,0,0,0-2.87-.16,4.57,4.57,0,0,0-2.59,1.58,11.27,11.27,0,0,0-.95,1.6,3.27,3.27,0,0,1-1.52,1.56,3,3,0,0,1-2.18-.1c-.65-.24-1.21-.53-1.77-.71a3.44,3.44,0,0,0-2.92.37A4,4,0,0,0,99,254.38a7.23,7.23,0,0,1-.32.72s0-.3.14-.8a3.74,3.74,0,0,1,1.4-1.74,3.79,3.79,0,0,1,3.26-.52c.61.18,1.19.47,1.8.69a2.48,2.48,0,0,0,1.81.1,2.85,2.85,0,0,0,1.28-1.33,10.87,10.87,0,0,1,1-1.66,4.8,4.8,0,0,1,2.89-1.63,4.6,4.6,0,0,1,2.22.14A1.78,1.78,0,0,1,115.2,248.73Z"/><path class="cls-6" d="M103.52,265.14a5.08,5.08,0,0,0-1.79-1.29,3.6,3.6,0,0,0-2.31-.07,8.85,8.85,0,0,0-1.28.63,2.66,2.66,0,0,1-1.68.37,2.31,2.31,0,0,1-1.4-1c-.31-.43-.55-.86-.83-1.21a2.59,2.59,0,0,0-2-1,3.6,3.6,0,0,0-2.07.65s.09-.22.42-.48a3,3,0,0,1,1.66-.54,2.93,2.93,0,0,1,2.36,1.06c.32.38.57.81.87,1.2a1.91,1.91,0,0,0,1.09.82c.92.16,1.76-.67,2.72-.94a3.69,3.69,0,0,1,2.58.18C103.25,264.15,103.57,265.15,103.52,265.14Z"/><path class="cls-6" d="M77.77,279a5.11,5.11,0,0,0-1.8-1.28,3.5,3.5,0,0,0-2.3-.08,10.8,10.8,0,0,0-1.29.63,2.63,2.63,0,0,1-1.68.37,2.32,2.32,0,0,1-1.39-1c-.32-.43-.56-.86-.84-1.21a2.57,2.57,0,0,0-2-1,3.61,3.61,0,0,0-2.07.65s.09-.22.42-.48a3,3,0,0,1,4,.52c.32.38.57.81.86,1.2a2,2,0,0,0,1.09.82c.92.16,1.77-.67,2.73-.94a3.7,3.7,0,0,1,2.58.18C77.5,278,77.82,279,77.77,279Z"/><path class="cls-6" d="M101.84,279.27a5.13,5.13,0,0,0-2.11-.63,3.47,3.47,0,0,0-2.2.67,9.65,9.65,0,0,0-1,1,2.56,2.56,0,0,1-1.47.89,2.29,2.29,0,0,1-1.65-.51c-.44-.3-.8-.63-1.18-.87a2.62,2.62,0,0,0-2.21-.3,3.72,3.72,0,0,0-1.75,1.29s0-.24.25-.58a2.79,2.79,0,0,1,1.38-1.05,3,3,0,0,1,2.59.23c.42.26.8.59,1.21.86a1.82,1.82,0,0,0,1.29.42c.92-.15,1.45-1.2,2.27-1.77a3.69,3.69,0,0,1,2.51-.66A2.71,2.71,0,0,1,101.84,279.27Z"/><path class="cls-6" d="M93.89,290.26a4.88,4.88,0,0,0-2.12-.64,3.51,3.51,0,0,0-2.2.68,8.73,8.73,0,0,0-1,1,2.65,2.65,0,0,1-1.47.89,2.34,2.34,0,0,1-1.65-.52c-.44-.3-.81-.63-1.18-.87a2.62,2.62,0,0,0-2.21-.29,3.59,3.59,0,0,0-1.75,1.29s0-.24.24-.59a3,3,0,0,1,4-.81c.43.25.81.58,1.21.85a1.86,1.86,0,0,0,1.3.42c.92-.14,1.45-1.2,2.27-1.77a3.73,3.73,0,0,1,2.5-.66A2.7,2.7,0,0,1,93.89,290.26Z"/><path class="cls-6" d="M77.09,317.52a5.06,5.06,0,0,0-1.81-1.26,3.46,3.46,0,0,0-2.3,0,9,9,0,0,0-1.28.64,2.56,2.56,0,0,1-1.67.39,2.27,2.27,0,0,1-1.41-1c-.32-.42-.57-.85-.85-1.19a2.65,2.65,0,0,0-2-1,3.7,3.7,0,0,0-2.07.68s.09-.22.42-.48a2.89,2.89,0,0,1,1.64-.57,2.92,2.92,0,0,1,2.38,1c.33.38.59.8.89,1.19a1.84,1.84,0,0,0,1.1.8c.92.15,1.75-.69,2.71-1a3.71,3.71,0,0,1,2.58.15C76.81,316.53,77.15,317.53,77.09,317.52Z"/><path class="cls-6" d="M96.75,323.32a5,5,0,0,0-2.11-.67,3.43,3.43,0,0,0-2.21.65,9.35,9.35,0,0,0-1,1,2.54,2.54,0,0,1-1.48.87,2.31,2.31,0,0,1-1.65-.54c-.43-.31-.79-.64-1.16-.88a2.63,2.63,0,0,0-2.21-.33,3.55,3.55,0,0,0-1.76,1.27s0-.24.25-.59a2.89,2.89,0,0,1,1.4-1,3,3,0,0,1,2.58.27c.42.27.8.6,1.2.88a1.83,1.83,0,0,0,1.28.43c.93-.13,1.47-1.18,2.3-1.73a3.69,3.69,0,0,1,2.52-.63A2.69,2.69,0,0,1,96.75,323.32Z"/><path class="cls-4" d="M32,240.62c.6.71,22.59,30.11,22.59,30.11l-3.1,1.75-22.56-29Z"/><path class="cls-9" d="M117.8,261.59s-20.62,35.56-22,36.22C93,299.1,61.4,271.75,58.38,269.14c-.41-.56-1.27-1.73-3-4.06,0,0-2.49-11.43-5.16-10.55s1.46,5.8-.27,10.15-9.69-6-10-6.95l-2.05-2.67s-2.15,6.09-2,8.63c.47,8.15,8.18,17.85,8.18,17.85s31.34,39.26,55.06,40.59c6.83.38,19.88-19.28,28-33.82,4.9-8.78,2.62-17.7-5.5-23.62Z"/><path class="cls-8" d="M39.83,265.14a12.27,12.27,0,0,1-1.77-2.88,12.12,12.12,0,0,1-1.21-3.14c.08,0,.67,1.35,1.49,3S39.9,265.09,39.83,265.14Z"/><path class="cls-3" d="M116.83,251.7c-.81.49-20,36.09-20,36.09l24.68,19.33a283.73,283.73,0,0,0,9.81-28.68c.92-3.49.45-12.81-.85-16.41-1.84-5.11-4.62-3.84-8.79-6.84Z"/><g class="cls-13"><path d="M124.94,251.7s-.24-.14-.7-.37a4.19,4.19,0,0,0-2.17-.46,6,6,0,0,0-3.22,1.35,16.2,16.2,0,0,0-3.22,3.46c-1,1.42-1.9,3.16-2.95,5l-3.3,5.79-7.59,13.26-4.73,8.22-.06-.32,16.7,13.2,4.84,3.89,1.29,1.06a2.34,2.34,0,0,1,.42.39,4.28,4.28,0,0,1-.48-.32l-1.33-1L113.5,301,96.69,288l-.18-.14.11-.19c1.5-2.6,3.08-5.38,4.72-8.23,2.7-4.69,5.27-9.16,7.62-13.23,1.17-2,2.29-3.95,3.34-5.76a56.86,56.86,0,0,1,3-5,15.85,15.85,0,0,1,3.33-3.47,6,6,0,0,1,3.39-1.32,4.08,4.08,0,0,1,2.23.57,3.31,3.31,0,0,1,.5.33C124.89,251.65,125,251.69,124.94,251.7Z"/></g><path class="cls-6" d="M117.57,285.08a5.08,5.08,0,0,0-1.79-1.29,3.53,3.53,0,0,0-2.31-.07,8.85,8.85,0,0,0-1.28.63,2.59,2.59,0,0,1-1.68.36,2.31,2.31,0,0,1-1.4-1c-.31-.43-.55-.85-.83-1.2a2.63,2.63,0,0,0-2-1,3.65,3.65,0,0,0-2.07.66s.09-.22.42-.48a2.82,2.82,0,0,1,1.66-.54,2.93,2.93,0,0,1,2.36,1.06c.32.38.57.81.87,1.2a1.85,1.85,0,0,0,1.09.81c.92.16,1.76-.66,2.72-.94a3.74,3.74,0,0,1,2.58.19C117.3,284.09,117.62,285.09,117.57,285.08Z"/><path class="cls-6" d="M128.85,280.47a5.07,5.07,0,0,0-1.38-1.72,3.54,3.54,0,0,0-2.2-.69,9.14,9.14,0,0,0-1.4.26,2.64,2.64,0,0,1-1.72-.1,2.35,2.35,0,0,1-1.07-1.36c-.19-.5-.3-1-.48-1.38A2.6,2.6,0,0,0,119,274a3.58,3.58,0,0,0-2.17.07s.15-.19.53-.35a3,3,0,0,1,3.73,1.58c.21.45.34.94.52,1.4a1.87,1.87,0,0,0,.82,1.07c.85.41,1.88-.16,2.88-.17a3.75,3.75,0,0,1,2.44.88A2.69,2.69,0,0,1,128.85,280.47Z"/><path class="cls-6" d="M129.43,265.76a5.07,5.07,0,0,0-1.38-1.72,3.42,3.42,0,0,0-2.2-.69,9,9,0,0,0-1.4.25,2.58,2.58,0,0,1-1.72-.1,2.32,2.32,0,0,1-1.07-1.36c-.19-.5-.3-1-.48-1.38a2.6,2.6,0,0,0-1.65-1.5,3.68,3.68,0,0,0-2.17.07s.15-.19.53-.34a2.85,2.85,0,0,1,1.74-.08,2.9,2.9,0,0,1,2,1.66c.21.45.34.93.52,1.39A1.89,1.89,0,0,0,123,263c.85.4,1.88-.17,2.88-.17a3.75,3.75,0,0,1,2.44.87A2.7,2.7,0,0,1,129.43,265.76Z"/><path class="cls-6" d="M124,299.59a5.23,5.23,0,0,0-1.38-1.72,3.42,3.42,0,0,0-2.2-.69,9.36,9.36,0,0,0-1.41.25,2.55,2.55,0,0,1-1.71-.1A2.32,2.32,0,0,1,116.2,296c-.19-.5-.3-1-.48-1.38a2.6,2.6,0,0,0-1.65-1.5,3.68,3.68,0,0,0-2.17.07s.15-.19.53-.34a2.85,2.85,0,0,1,1.74-.08,2.9,2.9,0,0,1,2,1.66c.21.45.34.93.51,1.39a1.88,1.88,0,0,0,.83,1.08c.84.4,1.88-.17,2.88-.17a3.75,3.75,0,0,1,2.44.87A2.7,2.7,0,0,1,124,299.59Z"/></g></g></svg>