<svg xmlns="http://www.w3.org/2000/svg" xmlns:xlink="http://www.w3.org/1999/xlink" viewBox="0 0 641.3 440.72"><defs><style>.cls-1{fill:none;}.cls-2{fill:#e0e0e0;}.cls-3{fill:#fff;}.cls-4{opacity:0.5;}.cls-5{fill:#ebebeb;}.cls-6{fill:#263238;}.cls-7{fill:#455a64;}.cls-8{fill:#fafafa;}.cls-9{clip-path:url(#clip-path);}.cls-10{fill:#e8505b;}.cls-11{opacity:0.2;}.cls-12{opacity:0.4;}.cls-13{fill:#b78876;}.cls-14{opacity:0.3;}.cls-15{fill:#995037;}.cls-16{clip-path:url(#clip-path-2);}.cls-17{clip-path:url(#clip-path-3);}.cls-18{opacity:0.8;}.cls-19{opacity:0.7;}</style><clipPath id="clip-path"><path class="cls-1" d="M315.63,143s-13.31-.19-16.23,4.17-15,31.41-15,31.41l18.86,9.83,4.07-11.61,6.62,24.26c-7.58,6-18.32,60.63-16.19,83.64l70.88.22s.49-63.83-18.68-84.82l4.5-25.36,4.32,12.38,20-8.3L363.7,151.74A14.58,14.58,0,0,0,351,144.25l-4.91,0s-2.07,18.13-15.24,17.77S315.63,143,315.63,143Z"/></clipPath><clipPath id="clip-path-2"><path class="cls-1" d="M172.74,190.4l16.85-12.24,21.89,25.93a11,11,0,0,1,2.25,10l-7.37,28a9.38,9.38,0,0,1-9.73,7h0A9.38,9.38,0,0,1,188,238.49l3.25-25.26Z"/></clipPath><clipPath id="clip-path-3"><path class="cls-1" d="M181.44,181.44l16.85-12.25,21.89,25.93a11.09,11.09,0,0,1,2.26,10l-7.38,28a9.39,9.39,0,0,1-9.73,7h0a9.38,9.38,0,0,1-8.65-10.56l3.25-25.27Z"/></clipPath></defs><title>Asset 1</title><g id="Layer_2" data-name="Layer 2"><g id="Background_Complete" data-name="Background Complete"><path class="cls-2" d="M539.59,226.83,380,198.37a7.53,7.53,0,0,1-6.1-8.74L391.45,91a7.54,7.54,0,0,1,8.75-6.1l159.61,28.45a7.54,7.54,0,0,1,6.1,8.75l-17.58,98.6A7.53,7.53,0,0,1,539.59,226.83Z"/><path class="cls-3" d="M536.83,136.51a12.23,12.23,0,1,1-9.9-14.19A12.24,12.24,0,0,1,536.83,136.51Z"/><path class="cls-3" d="M539.32,149.69a13.36,13.36,0,0,1-2.26-.2,12.7,12.7,0,1,1,2.26.2Zm0-24.47A11.73,11.73,0,1,0,546,146.58a11.63,11.63,0,0,0,4.83-7.57h0a11.74,11.74,0,0,0-9.49-13.61A12,12,0,0,0,539.29,125.22Z"/><path class="cls-3" d="M395.28,158.94l-1.72,9.69-1-.18,1.57-8.8-2.28-.41.16-.88Z"/><path class="cls-3" d="M403.68,169.52l-.16.88-6.8-1.21.13-.7,4.73-3.23c1.28-.88,1.61-1.5,1.73-2.16.2-1.12-.47-1.95-1.95-2.22a3.33,3.33,0,0,0-2.83.61l-.6-.73a4.41,4.41,0,0,1,3.68-.78c2,.35,3,1.57,2.74,3.19-.16.93-.6,1.71-2.13,2.75l-3.87,2.65Z"/><path class="cls-3" d="M414.17,169.68l-1.94-.35-.45,2.55-1-.18.45-2.55-5.46-1,.13-.72,6.28-5.51,1.1.2-6.07,5.37,4.21.75.4-2.24,1,.17-.4,2.24,1.94.35Z"/><path class="cls-3" d="M429,172.32l-1.94-.34-.45,2.54-1-.18.46-2.54-5.47-1,.13-.72,6.28-5.5,1.1.2-6.06,5.37,4.2.75.4-2.24,1,.17-.4,2.24,1.94.35Z"/><path class="cls-3" d="M437.53,173.53c-.29,1.64-1.67,2.72-4,2.3a5.08,5.08,0,0,1-3.25-1.86l.63-.7a4.26,4.26,0,0,0,2.77,1.65c1.65.29,2.66-.36,2.87-1.53s-.42-2.16-2.88-2.6l-2.06-.37,1.37-4.77,5.29.95-.15.89-4.43-.79-.88,3,1.24.22C436.93,170.46,437.83,171.81,437.53,173.53Z"/><path class="cls-3" d="M447.11,175.19a3.08,3.08,0,0,1-3.84,2.39c-2.57-.46-3.65-2.5-3.11-5.55.59-3.3,2.69-4.69,5.32-4.22a4.5,4.5,0,0,1,2.21.93l-.55.73a3.47,3.47,0,0,0-1.8-.79c-2.09-.37-3.67.73-4.14,3.36,0,.22-.07.5-.1.8a3.15,3.15,0,0,1,3.26-1.14C446.28,172.05,447.42,173.42,447.11,175.19Zm-1-.15c.23-1.27-.57-2.25-2.06-2.52a2.28,2.28,0,0,0-2.87,1.67c-.19,1.07.52,2.24,2.19,2.53A2.15,2.15,0,0,0,446.12,175Z"/><path class="cls-3" d="M460.34,177.66c-.29,1.62-1.69,2.66-4,2.24a5.1,5.1,0,0,1-3.27-1.87l.63-.7a4.32,4.32,0,0,0,2.8,1.66c1.6.28,2.62-.31,2.84-1.51s-.48-2.07-2.28-2.39l-.69-.12.13-.73,3.29-2.89-5-.88.16-.89,6.23,1.11-.13.71-3.35,2.95C459.77,174.84,460.62,176.11,460.34,177.66Z"/><path class="cls-3" d="M470.07,179.28a3.07,3.07,0,0,1-3.84,2.39c-2.57-.46-3.65-2.49-3.1-5.55.58-3.29,2.69-4.69,5.32-4.22a4.47,4.47,0,0,1,2.2.93l-.55.74a3.44,3.44,0,0,0-1.8-.8c-2.08-.37-3.67.73-4.13,3.36a7.25,7.25,0,0,0-.1.8,3.13,3.13,0,0,1,3.25-1.13C469.25,176.14,470.39,177.51,470.07,179.28Zm-1-.14c.23-1.28-.57-2.26-2.06-2.53a2.28,2.28,0,0,0-2.87,1.68c-.19,1.06.52,2.23,2.19,2.53A2.15,2.15,0,0,0,469.08,179.14Z"/><path class="cls-3" d="M480.19,174.08l-.13.7L474.41,183l-1.08-.19,5.55-8.09-5-.89-.32,1.81-1-.17.48-2.7Z"/><path class="cls-3" d="M494,176.55l-.13.7-5.65,8.26-1.08-.19,5.55-8.09-5-.89-.32,1.81-1-.17.49-2.7Z"/><path class="cls-3" d="M502.32,185.23c-.31,1.72-1.95,2.53-4.26,2.11s-3.54-1.73-3.24-3.44a2.46,2.46,0,0,1,2.29-2.05,2.22,2.22,0,0,1-1.14-2.4c.28-1.58,1.8-2.32,3.85-2s3.24,1.59,3,3.17a2.25,2.25,0,0,1-1.93,1.86A2.47,2.47,0,0,1,502.32,185.23Zm-1-.19c.21-1.19-.68-2.12-2.4-2.43s-2.85.26-3.07,1.45.67,2.13,2.38,2.44S501.09,186.24,501.3,185Zm-2.25-3.22c1.5.27,2.52-.25,2.71-1.3s-.64-1.93-2.09-2.18-2.51.23-2.71,1.31S497.54,181.55,499.05,181.82Z"/><path class="cls-3" d="M512.12,184.68c-.58,3.29-2.69,4.69-5.32,4.22a4.47,4.47,0,0,1-2.2-.93l.54-.73a3.51,3.51,0,0,0,1.8.79c2.09.37,3.68-.73,4.14-3.36a7.25,7.25,0,0,0,.1-.8,3.13,3.13,0,0,1-3.25,1.13c-1.93-.34-3.07-1.71-2.75-3.48a3.06,3.06,0,0,1,3.83-2.39C511.59,179.59,512.67,181.62,512.12,184.68Zm-1-2.17c.19-1.06-.52-2.23-2.19-2.53a2.15,2.15,0,0,0-2.74,1.68c-.23,1.28.56,2.26,2.06,2.53A2.28,2.28,0,0,0,511.1,182.51Z"/><path class="cls-3" d="M522.79,181.67l-1.72,9.69-1-.18,1.57-8.8-2.28-.41.15-.88Z"/><path class="cls-3" d="M531.18,192.25l-.15.88-6.8-1.21.13-.7,4.73-3.23c1.28-.88,1.61-1.5,1.72-2.16.2-1.12-.46-2-1.94-2.22a3.36,3.36,0,0,0-2.84.61l-.59-.73a4.39,4.39,0,0,1,3.67-.78c2,.35,3,1.57,2.75,3.19-.17.93-.61,1.71-2.13,2.75l-3.87,2.65Z"/><path class="cls-3" d="M540.21,191.9c-.29,1.62-1.69,2.66-4,2.24a5.1,5.1,0,0,1-3.26-1.87l.62-.7a4.37,4.37,0,0,0,2.81,1.66c1.6.28,2.62-.31,2.83-1.51s-.47-2.07-2.27-2.39l-.69-.12.13-.74,3.28-2.88-5-.88.16-.89,6.23,1.11-.13.71-3.35,3C539.64,189.07,540.48,190.35,540.21,191.9Z"/><rect class="cls-3" x="500.34" y="158.21" width="4.27" height="78.8" transform="translate(219.77 657.61) rotate(-79.89)"/><rect class="cls-3" x="517.73" y="189.17" width="4.27" height="40.41" transform="translate(222.53 684.44) rotate(-79.89)"/><g class="cls-4"><rect class="cls-5" x="392.78" y="127.93" width="33.06" height="24.7" rx="4.96" transform="translate(30.97 -69.66) rotate(10.11)"/></g><path class="cls-2" d="M392.06,142.81l.28-1.56,16.76,3a3.57,3.57,0,1,0,1.25-7l-16.76-3,.28-1.56,16.76,3a5.15,5.15,0,1,1-1.81,10.14Z"/><rect class="cls-2" x="418.97" y="136.68" width="1.58" height="11.68" transform="translate(205.43 530.56) rotate(-79.84)"/><rect class="cls-3" x="401.31" y="113.31" width="85.03" height="7.3" transform="translate(27.42 -76.1) rotate(10.11)"/><rect class="cls-2" x="120.88" y="12.85" width="141.74" height="146.24" rx="8.76" transform="translate(-14.88 47.71) rotate(-13.66)"/><path class="cls-3" d="M226.17,106.84a.86.86,0,0,1-.27.1l-.81.23L222,108l-11.59,2.92-38.95,9.57-.27.07-.1-.26c-.79-2-1.63-4.1-2.47-6.24L150.79,68.8l.23.12-10.4,2.43-2.78.62-.71.15a.79.79,0,0,1-.25,0,.92.92,0,0,1,.23-.09l.71-.2,2.75-.72,10.36-2.61.17,0,.06.17c4.24,10.61,10.74,26.9,18,45.16l2.47,6.24-.37-.19,39-9.38,11.63-2.72,3.15-.71.82-.17A1.48,1.48,0,0,1,226.17,106.84Z"/><path class="cls-3" d="M167,109.19s.09,0,.27-.09l.8-.22,3.12-.81,11.71-2.94,40.43-9.94-.24.32c-.45-7.1-.94-14.78-1.45-22.73-.26-4.08-.52-8.1-.76-11.93l.39.29-47.7,11.48L159.44,76l-3.82.87-1,.21-.34,0a1.4,1.4,0,0,1,.33-.11l1-.27,3.79-1,14.09-3.53,47.65-11.68.37-.09,0,.37c.24,3.83.5,7.85.76,11.93.5,8,1,15.63,1.43,22.73l0,.26-.25.06L183,105.5l-11.75,2.77-3.15.71-.81.17A.87.87,0,0,1,167,109.19Z"/><path class="cls-3" d="M188.67,131.71c-.06,0-.17-.47-.6-1.24a5.66,5.66,0,0,0-2.71-2.38A5.38,5.38,0,0,0,178,134.3a5.39,5.39,0,0,0,9.37,2.15,5.58,5.58,0,0,0,1.31-3.36c0-.88-.09-1.37,0-1.38s.07.11.13.34a4.38,4.38,0,0,1,.15,1,5.65,5.65,0,0,1-1.21,3.65,5.85,5.85,0,0,1-5.2,2.2,5.92,5.92,0,0,1-2.63-10.84,5.89,5.89,0,0,1,5.63-.43,5.57,5.57,0,0,1,2.74,2.69,3.83,3.83,0,0,1,.35,1C188.68,131.58,188.69,131.71,188.67,131.71Z"/><path class="cls-3" d="M224,123.14c-.06,0-.17-.48-.61-1.24a5.62,5.62,0,0,0-2.71-2.39,5.37,5.37,0,1,0,2,8.37,5.64,5.64,0,0,0,1.31-3.36c0-.88-.09-1.37,0-1.38s.06.11.13.34a4.38,4.38,0,0,1,.15,1,5.63,5.63,0,0,1-1.21,3.64,5.85,5.85,0,0,1-5.2,2.2,5.91,5.91,0,0,1-2.63-10.83,5.86,5.86,0,0,1,5.63-.43,5.69,5.69,0,0,1,2.74,2.68,4.46,4.46,0,0,1,.35,1C224,123,224,123.13,224,123.14Z"/><path class="cls-3" d="M232.5,52.21a16.1,16.1,0,1,1-19.44-11.84A16.1,16.1,0,0,1,232.5,52.21Z"/><path class="cls-2" d="M223.69,50a16.32,16.32,0,0,1-1.45,3c-1,1.81-2.34,4.28-3.89,7-.59,1-1.15,2-1.67,2.89l-.15.26-.26-.14c-2.05-1.08-3.81-2-5-2.73a9.37,9.37,0,0,1-1.92-1.21,10.41,10.41,0,0,1,2.09.87c1.29.6,3.08,1.49,5.15,2.53l-.4.12,1.64-2.9c1.56-2.72,3-5.16,4.06-6.92A18.48,18.48,0,0,1,223.69,50Z"/></g><g id="Floor"><path class="cls-6" d="M641.3,435.78c0,.14-143.57.26-320.64.26S0,435.92,0,435.78s143.54-.26,320.66-.26S641.3,435.63,641.3,435.78Z"/></g><g id="Device"><path class="cls-7" d="M396.35,436l-132.87-.61a28.93,28.93,0,0,1-28.8-29.06l1.4-333.09a28.94,28.94,0,0,1,29.08-28.82L398,45a29,29,0,0,1,28.81,29.07l-1.41,333.09A28.93,28.93,0,0,1,396.35,436Z"/><path class="cls-8" d="M397.83,56.5l-25.76-.12a6.4,6.4,0,0,0-6.28,6.51l0,4.67a6.39,6.39,0,0,1-6.28,6.51l-50.21-.23a6.41,6.41,0,0,1-6.23-6.57l0-4.67A6.41,6.41,0,0,0,296.84,56l-9.06,0-22.54-.1a20.27,20.27,0,0,0-20.37,20.18L243.5,401.19a20.26,20.26,0,0,0,20.17,20.35l132.6.62A20.27,20.27,0,0,0,416.63,402L418,76.85A20.27,20.27,0,0,0,397.83,56.5Z"/><path class="cls-6" d="M400.73,88.5a23.11,23.11,0,0,1-3.32.17c-2.07,0-5,.08-8.19.09H389l0-.23c-.06-.43-.12-.89-.19-1.35-.56-4-1-7.54-1.28-9.85l.17.15a19.69,19.69,0,0,1-3-.17,19.08,19.08,0,0,1,3-.16h.13l0,.15c.38,2.29.91,5.83,1.47,9.81.06.47.12.93.18,1.36l-.25-.22c3.24,0,6.12,0,8.19.08A22,22,0,0,1,400.73,88.5Z"/><path class="cls-6" d="M388.88,86.11a3.39,3.39,0,0,1,.89-.08l2.47-.08c2.1,0,5.06-.07,8.49-.09l-.24.21.8-4.58c.14-.82.29-1.63.42-2.4l.26.3c-4,0-7.5,0-10-.09l-3-.08a5.18,5.18,0,0,1-1.08-.09A5.18,5.18,0,0,1,389,79l3-.08c2.52,0,6-.08,10-.09h.3l0,.31c-.14.77-.28,1.58-.42,2.4-.29,1.6-.56,3.14-.82,4.58l0,.2h-.21c-3.43,0-6.39,0-8.49-.09l-2.47-.07A3.62,3.62,0,0,1,388.88,86.11Z"/><path class="cls-6" d="M392.1,91.62c-.09,0-.09-.45-.57-.77a1,1,0,0,0-.9-.08.94.94,0,0,0-.58.85,1,1,0,0,0,.58.86,1,1,0,0,0,.9-.09c.48-.32.48-.78.57-.77s.07.11.06.31a1.16,1.16,0,0,1-.41.75,1.3,1.3,0,0,1-1.28.25,1.38,1.38,0,0,1,0-2.61,1.32,1.32,0,0,1,1.28.24,1.18,1.18,0,0,1,.41.76C392.17,91.52,392.13,91.62,392.1,91.62Z"/><path class="cls-6" d="M399.51,91.62c-.08,0-.09-.45-.57-.77a1,1,0,0,0-.89-.08.93.93,0,0,0-.59.85,1,1,0,0,0,.59.86,1,1,0,0,0,.89-.09c.48-.32.49-.78.57-.77s.08.11.06.31a1.16,1.16,0,0,1-.41.75,1.29,1.29,0,0,1-1.28.25,1.38,1.38,0,0,1,0-2.61,1.31,1.31,0,0,1,1.28.24,1.18,1.18,0,0,1,.41.76C399.59,91.52,399.54,91.62,399.51,91.62Z"/><path class="cls-6" d="M282.59,89.71a92.65,92.65,0,0,1-9.91.26,92.65,92.65,0,0,1-9.91-.26,95.91,95.91,0,0,1,9.91-.26A95.91,95.91,0,0,1,282.59,89.71Z"/><path class="cls-6" d="M282.59,86a95.91,95.91,0,0,1-9.91.26,95.91,95.91,0,0,1-9.91-.26,95.91,95.91,0,0,1,9.91-.26A95.91,95.91,0,0,1,282.59,86Z"/><path class="cls-6" d="M282.59,82.23a95.91,95.91,0,0,1-9.91.26,95.91,95.91,0,0,1-9.91-.26,92.65,92.65,0,0,1,9.91-.26A92.65,92.65,0,0,1,282.59,82.23Z"/><g class="cls-9"><path class="cls-10" d="M315.63,143s-13.31-.19-16.23,4.17-15,31.41-15,31.41l18.86,9.83,4.07-11.61,6.62,24.26c-7.58,6-18.32,60.63-16.19,83.64l70.88.22s.49-63.83-18.68-84.82l4.5-25.36,4.32,12.38,20-8.3L363.7,151.74A14.58,14.58,0,0,0,351,144.25l-4.91,0s-2.07,18.13-15.24,17.77S315.63,143,315.63,143Z"/><path class="cls-8" d="M383.8,229.06a1.48,1.48,0,0,1,0-.32c0-.24,0-.55-.07-.94a9.81,9.81,0,0,0-.18-1.51,14.86,14.86,0,0,0-.42-2,19.16,19.16,0,0,0-2.21-5.24,19.83,19.83,0,0,0-5-5.56,19.38,19.38,0,0,0-8.27-3.65,19.71,19.71,0,0,0-10.29.86,18.65,18.65,0,0,0-5,2.67,23.12,23.12,0,0,0-2.22,1.89,22.13,22.13,0,0,0-1.92,2.27,19.69,19.69,0,0,0-3.8,11.57,20.94,20.94,0,0,0,1,6.18,19,19,0,0,0,2.79,5.4,18,18,0,0,0,4.14,4.16,18.65,18.65,0,0,0,5,2.67,19.71,19.71,0,0,0,10.29.86,19.5,19.5,0,0,0,8.27-3.65,19.83,19.83,0,0,0,5-5.56,19.16,19.16,0,0,0,2.21-5.24,14.86,14.86,0,0,0,.42-2,9.81,9.81,0,0,0,.18-1.51c0-.39.05-.7.07-.94a1.68,1.68,0,0,1,0-.33,1,1,0,0,1,0,.33l0,.94a8.28,8.28,0,0,1-.13,1.53,13.32,13.32,0,0,1-.38,2.07,18.9,18.9,0,0,1-2.15,5.34,20.05,20.05,0,0,1-5.05,5.71,19.82,19.82,0,0,1-8.41,3.78,20.13,20.13,0,0,1-10.54-.84,19.21,19.21,0,0,1-5.08-2.72,22,22,0,0,1-2.29-1.94,23.38,23.38,0,0,1-2-2.32,19.59,19.59,0,0,1-2.88-5.54,21.31,21.31,0,0,1-1-6.34,20.19,20.19,0,0,1,3.91-11.87,23.38,23.38,0,0,1,2-2.32,22,22,0,0,1,2.29-1.94,19.21,19.21,0,0,1,5.08-2.72,20.13,20.13,0,0,1,10.54-.84,19.82,19.82,0,0,1,8.41,3.78,20.05,20.05,0,0,1,5.05,5.71,18.9,18.9,0,0,1,2.15,5.34,13.42,13.42,0,0,1,.38,2.06,8.44,8.44,0,0,1,.13,1.54l0,.94A.94.94,0,0,1,383.8,229.06Z"/><path class="cls-8" d="M321.35,184.53a24.88,24.88,0,0,0-.56-3.56,14.51,14.51,0,0,0-19-10,13.57,13.57,0,0,0-3.64,2,13.38,13.38,0,0,0-3,3.06,14.37,14.37,0,0,0,0,17,14.59,14.59,0,0,0,6.69,5,14.54,14.54,0,0,0,19-10,25.11,25.11,0,0,0,.56-3.55,1,1,0,0,1,0,.23c0,.19,0,.42,0,.7a7.36,7.36,0,0,1-.09,1.14,10.72,10.72,0,0,1-.28,1.53,13.46,13.46,0,0,1-1.59,4,14.78,14.78,0,0,1-10,7,14.89,14.89,0,0,1-7.82-.61,14.4,14.4,0,0,1-3.78-2,13.93,13.93,0,0,1-3.16-3.16,14.85,14.85,0,0,1,0-17.63,14.14,14.14,0,0,1,3.16-3.16,14.4,14.4,0,0,1,3.78-2,14.89,14.89,0,0,1,7.82-.61,14.46,14.46,0,0,1,6.23,2.81A14.26,14.26,0,0,1,319.4,177a13.75,13.75,0,0,1,1.59,3.95,10.72,10.72,0,0,1,.28,1.53,7.36,7.36,0,0,1,.09,1.14c0,.28,0,.51,0,.7A1.22,1.22,0,0,1,321.35,184.53Z"/><path class="cls-8" d="M321.34,270.84s0-.4-.24-1.07a4.48,4.48,0,0,0-1.64-2.35,4.26,4.26,0,1,0,0,6.85,4.54,4.54,0,0,0,1.64-2.36c.19-.67.19-1.07.24-1.07s0,.1,0,.29a3.54,3.54,0,0,1-.08.83,4.49,4.49,0,0,1-1.62,2.6,4.7,4.7,0,0,1-4.44.73,4.72,4.72,0,0,1,0-8.89,4.67,4.67,0,0,1,4.44.72,4.52,4.52,0,0,1,1.62,2.6,3.58,3.58,0,0,1,.08.83C321.37,270.74,321.36,270.84,321.34,270.84Z"/><path class="cls-8" d="M313.55,155.7c-.05,0-.05-.4-.24-1.07a4.45,4.45,0,0,0-1.65-2.35,4.26,4.26,0,1,0,0,6.84,4.45,4.45,0,0,0,1.65-2.35c.19-.67.19-1.07.24-1.07s0,.1,0,.29a3.58,3.58,0,0,1-.08.83,4.49,4.49,0,0,1-1.62,2.6,4.67,4.67,0,0,1-4.44.72,4.71,4.71,0,0,1,0-8.88,4.67,4.67,0,0,1,4.44.72,4.49,4.49,0,0,1,1.62,2.6,3.58,3.58,0,0,1,.08.83C313.58,155.6,313.57,155.7,313.55,155.7Z"/><path class="cls-8" d="M328.19,249.31a3.17,3.17,0,0,1-.09-.42q-.08-.46-.21-1.2c-.19-1.09-.45-2.6-.77-4.5l-2.62-15.91.26.19L302.7,231l.21-.29h0v.16l0,.19.06.38.12.75c.08.5.16,1,.23,1.5.16,1,.31,2,.47,2.95q.45,2.93.89,5.71c.57,3.7,1.11,7.2,1.61,10.41l-.26-.19,16-2.39,4.51-.65,1.21-.17a3.26,3.26,0,0,1,.43,0,1.39,1.39,0,0,1-.37.09l-1.16.21-4.45.75-16,2.65-.22,0,0-.22c-.52-3.21-1.08-6.7-1.67-10.41q-.44-2.78-.9-5.7c-.16-1-.31-2-.47-3-.08-.5-.16-1-.23-1.5l-.12-.75-.06-.38,0-.19,0-.09v-.07h0c-.2.27.26-.37.22-.3L324.69,227l.22,0,0,.22c1,6.62,1.83,12.16,2.42,16.09.27,1.88.49,3.39.64,4.46.07.48.12.87.16,1.17A1.86,1.86,0,0,1,328.19,249.31Z"/><path class="cls-8" d="M355.16,191.59a3.83,3.83,0,0,1,.26-.44l.75-1.21,2.89-4.54,10.27-16,.07.31L347.33,155.4l.36-.07h0l0,0,0,0-.06.09-.12.19-.25.38-.49.75-1,1.5-1.92,2.94L340.1,167l-6.8,10.38-.06-.31,15.86,10.47,4.46,3,1.19.8.41.3-.4-.23-1.17-.73-4.49-2.86L333,177.42l-.19-.12.13-.19,6.75-10.42,3.7-5.7c.64-1,1.28-2,1.92-3,.33-.49.65-1,1-1.49l.49-.76.24-.37.12-.19.07-.1,0,0v0h0l.37-.08,22,14.38.19.13-.12.19-10.55,16-3,4.42-.78,1.15Z"/><path class="cls-8" d="M340.26,258.89l-.08.17-.26.46-1,1.75-3.63,6.47c-3.07,5.46-7.54,13.23-12.75,22.3l-.22-.36,17.92,0,17.92,0L358,290c-5.22-9.07-9.68-16.84-12.76-22.31l-3.63-6.46-1-1.75-.25-.46-.09-.17a4.55,4.55,0,0,1,.34.54l1,1.68,3.78,6.37c3.27,5.53,7.76,13.27,13,22.32l.22.37H321.92l.21-.37c5.25-9.05,9.74-16.79,13-22.32l3.78-6.37,1-1.68C340.15,259.06,340.26,258.87,340.26,258.89Z"/><path class="cls-8" d="M326.05,201.71a2.78,2.78,0,0,1,.13.4c.09.29.19.65.32,1.09.29,1,.68,2.34,1.16,4,1,3.35,2.29,8.21,3.84,13.88l-.42-.11,7.11-7.12,7.12-7.11.11.41c-5.67-1.54-10.53-2.86-13.88-3.83l-4-1.16-1.09-.32-.4-.13a1.42,1.42,0,0,1,.34.07l1.05.25,4,1c3.54.88,8.39,2.16,14.07,3.66l.41.11-.3.3-7.11,7.13-7.12,7.1-.3.3-.11-.41c-1.5-5.68-2.78-10.53-3.65-14.07-.42-1.68-.75-3-1-4l-.25-1A2.77,2.77,0,0,1,326.05,201.71Z"/></g><path class="cls-6" d="M350.32,200.19c0,.14-8,.46-17.95.7s-18,.32-18,.18,8-.46,18-.7S350.32,200.05,350.32,200.19Z"/><path class="cls-6" d="M301.39,160.36a84.72,84.72,0,0,1,3.35,8.83,82.86,82.86,0,0,1,2.86,9,89.24,89.24,0,0,1-3.35-8.83A82.86,82.86,0,0,1,301.39,160.36Z"/><path class="cls-6" d="M356.34,161.6a15.28,15.28,0,0,1-.19,2.88c-.19,1.77-.5,4.2-.93,6.88s-.9,5.1-1.27,6.83a14.6,14.6,0,0,1-.72,2.79,16.78,16.78,0,0,1,.36-2.85l1.11-6.85c.41-2.59.78-4.93,1.09-6.85A16.6,16.6,0,0,1,356.34,161.6Z"/><path class="cls-6" d="M318.21,212.91a5,5,0,0,1-.38-1.9,14.59,14.59,0,0,1,2.22-9,5.21,5.21,0,0,1,1.22-1.5,26.8,26.8,0,0,0-2.55,5.93A26.26,26.26,0,0,0,318.21,212.91Z"/><path class="cls-6" d="M323.6,207.32a6.36,6.36,0,0,1-.56-3.24,6.29,6.29,0,0,1,.66-3.23c.14,0-.12,1.46-.14,3.23A29.78,29.78,0,0,1,323.6,207.32Z"/><path class="cls-6" d="M354.66,268.19a2.6,2.6,0,0,1-.6-.26,17.86,17.86,0,0,1-1.66-.85,30.69,30.69,0,0,1-5.55-4.06,38.51,38.51,0,0,1-6.54-7.84A50.09,50.09,0,0,1,335,243.87a90.64,90.64,0,0,1-3.72-22.32c-.18-2.9-.26-5.24-.31-6.86,0-.77,0-1.38,0-1.87a2.53,2.53,0,0,1,0-.65,3.33,3.33,0,0,1,.08.65c0,.48.08,1.1.14,1.86.11,1.68.27,4,.46,6.84.47,5.75,1.16,13.79,3.85,22.19a51,51,0,0,0,5.21,11.22,39.52,39.52,0,0,0,6.38,7.82,33.25,33.25,0,0,0,5.4,4.15C353.88,267.74,354.68,268.14,354.66,268.19Z"/><g class="cls-11"><path d="M331.69,219.05a40.64,40.64,0,0,0,15,26.25c3,2.35,6.48,4.52,7.73,8.09,1,2.89.3,6.12-.95,8.91a4.17,4.17,0,0,1-2.4,2.63c-1.21.33-2.44-.4-3.45-1.16-6.57-4.94-10.8-12.49-13.16-20.36s-3-16.15-3.62-24.35"/></g><path class="cls-6" d="M371,323.74c0,.14-16.89.26-37.73.26s-37.73-.12-37.73-.26,16.89-.26,37.73-.26S371,323.6,371,323.74Z"/><path class="cls-6" d="M371,115.7c0,.14-16.89.26-37.73.26s-37.73-.12-37.73-.26,16.89-.27,37.73-.27S371,115.55,371,115.7Z"/><path class="cls-6" d="M371,330c0,.14-16.89.26-37.73.26s-37.73-.12-37.73-.26,16.89-.26,37.73-.26S371,329.82,371,330Z"/><path d="M328.14,348.1V359h-2.51v-8.85h-2.17v-2Z"/><path d="M330,353.53c0-3.58,2-5.61,4.65-5.61s4.66,2,4.66,5.61-2,5.62-4.66,5.62S330,357.12,330,353.53Zm6.78,0c0-2.46-.87-3.49-2.13-3.49s-2.11,1-2.11,3.49.87,3.5,2.11,3.5S336.82,356,336.82,353.53Z"/><path class="cls-6" d="M346.28,350.48a2.15,2.15,0,0,1-2.25,2.38,2.34,2.34,0,0,1-1.23-.3l.38-.75a1.46,1.46,0,0,0,.83.22,1.18,1.18,0,0,0,1.24-1.29,1.51,1.51,0,0,1-1.1.4,1.4,1.4,0,0,1-1.52-1.38,1.52,1.52,0,0,1,1.67-1.47C345.53,348.29,346.28,349.06,346.28,350.48Zm-1.14-.77c0-.38-.29-.65-.77-.65a.66.66,0,0,0-.74.65.67.67,0,0,0,.75.67A.69.69,0,0,0,345.14,349.71Z"/><path class="cls-6" d="M350.3,350.48a2.14,2.14,0,0,1-2.25,2.38,2.34,2.34,0,0,1-1.23-.3l.38-.75a1.46,1.46,0,0,0,.83.22,1.18,1.18,0,0,0,1.24-1.29,1.51,1.51,0,0,1-1.1.4,1.4,1.4,0,0,1-1.52-1.38,1.52,1.52,0,0,1,1.68-1.47C349.55,348.29,350.3,349.06,350.3,350.48Zm-1.14-.77c0-.38-.29-.65-.77-.65a.66.66,0,0,0-.74.65.66.66,0,0,0,.75.67A.69.69,0,0,0,349.16,349.71Z"/><rect class="cls-6" x="342.5" y="354.38" width="7.76" height="0.98"/><path class="cls-10" d="M354.86,315.78c0,.14-9.35.26-20.89.26s-20.89-.12-20.89-.26,9.35-.26,20.89-.26S354.86,315.63,354.86,315.78Z"/><circle class="cls-10" cx="389.16" cy="352.79" r="15.08" transform="translate(-105.38 175.78) rotate(-22.5)"/><path class="cls-8" d="M385.35,361.25a4.61,4.61,0,0,1,.83-.75c.55-.45,1.36-1.09,2.37-1.88,2-1.56,4.84-3.7,8-6V353h0l0,0-.08-.05-.14-.11-.29-.22-.58-.43-1.12-.84-2.12-1.6L388.55,347c-1-.78-1.82-1.42-2.37-1.88a4.4,4.4,0,0,1-.83-.74,4.57,4.57,0,0,1,.95.58l2.47,1.75,3.64,2.64,2.14,1.58,1.12.84.58.43.29.21.15.11.07.06,0,0v0h0V353c-3.13,2.33-6,4.43-8.05,5.92l-2.48,1.75A4.57,4.57,0,0,1,385.35,361.25Z"/><circle class="cls-10" cx="275" cy="352.79" r="15.08" transform="translate(-117.29 567.72) rotate(-80.78)"/><path class="cls-8" d="M278.8,344.33s-.27.29-.82.74-1.37,1.1-2.38,1.88c-2,1.57-4.84,3.71-8,6.05,0-.84,0-.23,0-.42h0l0,0,0,0,.08.05.14.11.29.22.58.43,1.12.84,2.12,1.6,3.57,2.74c1,.78,1.82,1.42,2.38,1.87s.85.72.82.75a4.9,4.9,0,0,1-.95-.58l-2.47-1.75-3.64-2.64-2.13-1.58-1.13-.84-.58-.43-.29-.21-.14-.11-.08-.06,0,0h0v-.42c3.13-2.34,6-4.43,8.06-5.92l2.47-1.75A4.9,4.9,0,0,1,278.8,344.33Z"/><rect class="cls-2" x="264.44" y="378.49" width="30.13" height="30.13"/><rect class="cls-2" x="302.67" y="378.49" width="30.13" height="30.13"/><rect class="cls-2" x="340.89" y="378.49" width="30.13" height="30.13"/><rect class="cls-2" x="379.11" y="378.49" width="30.13" height="30.13"/><rect class="cls-10" x="304.5" y="105.23" width="56.22" height="3.2"/></g><g id="Bag"><path class="cls-6" d="M546.93,378.82a2.87,2.87,0,0,1,0-.6c0-.44,0-1,0-1.7,0-1.55-.05-3.67-.08-6.25,0-1.33,0-2.78,0-4.33,0-.77,0-1.58,0-2.4a18.92,18.92,0,0,1,.08-2.58,8.54,8.54,0,0,1,7.89-7.39,8.57,8.57,0,0,1,8.85,6.22,9.33,9.33,0,0,1,.32,2.59c0,.83,0,1.63,0,2.41,0,1.54,0,3,0,4.32,0,2.59-.07,4.71-.09,6.25,0,.7,0,1.26-.05,1.71a2.16,2.16,0,0,1,0,.59,2.81,2.81,0,0,1-.05-.59c0-.45,0-1,0-1.71,0-1.54,0-3.66-.08-6.25,0-1.33,0-2.78,0-4.32a19.26,19.26,0,0,0-.34-4.87,8.13,8.13,0,0,0-3-4.28A8.1,8.1,0,0,0,547.26,361a19.31,19.31,0,0,0-.1,2.52c0,.82,0,1.63,0,2.4,0,1.55,0,3,0,4.33,0,2.58-.07,4.7-.09,6.25l0,1.7A2.2,2.2,0,0,1,546.93,378.82Z"/><path class="cls-6" d="M557.25,378.82a2.87,2.87,0,0,1,0-.6c0-.44,0-1-.05-1.7,0-1.55,0-3.67-.08-6.25,0-1.33,0-2.78,0-4.33,0-.77,0-1.58,0-2.4a18.92,18.92,0,0,1,.08-2.58,8.57,8.57,0,0,1,16.74-1.17,9.33,9.33,0,0,1,.32,2.59c0,.83,0,1.63,0,2.41,0,1.54,0,3,0,4.32,0,2.59-.06,4.71-.08,6.25,0,.7,0,1.26,0,1.71a.3.3,0,1,1-.1,0c0-.45,0-1,0-1.71,0-1.54-.05-3.66-.08-6.25,0-1.33,0-2.78,0-4.32a19.24,19.24,0,0,0-.33-4.87,8.13,8.13,0,0,0-3-4.28A8.09,8.09,0,0,0,557.58,361a19.31,19.31,0,0,0-.1,2.52c0,.82,0,1.63,0,2.4,0,1.55,0,3,0,4.33,0,2.58-.06,4.7-.08,6.25l-.05,1.7A2.2,2.2,0,0,1,557.25,378.82Z"/><polygon class="cls-10" points="534.42 374.42 527.47 435.81 575.19 435.81 581.22 374.42 534.42 374.42"/><polygon class="cls-10" points="581.22 374.42 591.18 374.42 599.6 435.81 575.19 435.81 581.22 374.42"/><g class="cls-12"><polygon points="581.22 374.42 591.18 374.42 599.6 435.81 575.19 435.81 581.22 374.42"/></g><polygon class="cls-8" points="532.47 391.69 578.33 403.89 575.99 427.68 529.72 415.93 532.47 391.69"/></g><g id="Character"><path class="cls-6" d="M460.1,280.19a31,31,0,0,0-.33,18.79c1.13,3.75,3,7.5,2.43,11.37-.46,3.16-2.52,5.92-2.92,9.09-.83,6.43,5.29,12.54,3.65,18.81a10,10,0,0,1-5.87,6.36,18.37,18.37,0,0,1-8.8,1.11c-4.39-.39-9.14-2.05-11.17-6-1.61-3.11-1.11-6.86-.55-10.33,2.48-15.32,5.34-30.75,11.56-45"/><path class="cls-6" d="M462.05,327.54a3.32,3.32,0,0,1-.51.17,5.07,5.07,0,0,1-1.55.12,6,6,0,0,1-2.35-.67,5.36,5.36,0,0,1-2.27-2.32,5.89,5.89,0,0,1-.44-3.89,5.44,5.44,0,0,1,.93-2,8.66,8.66,0,0,1,1.67-1.64,44.13,44.13,0,0,0,4-3,7.9,7.9,0,0,0,2.22-4.63,13.22,13.22,0,0,0-.38-5.22,30.07,30.07,0,0,0-1.74-4.62,37.36,37.36,0,0,1-3-7.85,11.84,11.84,0,0,1,0-5.65,6.43,6.43,0,0,1,.82-1.91,11.85,11.85,0,0,0-.7,1.94,12,12,0,0,0,.07,5.58,39.12,39.12,0,0,0,3.08,7.78,30.74,30.74,0,0,1,1.77,4.65,13.64,13.64,0,0,1,.39,5.35,8.16,8.16,0,0,1-2.32,4.8,41.89,41.89,0,0,1-4,3,6.23,6.23,0,0,0-2.52,3.49,5.63,5.63,0,0,0,.39,3.73,5.14,5.14,0,0,0,2.15,2.26,5.75,5.75,0,0,0,2.28.71A6.44,6.44,0,0,0,462.05,327.54Z"/><path class="cls-13" d="M401.58,426.18l-2.5,9.57-25.75-.23s1.9-4.51,16-4.3l1-5Z"/><path class="cls-7" d="M495.33,282.55c-.25.49-6.78,34.08-6.78,34.08l15.41.72,6-28.89Z"/><polygon class="cls-6" points="488.55 316.63 486.78 315.89 493.45 282.77 495.54 282.63 488.55 316.63"/><path class="cls-6" d="M501.52,289.89a.8.8,0,1,0,1.59.19.8.8,0,0,0-1.59-.19Z"/><path class="cls-13" d="M504.71,313.47l.22-4.4-6.58-2.71,2.57-6.1a5.3,5.3,0,0,1,7.39-2.52c.88.47,1.81,1,2.64,1.43A7.56,7.56,0,0,1,514.7,304a96.26,96.26,0,0,1,1.53,10.74"/><path class="cls-10" d="M522.33,425.47s27.08,7.5,28.16,7.88c1.64.57,1.36,6.55-1.18,6.46-1.2-.05-20.8.73-23.28.57s-9.94-3.1-9.94-3.1Z"/><path class="cls-6" d="M533.61,435.8a24.7,24.7,0,0,1,1.19-2.9,24.21,24.21,0,0,1,1.92-2.5,6,6,0,0,0-3.11,5.4Z"/><path class="cls-6" d="M530.78,434.52c.14,0,.41-1.25,1.13-2.67s1.57-2.4,1.48-2.5a5.11,5.11,0,0,0-1.88,2.3A5.19,5.19,0,0,0,530.78,434.52Z"/><path class="cls-6" d="M528.14,433.81a17.63,17.63,0,0,1,.63-2.86,18.63,18.63,0,0,1,1.47-2.53,4.19,4.19,0,0,0-1.89,2.37A4.07,4.07,0,0,0,528.14,433.81Z"/><path class="cls-6" d="M528.62,430.32a5.21,5.21,0,0,0,.29-2,10,10,0,0,0-.28-2.21,9,9,0,0,0-.4-1.25,1.56,1.56,0,0,0-.43-.67.72.72,0,0,0-.93.05,1.24,1.24,0,0,0-.37.76,5.94,5.94,0,0,0,0,.72,6.28,6.28,0,0,0,.17,1.33,8.18,8.18,0,0,0,.83,2.07,5.53,5.53,0,0,0,1.22,1.63c.06-.05-.4-.68-.94-1.78a9.28,9.28,0,0,1-.71-2,6.1,6.1,0,0,1-.13-1.23c0-.42,0-.94.25-1.14a.27.27,0,0,1,.36,0,1.19,1.19,0,0,1,.3.47,10.66,10.66,0,0,1,.41,1.2,11.8,11.8,0,0,1,.36,2.11C528.67,429.54,528.54,430.31,528.62,430.32Z"/><path class="cls-6" d="M528.58,430a3.83,3.83,0,0,0-1.74-.28,8.45,8.45,0,0,0-1.93.23,4.52,4.52,0,0,0-1.1.41,1.15,1.15,0,0,0-.61,1.24,1.34,1.34,0,0,0,1,1,2.51,2.51,0,0,0,1.22,0,4.67,4.67,0,0,0,1.76-.86,4.57,4.57,0,0,0,1.25-1.24,12.38,12.38,0,0,0-1.44,1,4.68,4.68,0,0,1-1.66.71,2,2,0,0,1-1,0,.91.91,0,0,1-.66-.64.69.69,0,0,1,.4-.76,4.15,4.15,0,0,1,1-.38,9.29,9.29,0,0,1,1.83-.32C527.91,430,528.57,430.11,528.58,430Z"/><path class="cls-6" d="M537.77,436.09a14.24,14.24,0,0,1,.53-2.44,14.53,14.53,0,0,1,1.33-2.12,3.87,3.87,0,0,0-1.86,4.56Z"/><path class="cls-6" d="M518.87,437.34a5.26,5.26,0,0,0,1,.5,23.38,23.38,0,0,0,3,.93,43.32,43.32,0,0,0,10.34,1c4.06,0,7.72-.23,10.37-.33l3.14-.17a6.05,6.05,0,0,0,1.15-.12,5.89,5.89,0,0,0-1.16-.06l-3.14,0-10.36.2a49,49,0,0,1-10.27-.84C520.42,437.93,518.9,437.26,518.87,437.34Z"/><path class="cls-6" d="M518.07,438c0,.06.78-.37,2-.92a9.47,9.47,0,0,1,5.12-.85,8,8,0,0,1,4.43,2.64,14.61,14.61,0,0,0,1.57,1.59,9,9,0,0,0-1.33-1.81,11,11,0,0,0-1.8-1.68,6.48,6.48,0,0,0-2.79-1.19,9,9,0,0,0-5.33,1A7.34,7.34,0,0,0,518.07,438Z"/><path class="cls-10" d="M493.58,418S468,434.77,467,435.47c-1.38,1,.2,6,2.59,5.15,1.13-.41,22.63-6.39,24.95-7.29s8.53-6,8.53-6Z"/><path class="cls-6" d="M486,431.27a4.83,4.83,0,0,0-1.71-2.75,4.91,4.91,0,0,0-2.89-1.46,26.17,26.17,0,0,1,2.58,1.8A23.21,23.21,0,0,1,486,431.27Z"/><path class="cls-6" d="M488.27,429.19a5.13,5.13,0,0,0-1.56-2.52,5.21,5.21,0,0,0-2.49-1.62c-.06.12,1.06.8,2.17,1.94S488.15,429.25,488.27,429.19Z"/><path class="cls-6" d="M490.58,427.71a4.08,4.08,0,0,0-1.12-2.82,4.14,4.14,0,0,0-2.53-1.68,18.24,18.24,0,0,1,2.18,2A17.56,17.56,0,0,1,490.58,427.71Z"/><path class="cls-6" d="M489.06,424.52c.07,0-.28-.72-.58-1.92a10.19,10.19,0,0,1-.3-2.12,8.94,8.94,0,0,1,0-1.26,1,1,0,0,1,.14-.54.25.25,0,0,1,.35-.08c.29.11.44.61.58,1a6,6,0,0,1,.25,1.22,8.57,8.57,0,0,1-.07,2.13c-.17,1.22-.42,2-.34,2a5.64,5.64,0,0,0,.66-1.92,8.05,8.05,0,0,0,.17-2.23,5.8,5.8,0,0,0-.25-1.31,4.55,4.55,0,0,0-.25-.67,1.21,1.21,0,0,0-.57-.62.72.72,0,0,0-.9.24,1.46,1.46,0,0,0-.22.76,9.6,9.6,0,0,0,.41,3.51A4.81,4.81,0,0,0,489.06,424.52Z"/><path class="cls-6" d="M489,424.25c0,.06.63-.24,1.66-.49a8.61,8.61,0,0,1,1.84-.25,4.07,4.07,0,0,1,1.05.06c.34.08.6.29.61.6a.91.91,0,0,1-.43.82,2.27,2.27,0,0,1-.95.31,4.67,4.67,0,0,1-1.8-.18,12.52,12.52,0,0,0-1.67-.49,5.79,5.79,0,0,0,3.51,1.09,2.5,2.5,0,0,0,1.16-.37,1.36,1.36,0,0,0,.64-1.21,1.16,1.16,0,0,0-1-1,4.36,4.36,0,0,0-1.18-.05,7.93,7.93,0,0,0-1.9.36A3.78,3.78,0,0,0,489,424.25Z"/><path class="cls-6" d="M472.89,439.68s.43-.26.63-1a3.75,3.75,0,0,0-.48-2.78,9.49,9.49,0,0,0-.86-1.28,4.7,4.7,0,0,0-.87-.94,1.5,1.5,0,0,0-.82-.34c-.21,0-.32,0-.32.07a2.51,2.51,0,0,1,.94.52,6,6,0,0,1,.73.93,13.45,13.45,0,0,1,.8,1.25,4,4,0,0,1,.57,2.5C473.11,439.29,472.83,439.64,472.89,439.68Z"/><path class="cls-6" d="M482.09,432.81a3.89,3.89,0,0,0-3.15-3.79c-.05.13,1,.55,1.9,1.62A13.31,13.31,0,0,1,482.09,432.81Z"/><path class="cls-6" d="M500.48,428.26a7.64,7.64,0,0,0-1.13.77,32,32,0,0,1-3.16,1.94,40.8,40.8,0,0,1-5,2.23c-1.94.72-4.11,1.41-6.42,2.07-4.61,1.33-8.78,2.55-11.79,3.45l-3.56,1.09a8.09,8.09,0,0,0-1.29.46,7.46,7.46,0,0,0,1.34-.29l3.6-1c3-.83,7.22-2,11.83-3.32,2.31-.67,4.49-1.37,6.44-2.12a38.21,38.21,0,0,0,5-2.34,25.29,25.29,0,0,0,3.11-2.08A7.58,7.58,0,0,0,500.48,428.26Z"/><path class="cls-6" d="M501.43,428.6a7.15,7.15,0,0,0-2.17-.57,8.91,8.91,0,0,0-5.39.65,6.55,6.55,0,0,0-2.31,2,11.37,11.37,0,0,0-1.2,2.15,8.25,8.25,0,0,0-.71,2.13,15.59,15.59,0,0,0,1-2,8.14,8.14,0,0,1,3.42-3.85,9.45,9.45,0,0,1,5.15-.75A20.79,20.79,0,0,0,501.43,428.6Z"/><path class="cls-10" d="M432.13,318l21,2,8.54,2.42A23,23,0,0,1,471.4,328l27.51,26.41,5-41,13.75,1.19-2.3,52.8a15.71,15.71,0,0,1-15,10.95,16.2,16.2,0,0,1-11.06-4.56l-19.59-18.41-.59,26.32,13.6,11-52.42,29.2s-2.84-11.16-1.55-36c.24-4.56-8.12-18.4-8.76-22.47-2.45-15.65-2.07-38.55-2.07-38.55Z"/><path class="cls-10" d="M419.21,324.41s-10.63,3.94-13.2,12.27c-2.28,7.38-9.89,48.91-9.89,48.91l-7.54,44,15.8.6,18.2-74.9Z"/><path class="cls-6" d="M418.5,373a3.41,3.41,0,0,0,.32-.89c.18-.59.42-1.43.71-2.49.56-2.1,1.3-5,2-8.26s1.31-6.2,1.7-8.34c.2-1.07.34-1.94.43-2.54a3.74,3.74,0,0,0,.09-.95,4.13,4.13,0,0,0-.26.91q-.24,1-.57,2.52c-.5,2.23-1.13,5.11-1.84,8.3s-1.38,6.06-1.89,8.29c-.22,1-.41,1.82-.57,2.51A4.24,4.24,0,0,0,418.5,373Z"/><path class="cls-6" d="M515.25,318.52a5.18,5.18,0,0,0,.4-2.07,5.1,5.1,0,0,0,0-2.11,5.24,5.24,0,0,0-.4,2.07A4.89,4.89,0,0,0,515.25,318.52Z"/><path class="cls-6" d="M511.23,318.65a5.75,5.75,0,0,0,.33-2.2,5.38,5.38,0,0,0-.11-2.23,5.64,5.64,0,0,0-.34,2.2A5.48,5.48,0,0,0,511.23,318.65Z"/><path class="cls-6" d="M507.23,318.39a6.92,6.92,0,0,0,.36-2.45,6.64,6.64,0,0,0-.09-2.48,7.19,7.19,0,0,0-.36,2.45A6.64,6.64,0,0,0,507.23,318.39Z"/><path class="cls-6" d="M499.5,360.71a14.89,14.89,0,0,0-.15-3.64,14.18,14.18,0,0,0-.6-3.59,15.51,15.51,0,0,0,.15,3.64A15.32,15.32,0,0,0,499.5,360.71Z"/><path class="cls-6" d="M401.78,425.56a6,6,0,0,0-.61,2.21,5.79,5.79,0,0,0-.16,2.28,6.19,6.19,0,0,0,.61-2.21A6,6,0,0,0,401.78,425.56Z"/><path class="cls-6" d="M396.58,425.56a5,5,0,0,0-.56,2,4.66,4.66,0,0,0-.11,2.07,5,5,0,0,0,.56-2A4.66,4.66,0,0,0,396.58,425.56Z"/><path class="cls-6" d="M391.65,425.06a8.15,8.15,0,0,0-.52,2.26,7.45,7.45,0,0,0-.24,2.3,5.25,5.25,0,0,0,.69-2.23A4.92,4.92,0,0,0,391.65,425.06Z"/><path class="cls-6" d="M410.68,329.53c0,.08,1.1,0,2.82.38a13.09,13.09,0,0,1,9.79,8.54c.59,1.65.67,2.76.75,2.74a2.09,2.09,0,0,0,0-.77,11.06,11.06,0,0,0-.43-2.07,12.67,12.67,0,0,0-10-8.76,11.1,11.1,0,0,0-2.11-.15A2.29,2.29,0,0,0,410.68,329.53Z"/><path class="cls-6" d="M467.45,366.61c-.09,0,.41-1.29.91-3.41a30.54,30.54,0,0,0,.75-8.41,30.13,30.13,0,0,0-1.64-8.28c-.72-2.05-1.35-3.25-1.26-3.3a3.67,3.67,0,0,1,.51.81,19.06,19.06,0,0,1,1.1,2.36,27,27,0,0,1,.9,16.91,19.34,19.34,0,0,1-.85,2.47A3.36,3.36,0,0,1,467.45,366.61Z"/><path class="cls-6" d="M468.8,381.12a2.78,2.78,0,0,1-.91.06c-.59,0-1.44,0-2.48-.1a41.79,41.79,0,0,1-8-1.48,42.4,42.4,0,0,1-7.61-3c-.93-.49-1.66-.9-2.16-1.22a3.22,3.22,0,0,1-.74-.54c.05-.07,1.18.55,3.06,1.43a54,54,0,0,0,7.59,2.83,52.78,52.78,0,0,0,7.94,1.61C467.51,381,468.8,381,468.8,381.12Z"/><g class="cls-11"><path d="M445.59,373.81c1.65,1.47,4.2,1.69,6.41,1.65s4.4-.48,6.6-.44a8.14,8.14,0,0,1,6,2.27,3,3,0,0,1,.86,1.8,1.6,1.6,0,0,1-1,1.61,2.57,2.57,0,0,1-1.26,0c-6.18-1.28-12.84-2.73-17.63-6.85"/></g><g class="cls-11"><path d="M425.34,375.77c1.63-.47,1.9-2.38,2.06-4.07a37,37,0,0,0-3.93-20.3c-.78,4.6-2.05,9.39-3,14.06Z"/></g><path class="cls-8" d="M422.49,356.62a4.62,4.62,0,0,0-1.33-.6,4.55,4.55,0,0,0-3.7,1.07c-1.34,1-2.08,3-2.49,5.25s-.65,4.88-2.35,7.11a5.53,5.53,0,0,1-3.39,2,27.26,27.26,0,0,1-3.61.26,7.78,7.78,0,0,0-5.35,2.2,8.27,8.27,0,0,0-2.12,3.38c-.28.91-.31,1.45-.36,1.45s0-.14,0-.39a5.69,5.69,0,0,1,.18-1.12,8.16,8.16,0,0,1,4.4-5.25,8.51,8.51,0,0,1,3.23-.75,28.9,28.9,0,0,0,3.55-.28,5,5,0,0,0,3.07-1.86,9.48,9.48,0,0,0,1.57-3.38c.31-1.18.48-2.38.72-3.5.44-2.24,1.24-4.35,2.73-5.45a4.65,4.65,0,0,1,4-1,2.59,2.59,0,0,1,1,.51C422.41,356.51,422.51,356.61,422.49,356.62Z"/><path class="cls-8" d="M481.89,337.27a6.57,6.57,0,0,1-1.31,2,10,10,0,0,1-5.77,3.09,9.34,9.34,0,0,1-4.57-.37,14.84,14.84,0,0,1-4.45-2.77,25.56,25.56,0,0,0-4.6-3.34,7.54,7.54,0,0,0-2.82-.77,8.37,8.37,0,0,0-3,.38,19.7,19.7,0,0,0-5.39,2.79,32.93,32.93,0,0,1-5,3,12.68,12.68,0,0,1-5.14,1.09,14.12,14.12,0,0,1-4.52-.75,13.4,13.4,0,0,1-5.53-3.54,9.4,9.4,0,0,1-1.1-1.41,2.37,2.37,0,0,1-.32-.54s.49.71,1.56,1.81a13.9,13.9,0,0,0,5.51,3.33,13,13,0,0,0,9.35-.43,33.38,33.38,0,0,0,4.87-3,19.86,19.86,0,0,1,5.53-2.87,9,9,0,0,1,3.18-.4,7.85,7.85,0,0,1,3,.84,25.09,25.09,0,0,1,4.68,3.42,14.9,14.9,0,0,0,4.3,2.74,9.12,9.12,0,0,0,4.37.4,9.9,9.9,0,0,0,5.67-2.86A14.37,14.37,0,0,0,481.89,337.27Z"/><path class="cls-8" d="M507.78,376.91a13.55,13.55,0,0,1-.4-1.85,24.25,24.25,0,0,0-1.44-4.9,11,11,0,0,0-1.89-2.93,7.48,7.48,0,0,0-3.26-2.16,14,14,0,0,0-4.4-.43,17.89,17.89,0,0,1-4.89-.36,10.54,10.54,0,0,1-4.26-2.44,43.83,43.83,0,0,1-3.18-3.25c-1.92-2.1-4-3.8-6.05-4.3a6.1,6.1,0,0,0-4.83.72,6.41,6.41,0,0,0-1.3,1.33,2.37,2.37,0,0,1,.21-.45,4.37,4.37,0,0,1,1-1,6.23,6.23,0,0,1,5-.92c2.22.48,4.36,2.23,6.31,4.33,1,1.05,2,2.18,3.16,3.19a10.2,10.2,0,0,0,4.07,2.33c3.14.8,6.43-.14,9.29.84a7.82,7.82,0,0,1,3.45,2.32,11.6,11.6,0,0,1,1.9,3.07,21.69,21.69,0,0,1,1.3,5c.09.6.14,1.07.18,1.39A1.66,1.66,0,0,1,507.78,376.91Z"/><path class="cls-8" d="M468.77,361.75a3.2,3.2,0,0,1-.52.08,6.1,6.1,0,0,1-1.48-.06,18.25,18.25,0,0,1-5.12-1.84,20.67,20.67,0,0,0-3.45-1.34,9.19,9.19,0,0,0-4.16-.14,17.53,17.53,0,0,0-8.28,4.82c-2.51,2.39-4.69,5-7.12,6.82a15.83,15.83,0,0,1-7.35,3.3,15.21,15.21,0,0,1-5.45-.07,10.46,10.46,0,0,1-1.43-.37,2.35,2.35,0,0,1-.48-.19c0-.05.69.17,1.95.36a16.1,16.1,0,0,0,5.34-.09,15.77,15.77,0,0,0,7.12-3.31c2.37-1.85,4.53-4.4,7.07-6.83s5.47-4.34,8.55-4.91a9.43,9.43,0,0,1,4.35.19,20.39,20.39,0,0,1,3.5,1.42,19.68,19.68,0,0,0,5,2C468.05,361.8,468.76,361.68,468.77,361.75Z"/><path class="cls-8" d="M459.58,379.36c0,.15-1.05.09-2,.83s-1.16,1.73-1.31,1.71-.11-.28,0-.72a2.8,2.8,0,0,1,1-1.4,2.88,2.88,0,0,1,1.61-.6C459.34,379.18,459.59,379.3,459.58,379.36Z"/><path class="cls-8" d="M468.16,375.29a9,9,0,0,1-3.58,5.37,30,30,0,0,1,1.86-2.63C467.43,376.56,468,375.24,468.16,375.29Z"/><path class="cls-8" d="M433.21,389.42c0,.14-1.13-.16-2.47-.16s-2.43.26-2.48.12a3.63,3.63,0,0,1,2.48-.64A3.58,3.58,0,0,1,433.21,389.42Z"/><path class="cls-8" d="M404.51,340.87s.23.12.66.24A2.89,2.89,0,0,0,407,341a5.11,5.11,0,0,0,2.11-1.75,25.19,25.19,0,0,1,2.22-2.78,11.94,11.94,0,0,1,5.67-3.1,9.53,9.53,0,0,1,1.95-.25,2,2,0,0,1,.72.06c0,.09-1,.11-2.58.54a12.79,12.79,0,0,0-5.39,3.12,29.39,29.39,0,0,0-2.22,2.71,5.11,5.11,0,0,1-2.36,1.79,2.94,2.94,0,0,1-2,0C404.66,341.11,404.49,340.89,404.51,340.87Z"/><path class="cls-8" d="M458,321.16c.05,0-.31.6-1.13,1.31a9.49,9.49,0,0,1-7.91,2.07,3.84,3.84,0,0,1-1.63-.59,12.26,12.26,0,0,1,1.69.23,11,11,0,0,0,7.63-2A11.78,11.78,0,0,1,458,321.16Z"/><path class="cls-8" d="M413.14,395.71s-.43,0-1.15.2a7.3,7.3,0,0,0-2.81,1.36,11.57,11.57,0,0,0-3,3.54c-.89,1.53-1.64,3.34-2.58,5.2a14.19,14.19,0,0,1-3.57,4.68,6.62,6.62,0,0,1-4.54,1.54,5,5,0,0,1-3-1.12,3,3,0,0,1-.6-.65q-.18-.25-.15-.27s.28.32.87.76a5,5,0,0,0,2.93.91,6.32,6.32,0,0,0,4.22-1.55,14.05,14.05,0,0,0,3.4-4.54c.94-1.82,1.7-3.65,2.64-5.2A11.39,11.39,0,0,1,409,397a6.88,6.88,0,0,1,3-1.26,4.25,4.25,0,0,1,.88,0C413,395.67,413.14,395.69,413.14,395.71Z"/><g class="cls-14"><path d="M498.46,353.86a9.05,9.05,0,0,0-1.8,7.84c.11.44.32.94.75,1.07a1,1,0,0,0,1-.38,2.47,2.47,0,0,0,.42-1,16,16,0,0,0-.13-7.72"/></g><path class="cls-8" d="M517.19,330.76a14.56,14.56,0,0,0-2.52,3,24.07,24.07,0,0,0-1.81,3.88c-.58,1.52-1.14,3.24-1.94,5a12.59,12.59,0,0,1-3.11,4.38,7.94,7.94,0,0,1-4,1.81,5.35,5.35,0,0,1-2.94-.37,3.25,3.25,0,0,1-.7-.42c-.15-.11-.22-.17-.21-.19s.35.19,1,.42a5.62,5.62,0,0,0,2.81.2,7.93,7.93,0,0,0,3.75-1.81,12.73,12.73,0,0,0,2.95-4.24c.78-1.7,1.35-3.4,2-4.92a21.22,21.22,0,0,1,2-3.91,10.51,10.51,0,0,1,1.93-2.23A3.1,3.1,0,0,1,517.19,330.76Z"/><path class="cls-8" d="M518,319.65a6.42,6.42,0,0,1-1.75,1.53,14.42,14.42,0,0,1-10.84,2.14,6.14,6.14,0,0,1-2.2-.75c0-.08.87.19,2.26.39a16.22,16.22,0,0,0,10.58-2.09C517.3,320.15,518,319.58,518,319.65Z"/><path class="cls-6" d="M525.4,425.16S462.56,383.94,460,383.08s-8.8-4.93-15-3.22-11.79,7.29-14.58,15.44-3,26.38-3,26.38,4.93,14.37,14.58,17.37a24.88,24.88,0,0,0,2.51.63,29.69,29.69,0,0,0,30.36-13.12l1.4-2.13s41.11,15.1,41.75,14.89Z"/><path class="cls-6" d="M546.84,377.07a12.29,12.29,0,0,1,7.72,11.37c.06,16.51-33.37,34.71-33.37,34.71l-44.48-29.47v-3.1S534,370,546.84,377.07Z"/><path class="cls-7" d="M447.65,413.81l.35.15,1,.41,4,1.54,14.81,5.57c6.29,2.35,13.82,5.14,22.27,8.22s17.83,6.44,27.83,9.83l.18.06.09-.17c1.57-3,3.23-6.16,4.91-9.38.86-1.63,1.71-3.26,2.5-4.78l.1-.18-.17-.11-47.94-30.43-14.4-9.09L459.28,383l-1-.62a4,4,0,0,0-.36-.2l.33.24,1,.66,3.87,2.51,14.32,9.2,47.86,30.55-.08-.3c-.79,1.52-1.64,3.15-2.5,4.78-1.68,3.22-3.34,6.38-4.91,9.38l.27-.11c-10-3.37-19.37-6.73-27.83-9.78l-22.31-8.12-14.85-5.45-4-1.46-1.05-.37Z"/><path class="cls-7" d="M499.24,408.57a9.23,9.23,0,0,0,1.16-.79c.73-.53,1.77-1.31,3-2.3,2.55-2,6-4.76,9.74-8s7-6.21,9.34-8.43c1.17-1.11,2.1-2,2.74-2.66a7.9,7.9,0,0,0,1-1,8.46,8.46,0,0,0-1.08.9l-2.82,2.56c-2.39,2.15-5.7,5.11-9.42,8.31s-7.15,6-9.64,8.05l-3,2.41A7.65,7.65,0,0,0,499.24,408.57Z"/><path class="cls-7" d="M534.28,383.25a8.66,8.66,0,0,0-4.29.38,8.78,8.78,0,0,0-3.81,2c.08.11,1.7-.92,3.94-1.57S534.28,383.38,534.28,383.25Z"/><path class="cls-7" d="M530.45,380.64a5.39,5.39,0,0,0-2.64,2,5.3,5.3,0,0,0-1.38,3c.13.05.61-1.34,1.73-2.71S530.52,380.76,530.45,380.64Z"/><path class="cls-6" d="M549.28,432.93c0-.06-.53-.16-1.15.34a4.19,4.19,0,0,0-1.28,2.59,5.12,5.12,0,0,0,.4,2.84c.32.68.67,1,.7,1s-.18-.41-.4-1.08a5.76,5.76,0,0,1-.25-2.66,4.5,4.5,0,0,1,1.05-2.41C548.82,433,549.29,433,549.28,432.93Z"/><path class="cls-6" d="M420.5,285.77a6.32,6.32,0,0,0-9.2.4,10.81,10.81,0,0,0-2.12,5.58,27.46,27.46,0,0,1-1.16,5.92,6.1,6.1,0,0,1-4.21,4c-1.5.28-3.27-.19-4.42.82a2.87,2.87,0,0,0-.27,3.58,6.73,6.73,0,0,0,3.08,2.31c.47.21,1,.51,1,1,0,.68-.85.92-1.47,1.18-1.87.79-2.4,3.44-1.37,5.18a6,6,0,0,0,5.19,2.59,17.48,17.48,0,0,0,5.88-1.35,2.28,2.28,0,0,0-.06,2.9,3.11,3.11,0,0,0,2.84,1.05,5,5,0,0,0,2.76-1.42,10,10,0,0,0,2.72-5.45,34.38,34.38,0,0,0,.36-6.17,163.71,163.71,0,0,1,1.56-22"/><path class="cls-13" d="M441.74,271.57a15.21,15.21,0,0,1,14.5,15.18c0,6.29-.08,13.13-.48,17.18-.93,9.44-8,11.06-8,11.06s.23,5.86.54,11.43c.3,5.3-4,10-9.71,10.42h0c-5.61.45-10.42-3.4-10.81-8.64l-1.9-40.73a15.21,15.21,0,0,1,15.89-15.9Z"/><path class="cls-6" d="M454.09,290.87a1.2,1.2,0,0,1-1.08,1.28,1.15,1.15,0,0,1-1.3-1,1.2,1.2,0,0,1,1.08-1.28A1.15,1.15,0,0,1,454.09,290.87Z"/><path class="cls-6" d="M454.07,289c-.14.17-1.09-.45-2.38-.37s-2.2.78-2.35.63.06-.36.46-.68a3.25,3.25,0,0,1,1.86-.7,3.2,3.2,0,0,1,1.91.49C454,288.66,454.13,288.94,454.07,289Z"/><path class="cls-6" d="M440.65,291.57a1.19,1.19,0,0,1-1.08,1.28,1.14,1.14,0,0,1-1.3-1,1.19,1.19,0,0,1,1.08-1.28A1.14,1.14,0,0,1,440.65,291.57Z"/><path class="cls-6" d="M440.63,290.28c-.14.16-1.09-.45-2.38-.37s-2.2.78-2.35.63.06-.36.46-.68a3.22,3.22,0,0,1,1.87-.7,3.12,3.12,0,0,1,1.9.49C440.54,289.93,440.7,290.2,440.63,290.28Z"/><path class="cls-6" d="M445.88,299.57a8.56,8.56,0,0,1,2.07-.5c.33-.05.64-.14.68-.37a1.72,1.72,0,0,0-.28-1l-1.12-2.45a42.3,42.3,0,0,1-2.58-6.44,44.07,44.07,0,0,1,3.09,6.22c.38.86.74,1.68,1.08,2.47a1.86,1.86,0,0,1,.25,1.28.81.81,0,0,1-.51.51,2.12,2.12,0,0,1-.56.11A7.92,7.92,0,0,1,445.88,299.57Z"/><path class="cls-15" d="M447.77,315A25.59,25.59,0,0,1,435,312.19s3.49,6.73,12.89,5.5Z"/><path class="cls-6" d="M436.37,286.69c.15.23,1.09-.16,2.26-.42s2.19-.32,2.23-.59-1.06-.67-2.44-.35S436.21,286.49,436.37,286.69Z"/><path class="cls-6" d="M449.15,284.37c.06.26,1.12.22,2.39.24s2.33.08,2.4-.18-1-.77-2.39-.78S449.08,284.11,449.15,284.37Z"/><path class="cls-6" d="M428.25,323.3c-.09-1.93,2.08-10.35,2.95-15.52s-2.52-6-3.05-9.06a10.44,10.44,0,0,1,1-6c4.94,1.77,6.89-1.75,9.59-3.84,2.87-2.21,3.49-4.93,4.67-8.36s2.53-5.56,6.14-5.9a10.62,10.62,0,0,1,4.8,5.51c1.11,3.21,2,15.73,2,15.73.5-6,5.37-8.53,4.05-17.36-.57-3.81-3.74-9-8.62-9.79-1.41-.22-4.09-.39-4.09-.39-2.92-2.62-4.34-2.55-7.13-3.79-6-2.67-13.25,2.11-17.25,7.34-3.08,4-4.57,9.46-5.4,14.58a42.42,42.42,0,0,0-.24,10.74c.2,2.14-.06,4.84-2.15,6.47-3,2.33-3.79,6.78-1.71,12.7s-5.56,16-5.56,16a47.31,47.31,0,0,1,6.79-4.61C418.12,326.22,428.25,323.3,428.25,323.3Z"/><path class="cls-15" d="M444.33,302.66a2,2,0,0,0-1.79-.59,1.72,1.72,0,0,0-1.16.74,1.09,1.09,0,0,0,0,1.28,1.28,1.28,0,0,0,1.43.25,4,4,0,0,0,1.3-.91,1.27,1.27,0,0,0,.28-.34.34.34,0,0,0,0-.4"/><path class="cls-6" d="M441.49,301c.17,0,.26,1.14,1.32,1.89s2.28.53,2.3.69-.26.25-.78.3a2.94,2.94,0,0,1-1.92-.51,2.57,2.57,0,0,1-1-1.59C441.3,301.32,441.41,301,441.49,301Z"/><path class="cls-6" d="M400.7,298.37a9.57,9.57,0,0,0,.1,1.31,4.34,4.34,0,0,0,.5,1.42,3.08,3.08,0,0,0,1.4,1.36,2.75,2.75,0,0,0,2.29.12,2.92,2.92,0,0,0,1.54-2.12,11.19,11.19,0,0,0,.16-3.09c0-1.09-.1-2.22-.1-3.38a13.47,13.47,0,0,1,1.26-6.4,6.38,6.38,0,0,1,4-3.44,5,5,0,0,1,3.56.28,3,3,0,0,1,1.05.8,6.62,6.62,0,0,0-1.1-.69,5.06,5.06,0,0,0-3.45-.18,6.21,6.21,0,0,0-3.79,3.36A13.45,13.45,0,0,0,406.9,294c0,1.15.07,2.28.1,3.37a11.48,11.48,0,0,1-.19,3.17,3.18,3.18,0,0,1-1.72,2.29,3,3,0,0,1-2.49-.16,3.33,3.33,0,0,1-1.46-1.47,4.68,4.68,0,0,1-.46-1.5A4,4,0,0,1,400.7,298.37Z"/><path class="cls-7" d="M414.49,318.66a2.77,2.77,0,0,1-.49-.5,4,4,0,0,1-.73-1.85,5.42,5.42,0,0,1,.55-3.09,12.07,12.07,0,0,1,2.59-3.28,22,22,0,0,0,3.4-3.67,8.65,8.65,0,0,0,1.16-5.48,57.79,57.79,0,0,1-.49-6.4,8.53,8.53,0,0,1,.78-3.33,5.94,5.94,0,0,1,2.45-2.54c2.09-1.2,4.44-1.52,6.36-2.58a10.4,10.4,0,0,0,4.12-4.66c.92-1.8,1.58-3.64,2.43-5.25a11.29,11.29,0,0,1,3.16-4,6,6,0,0,1,3.92-1.34,4.89,4.89,0,0,1,2.91,1.17,3.75,3.75,0,0,1,1.13,1.63,3.47,3.47,0,0,1,.12.51c0,.11,0,.17,0,.17s0-.24-.19-.66a3.73,3.73,0,0,0-1.15-1.56,4.78,4.78,0,0,0-2.84-1.09,5.91,5.91,0,0,0-3.78,1.35,11.06,11.06,0,0,0-3.06,3.9c-.83,1.6-1.48,3.43-2.4,5.26a10.72,10.72,0,0,1-4.23,4.8c-2,1.09-4.34,1.42-6.36,2.58a5.67,5.67,0,0,0-2.32,2.41,8.15,8.15,0,0,0-.75,3.21,58.89,58.89,0,0,0,.46,6.36,8.85,8.85,0,0,1-1.22,5.64,21.72,21.72,0,0,1-3.47,3.69,12.11,12.11,0,0,0-2.59,3.2,5.4,5.4,0,0,0-.58,3A3.91,3.91,0,0,0,414.49,318.66Z"/><path class="cls-8" d="M417,290.28a4.8,4.8,0,0,1,1.19-5.68,21.08,21.08,0,0,0-1,2.75A21.78,21.78,0,0,0,417,290.28Z"/><path class="cls-6" d="M420.25,319.13a22.32,22.32,0,0,0,2.91,14.46,11.55,11.55,0,0,0,3.57,3.94,5.94,5.94,0,0,0,5.13.73,4,4,0,0,0,2.66-4.19c-.41-2.51-3.49-4.07-3.51-6.61,1.12.67,2.64,1.32,3.62.46a2.19,2.19,0,0,0,.37-2.46,9.77,9.77,0,0,0-1.51-2.18,13.55,13.55,0,0,1-2.73-10.35c.15-1,.42-4.13.44-5.15s-.27,0-1.05-.68a3.14,3.14,0,0,0-2.85-.52,6.18,6.18,0,0,0-2.54,1.59,11.65,11.65,0,0,0-3.47,8.88"/></g><g id="Plant"><path class="cls-2" d="M150.66,260.31s0-.08-.09-.21l-.32-.59a24.85,24.85,0,0,0-8.26-8.67,16.72,16.72,0,0,0-6.17-2.26,15.28,15.28,0,0,0-7.49.78,12.18,12.18,0,0,0-6.41,5.25c-1.47,2.57-2,5.59-2.81,8.47a15.41,15.41,0,0,1-1.79,4.05,12.38,12.38,0,0,1-3,3c-1.15.84-2.35,1.6-3.43,2.49a14.71,14.71,0,0,0-2.79,3,18.72,18.72,0,0,0-2.86,7,25.22,25.22,0,0,0-.38,6.55,50.26,50.26,0,0,0,1.68,9.33c.28,1.08.52,1.91.69,2.48a5.64,5.64,0,0,0,.28.85,6.24,6.24,0,0,0-.18-.88c-.15-.62-.34-1.45-.59-2.5a53.35,53.35,0,0,1-1.51-9.3,24.59,24.59,0,0,1,.44-6.45,18.23,18.23,0,0,1,2.82-6.78,14.6,14.6,0,0,1,2.71-2.91c1.06-.86,2.25-1.62,3.42-2.47a12.69,12.69,0,0,0,3.17-3.12,15.59,15.59,0,0,0,1.86-4.19c.87-2.93,1.35-5.91,2.75-8.37a11.72,11.72,0,0,1,6.14-5.05,15,15,0,0,1,7.26-.81,16.67,16.67,0,0,1,6,2.16,24.1,24.1,0,0,1,6.9,6.3c.66.89,1.14,1.61,1.46,2.1A6.18,6.18,0,0,0,150.66,260.31Z"/><path class="cls-2" d="M112.93,270.89c.8-.74,1.18-.23,2.25,0a6.58,6.58,0,0,1,2.89,1.44A12.14,12.14,0,0,1,122,285a9.48,9.48,0,0,1-8.7-14.24"/><path class="cls-2" d="M145.57,256c.4-1,1-.71,2-1a6.63,6.63,0,0,1,3.22.05,12.17,12.17,0,0,1,9,9.82,9.48,9.48,0,0,1-14-9.11"/><path class="cls-2" d="M105.75,291a10.93,10.93,0,0,1,17.2.84,13.52,13.52,0,0,1-8.92,3.52,13.85,13.85,0,0,1-9-3.64"/><path class="cls-2" d="M108.43,276a11.1,11.1,0,0,1-11.21-13.24,10,10,0,0,1,11.57,13.13"/><path class="cls-2" d="M119.91,258.33a11.09,11.09,0,0,1-15-8.76,9.95,9.95,0,0,1,15.27,8.53"/><path class="cls-2" d="M123.76,252.56a11.09,11.09,0,0,1,15,8.76,10,10,0,0,1-15.27-8.53"/><path class="cls-2" d="M128.35,249.46a11.09,11.09,0,0,1-5.9-16.3,10,10,0,0,1,6.28,16.33"/><path class="cls-2" d="M140.11,250a11.09,11.09,0,0,1,9.06-14.78,10,10,0,0,1-8.84,15.1"/><polyline class="cls-6" points="92.69 329.54 86.43 290.2 134.46 290.78 129.72 329.02"/><path class="cls-10" d="M113.42,283a8.2,8.2,0,0,0,8,.67,8.62,8.62,0,0,0,4.36-6.89,9.8,9.8,0,0,0-8-.41,9.7,9.7,0,0,0-5.29,5.92"/><path class="cls-10" d="M135.37,291.49a8.2,8.2,0,0,0,8,.67,8.63,8.63,0,0,0,4.37-6.89,9.8,9.8,0,0,0-8-.41,9.7,9.7,0,0,0-5.29,5.92"/><path class="cls-10" d="M123.05,272.57a8.21,8.21,0,0,0,6.29,4.95,8.65,8.65,0,0,0,7.43-3.36,9.82,9.82,0,0,0-6.42-4.72,9.68,9.68,0,0,0-7.68,2"/><path class="cls-10" d="M131.06,282.37a8.2,8.2,0,0,0-7.17,3.55,8.64,8.64,0,0,0-.16,8.15,9.81,9.81,0,0,0,7-3.77,9.67,9.67,0,0,0,1.46-7.8"/><path class="cls-10" d="M138.8,297.85a8.21,8.21,0,0,0,.19,8,8.63,8.63,0,0,0,7.32,3.59,9.79,9.79,0,0,0-.45-7.95c-1.26-2.3-3.54-3.43-6.39-4.08"/><path class="cls-10" d="M151.56,299.67a5.71,5.71,0,0,0-1.9-1.21,8,8,0,0,0-2.6-.45,29.2,29.2,0,0,0-3.54.21,10.3,10.3,0,0,1-4.37-.38,6.68,6.68,0,0,1-3.6-3.48,19.92,19.92,0,0,1-1.55-5.31,15.13,15.13,0,0,0-1.85-5.45,19,19,0,0,0-4.06-4.13,19.64,19.64,0,0,1-3.89-4,13,13,0,0,1-1.93-9,12.79,12.79,0,0,1,2.35-5.82,9,9,0,0,1,1.16-1.26,2.6,2.6,0,0,1,.45-.39,3,3,0,0,1-.38.46,12,12,0,0,0-1.06,1.31,13,13,0,0,0-2.16,5.74,12.75,12.75,0,0,0,2,8.72,19.44,19.44,0,0,0,3.81,3.83,19.57,19.57,0,0,1,4.18,4.24A15.61,15.61,0,0,1,134.5,289a19.79,19.79,0,0,0,1.48,5.2,6.25,6.25,0,0,0,3.33,3.29,10.13,10.13,0,0,0,4.18.41,28.31,28.31,0,0,1,3.58-.13,8,8,0,0,1,2.67.56,4.29,4.29,0,0,1,1.44.93,2,2,0,0,1,.3.34C151.54,299.63,151.57,299.67,151.56,299.67Z"/><path class="cls-10" d="M151.56,299.67a5.71,5.71,0,0,0-1.9-1.21,8,8,0,0,0-2.6-.45,29.2,29.2,0,0,0-3.54.21,10.3,10.3,0,0,1-4.37-.38,6.68,6.68,0,0,1-3.6-3.48,19.92,19.92,0,0,1-1.55-5.31,15.13,15.13,0,0,0-1.85-5.45,19,19,0,0,0-4.06-4.13,19.64,19.64,0,0,1-3.89-4,13,13,0,0,1-1.93-9,12.79,12.79,0,0,1,2.35-5.82,9,9,0,0,1,1.16-1.26,2.6,2.6,0,0,1,.45-.39,3,3,0,0,1-.38.46,12,12,0,0,0-1.06,1.31,13,13,0,0,0-2.16,5.74,12.75,12.75,0,0,0,2,8.72,19.44,19.44,0,0,0,3.81,3.83,19.57,19.57,0,0,1,4.18,4.24A15.61,15.61,0,0,1,134.5,289a19.79,19.79,0,0,0,1.48,5.2,6.25,6.25,0,0,0,3.33,3.29,10.13,10.13,0,0,0,4.18.41,28.31,28.31,0,0,1,3.58-.13,8,8,0,0,1,2.67.56,4.29,4.29,0,0,1,1.44.93,2,2,0,0,1,.3.34C151.54,299.63,151.57,299.67,151.56,299.67Z"/><path class="cls-10" d="M59.89,303.7a12.15,12.15,0,0,0-16.45-12,20.24,20.24,0,0,0,16,11.81"/><path class="cls-10" d="M56.71,305.38c-2.35,2.58-2.19,6.73-.51,9.78s4.57,5.24,7.46,7.18a15.77,15.77,0,0,0-6.79-17.9"/><path class="cls-10" d="M68.09,293.28A14,14,0,0,0,84,305.77c-.91-3.77-2.42-7.57-5.34-10.14s-7.51-3.51-10.74-1.36"/><path class="cls-10" d="M68,289.43c-.59-3.43-4-5.93-7.46-6.25s-6.9,1.16-9.68,3.26a12.6,12.6,0,0,0,17.17,1.7"/><path class="cls-10" d="M50.12,318.66c-3.29,2.82-4.12,7.83-2.75,11.95s4.58,7.39,8.19,9.8c1.38-4.08,2.25-8.45,1.52-12.7s-3.29-8.34-7.23-10.07"/><path class="cls-10" d="M67.48,279.79a10.14,10.14,0,0,1,16-.94,8.76,8.76,0,0,1-15.8.41"/><path class="cls-10" d="M71.52,269.88a13.17,13.17,0,0,1-16.8-10.3,30.14,30.14,0,0,1,7.94.12,12.85,12.85,0,0,1,7,3.46,7,7,0,0,1,1.84,6.72"/><path class="cls-10" d="M79.14,267.32a10.78,10.78,0,0,1-.07-16.62,22.48,22.48,0,0,1,4.71,10,8.61,8.61,0,0,1,0,4.16,3.85,3.85,0,0,1-2.91,2.72"/><g class="cls-12"><path d="M59.89,303.7a12.15,12.15,0,0,0-16.45-12,20.24,20.24,0,0,0,16,11.81"/></g><g class="cls-12"><path d="M56.71,305.38c-2.35,2.58-2.19,6.73-.51,9.78s4.57,5.24,7.46,7.18a15.77,15.77,0,0,0-6.79-17.9"/></g><g class="cls-12"><path d="M68.09,293.28A14,14,0,0,0,84,305.77c-.91-3.77-2.42-7.57-5.34-10.14s-7.51-3.51-10.74-1.36"/></g><g class="cls-12"><path d="M68,289.43c-.59-3.43-4-5.93-7.46-6.25s-6.9,1.16-9.68,3.26a12.6,12.6,0,0,0,17.17,1.7"/></g><g class="cls-12"><path d="M50.12,318.66c-3.29,2.82-4.12,7.83-2.75,11.95s4.58,7.39,8.19,9.8c1.38-4.08,2.25-8.45,1.52-12.7s-3.29-8.34-7.23-10.07"/></g><g class="cls-12"><path d="M67.48,279.79a10.14,10.14,0,0,1,16-.94,8.76,8.76,0,0,1-15.8.41"/></g><g class="cls-12"><path d="M71.52,269.88a13.17,13.17,0,0,1-16.8-10.3,30.14,30.14,0,0,1,7.94.12,12.85,12.85,0,0,1,7,3.46,7,7,0,0,1,1.84,6.72"/></g><g class="cls-12"><path d="M79.14,267.32a10.78,10.78,0,0,1-.07-16.62,22.48,22.48,0,0,1,4.71,10,8.61,8.61,0,0,1,0,4.16,3.85,3.85,0,0,1-2.91,2.72"/></g><path class="cls-10" d="M92.31,291.47v-.28c0-.2,0-.46,0-.79,0-.69.11-1.71.14-3a27.32,27.32,0,0,0-1.79-10.92,16.72,16.72,0,0,0-4.39-6.17,11.69,11.69,0,0,0-8-2.94,10,10,0,0,0-4.51,1.13,8.94,8.94,0,0,0-3.48,3.32c-1.74,2.87-2.17,6.48-2,10s.64,7.12.24,10.56a15.94,15.94,0,0,1-1.32,4.9,10.13,10.13,0,0,1-3,3.87,15,15,0,0,1-4.11,2.11A20.86,20.86,0,0,0,56.31,305a14.14,14.14,0,0,0-5.1,5.55,13.5,13.5,0,0,0-1.47,6.08,14.34,14.34,0,0,0,.77,4.69A17,17,0,0,0,52.33,325a1.32,1.32,0,0,1-.18-.21c-.1-.14-.28-.35-.46-.64a12.8,12.8,0,0,1-1.37-2.73,14.2,14.2,0,0,1-.87-4.76,13.74,13.74,0,0,1,1.43-6.24,14.39,14.39,0,0,1,5.2-5.75c2.37-1.58,5.51-2,7.92-3.88s3.69-5.14,4.06-8.44-.12-6.87-.25-10.49.28-7.31,2.1-10.32A9.51,9.51,0,0,1,73.6,268a10.37,10.37,0,0,1,4.73-1.17A12.13,12.13,0,0,1,86.6,270a17,17,0,0,1,4.45,6.36,22.94,22.94,0,0,1,1.51,6.23,34.57,34.57,0,0,1,.14,4.83c-.06,1.33-.15,2.35-.23,3,0,.32-.08.58-.1.79A1,1,0,0,1,92.31,291.47Z"/><g class="cls-12"><path d="M92.31,291.47v-.28c0-.2,0-.46,0-.79,0-.69.11-1.71.14-3a27.32,27.32,0,0,0-1.79-10.92,16.72,16.72,0,0,0-4.39-6.17,11.69,11.69,0,0,0-8-2.94,10,10,0,0,0-4.51,1.13,8.94,8.94,0,0,0-3.48,3.32c-1.74,2.87-2.17,6.48-2,10s.64,7.12.24,10.56a15.94,15.94,0,0,1-1.32,4.9,10.13,10.13,0,0,1-3,3.87,15,15,0,0,1-4.11,2.11A20.86,20.86,0,0,0,56.31,305a14.14,14.14,0,0,0-5.1,5.55,13.5,13.5,0,0,0-1.47,6.08,14.34,14.34,0,0,0,.77,4.69A17,17,0,0,0,52.33,325a1.32,1.32,0,0,1-.18-.21c-.1-.14-.28-.35-.46-.64a12.8,12.8,0,0,1-1.37-2.73,14.2,14.2,0,0,1-.87-4.76,13.74,13.74,0,0,1,1.43-6.24,14.39,14.39,0,0,1,5.2-5.75c2.37-1.58,5.51-2,7.92-3.88s3.69-5.14,4.06-8.44-.12-6.87-.25-10.49.28-7.31,2.1-10.32A9.51,9.51,0,0,1,73.6,268a10.37,10.37,0,0,1,4.73-1.17A12.13,12.13,0,0,1,86.6,270a17,17,0,0,1,4.45,6.36,22.94,22.94,0,0,1,1.51,6.23,34.57,34.57,0,0,1,.14,4.83c-.06,1.33-.15,2.35-.23,3,0,.32-.08.58-.1.79A1,1,0,0,1,92.31,291.47Z"/></g><path class="cls-10" d="M162.24,282.88a9.91,9.91,0,0,0,.72-3.52,8.83,8.83,0,0,0-.93-4.06,8.52,8.52,0,0,0-3.92-3.78,8.41,8.41,0,0,0-3.09-.83,9.87,9.87,0,0,0-3.45.4c-2.35.62-4.68,2-7.46,2.51a8.72,8.72,0,0,1-4.33-.11,6.49,6.49,0,0,1-3.53-2.81c-1.67-2.61-2.15-5.87-4.17-8.27a8.3,8.3,0,0,0-3.8-2.48,10.78,10.78,0,0,0-4.43-.45,11.39,11.39,0,0,0-7.37,3.84,17.31,17.31,0,0,0-3.66,6.77,20.62,20.62,0,0,0-.82,6.71,74.08,74.08,0,0,0,1.25,9.81c.19,1.12.34,2,.46,2.66,0,.28.07.5.1.69a.87.87,0,0,1,0,.24,1,1,0,0,1-.07-.23l-.16-.68c-.13-.65-.32-1.53-.55-2.64a67.29,67.29,0,0,1-1.42-9.84,20.82,20.82,0,0,1,.77-6.84,17.81,17.81,0,0,1,3.72-7,13.35,13.35,0,0,1,3.37-2.7,11.65,11.65,0,0,1,9-.86,8.7,8.7,0,0,1,4,2.63c2.15,2.57,2.6,5.86,4.21,8.33a6,6,0,0,0,3.25,2.62,8.46,8.46,0,0,0,4.09.11c2.68-.52,5-1.83,7.44-2.46a10.57,10.57,0,0,1,3.59-.39,8.9,8.9,0,0,1,3.22.91,8.74,8.74,0,0,1,4,4,8.92,8.92,0,0,1,.87,4.2,8,8,0,0,1-.52,2.66A3.94,3.94,0,0,1,162.24,282.88Z"/><path class="cls-10" d="M134.16,265.45a9.31,9.31,0,0,0,8.56.57,8.62,8.62,0,0,0,4.36-6.89,9.21,9.21,0,0,0-13.25,5.51"/><path class="cls-10" d="M143.26,273.71a9.35,9.35,0,0,0,4,7.61,8.64,8.64,0,0,0,8.15.14,9.21,9.21,0,0,0-11.6-8.45"/><path class="cls-10" d="M159.06,271.88a9.31,9.31,0,0,0,8.57-.35,8.64,8.64,0,0,0,3.6-7.32,9.79,9.79,0,0,0-7.95.45,9.68,9.68,0,0,0-4.63,6.45"/><path class="cls-10" d="M120.89,260c-2.3-2-3.84-5.48-3.4-8.09a8.63,8.63,0,0,1,5.29-6.2A9.22,9.22,0,0,1,121.43,260"/><path class="cls-10" d="M59.22,248.68s0-.08.09-.21l.32-.59A24.74,24.74,0,0,1,61,245.71a23.45,23.45,0,0,1,6.87-6.5A16.72,16.72,0,0,1,74.06,237a15.28,15.28,0,0,1,7.49.78A12.18,12.18,0,0,1,88,243c1.47,2.57,2,5.59,2.81,8.47a15.41,15.41,0,0,0,1.79,4.05,12.38,12.38,0,0,0,3,3c1.15.84,2.35,1.6,3.43,2.49a14.71,14.71,0,0,1,2.79,3,18.72,18.72,0,0,1,2.86,7,25.24,25.24,0,0,1,.38,6.55,50.26,50.26,0,0,1-1.68,9.33c-.28,1.08-.52,1.91-.69,2.48a5.64,5.64,0,0,1-.28.85,6.24,6.24,0,0,1,.18-.88c.15-.62.34-1.45.59-2.5a53.35,53.35,0,0,0,1.51-9.3,24.59,24.59,0,0,0-.44-6.45,18.23,18.23,0,0,0-2.82-6.78,14.6,14.6,0,0,0-2.71-2.91c-1.06-.86-2.25-1.62-3.42-2.47a12.69,12.69,0,0,1-3.17-3.12,15.53,15.53,0,0,1-1.86-4.18c-.87-2.94-1.35-5.92-2.75-8.38a11.72,11.72,0,0,0-6.14-5,15,15,0,0,0-7.26-.81,16.67,16.67,0,0,0-6,2.16,24.1,24.1,0,0,0-6.9,6.3c-.66.89-1.14,1.61-1.46,2.1A6.18,6.18,0,0,1,59.22,248.68Z"/><path class="cls-10" d="M97,259.26c-.8-.74-1.18-.23-2.25,0a6.58,6.58,0,0,0-2.89,1.44,12.14,12.14,0,0,0-3.93,12.74,9.48,9.48,0,0,0,8.7-14.24"/><path class="cls-10" d="M64.31,244.4c-.4-1-1-.71-2-1a6.51,6.51,0,0,0-3.22.06,12.14,12.14,0,0,0-9,9.81,9.48,9.48,0,0,0,14-9.11"/><path class="cls-10" d="M104.13,279.36a10.93,10.93,0,0,0-17.2.84,13.52,13.52,0,0,0,8.92,3.52,13.85,13.85,0,0,0,9-3.64"/><path class="cls-10" d="M101.45,264.35a11.1,11.1,0,0,0,11.21-13.24,10,10,0,0,0-11.57,13.13"/><path class="cls-10" d="M90,246.7a11.09,11.09,0,0,0,15-8.76,10,10,0,0,0-15.27,8.53"/><path class="cls-10" d="M86.12,240.93a11.09,11.09,0,0,0-15,8.76,10,10,0,0,0,15.27-8.53"/><path class="cls-10" d="M81.53,237.83a11.09,11.09,0,0,0,5.9-16.3,10,10,0,0,0-6.28,16.33"/><path class="cls-10" d="M69.77,238.39a11.09,11.09,0,0,0-9.06-14.78,10,10,0,0,0,8.84,15.1"/><polygon class="cls-6" points="85.82 324.98 89.49 329.54 134.69 329.54 137.77 324.98 85.82 324.98"/><path class="cls-7" d="M136.78,324.94c0,.14-11.11.26-24.81.26s-24.8-.12-24.8-.26,11.1-.26,24.8-.26S136.78,324.79,136.78,324.94Z"/><path class="cls-7" d="M131.7,307.78a2.38,2.38,0,0,1-.29.37,9.19,9.19,0,0,1-.92,1,16.66,16.66,0,0,1-4,2.8,17.83,17.83,0,0,1-7.06,1.82,17,17,0,0,1-4.32-.37,25.73,25.73,0,0,1-4.4-1.45c-2.91-1.24-5.56-2.66-8.14-3.48a14,14,0,0,0-7-.68,9.26,9.26,0,0,0-4.31,2A16.91,16.91,0,0,0,90,311s.06-.15.22-.41a6.3,6.3,0,0,1,.87-1,9,9,0,0,1,4.38-2.21,14.16,14.16,0,0,1,7.25.58c2.64.82,5.32,2.23,8.2,3.46a26.27,26.27,0,0,0,4.31,1.44,16.78,16.78,0,0,0,4.18.38,17.92,17.92,0,0,0,6.92-1.67A21.78,21.78,0,0,0,131.7,307.78Z"/><path class="cls-7" d="M132.15,304.25a2.19,2.19,0,0,1-.31.35,13.34,13.34,0,0,1-1,.9,18.9,18.9,0,0,1-4.19,2.6,19.76,19.76,0,0,1-7.1,1.69,18.93,18.93,0,0,1-4.33-.29,29.09,29.09,0,0,1-4.47-1.26c-3-1.09-5.72-2.33-8.34-3.06a16.46,16.46,0,0,0-7.09-.64,10.46,10.46,0,0,0-4.47,1.71c-.94.66-1.35,1.16-1.39,1.12a1.59,1.59,0,0,1,.28-.37,8,8,0,0,1,1-.92,10.41,10.41,0,0,1,4.53-1.91,16.53,16.53,0,0,1,7.28.55c2.67.72,5.44,2,8.39,3a29.82,29.82,0,0,0,4.38,1.25,19.19,19.19,0,0,0,4.22.31,20.08,20.08,0,0,0,7-1.55A25.5,25.5,0,0,0,132.15,304.25Z"/></g><g id="Boxes"><rect class="cls-10" x="26.89" y="371.57" width="96.13" height="64.34"/><g class="cls-12"><rect x="26.89" y="371.57" width="96.13" height="64.34"/></g><rect class="cls-10" x="103.52" y="371.66" width="7.63" height="13.05"/><rect class="cls-10" x="102.69" y="422.86" width="7.63" height="13.05"/><path class="cls-6" d="M54.4,435.78c-.14,0-.26-14.43-.26-32.21s.12-32.21.26-32.21.26,14.42.26,32.21S54.55,435.78,54.4,435.78Z"/><path class="cls-6" d="M88.49,406.61c0,.14-13.86.26-30.95.26s-30.95-.12-30.95-.26,13.85-.26,31-.26S88.49,406.47,88.49,406.61Z"/><path class="cls-6" d="M55.93,371.42a17.32,17.32,0,0,1,2.23-1.66,24.41,24.41,0,0,1,7.2-3.17,24.87,24.87,0,0,1,5.58-.81,4.7,4.7,0,0,1,1.61.13,1.47,1.47,0,0,1,1.06,1.34,2.11,2.11,0,0,1-.68,1.64,4.54,4.54,0,0,1-1.56.91,30.32,30.32,0,0,1-15.83,1.53l-.19,0v-.2a37.76,37.76,0,0,1,4.63-15,6.66,6.66,0,0,1,1.9-2.17,3.58,3.58,0,0,1,2.92-.54,3.06,3.06,0,0,1,2,2.26,4.88,4.88,0,0,1-.3,3,26.07,26.07,0,0,1-3.16,5.16,33.67,33.67,0,0,1-9.23,8.32l-.1.06-.09,0-1.1-.29-1.12-.37a19.55,19.55,0,0,1-8.07-5.69A18.23,18.23,0,0,1,41,361.74a4.56,4.56,0,0,1-.62-2.39,1.32,1.32,0,0,1,.8-1.12,1.85,1.85,0,0,1,1.32.07,19.44,19.44,0,0,1,11.1,13.29l-.44.15A52.37,52.37,0,0,1,49.33,352a6,6,0,0,1,.4-2.26,2.55,2.55,0,0,1,.69-.94,1.88,1.88,0,0,1,1.11-.38,2.24,2.24,0,0,1,1.81,1.19,6.08,6.08,0,0,1,.77,1.9,54.22,54.22,0,0,1,1,7.19,55.56,55.56,0,0,1-.25,10.18c-.14,1.17-.28,2.07-.39,2.67-.05.29-.09.51-.13.68s0,.23,0,.23a1,1,0,0,1,0-.23c0-.18.06-.4.1-.69.08-.6.2-1.5.31-2.67a57.69,57.69,0,0,0,.12-10.15,55,55,0,0,0-1-7.13,5.7,5.7,0,0,0-.74-1.79,1.88,1.88,0,0,0-1.51-1,1.59,1.59,0,0,0-1.45,1.11,5.59,5.59,0,0,0-.36,2.1,52.22,52.22,0,0,0,3.88,19.6l-.45.14a19,19,0,0,0-10.81-12.92,1.36,1.36,0,0,0-1-.07.81.81,0,0,0-.49.7,4.21,4.21,0,0,0,.59,2.12,18,18,0,0,0,2.54,4A19.06,19.06,0,0,0,51.88,371l1.08.36,1.07.28-.19,0a33.06,33.06,0,0,0,9.09-8.18,25.41,25.41,0,0,0,3.09-5,4.42,4.42,0,0,0,.29-2.72,2.56,2.56,0,0,0-1.64-1.91,3.07,3.07,0,0,0-2.5.48,6,6,0,0,0-1.76,2,35.67,35.67,0,0,0-2.3,4.9,38.06,38.06,0,0,0-2.31,9.89l-.18-.23a30.12,30.12,0,0,0,15.62-1.44,4.33,4.33,0,0,0,1.46-.82,1.77,1.77,0,0,0,.58-1.38,1.13,1.13,0,0,0-.83-1.06,4.67,4.67,0,0,0-1.5-.13,25.23,25.23,0,0,0-5.53.75,25.51,25.51,0,0,0-7.19,3c-.77.47-1.34.87-1.72,1.14S55.93,371.42,55.93,371.42Z"/><rect class="cls-10" x="88.29" y="329.83" width="158.6" height="106.15"/><g class="cls-11"><rect x="191.75" y="329.83" width="55.14" height="106.15"/></g><rect class="cls-10" x="214.72" y="329.97" width="12.59" height="21.53"/><rect class="cls-10" x="213.34" y="414.45" width="12.59" height="21.53"/><path class="cls-6" d="M133.69,435.76c-.15,0-.26-23.8-.26-53.14s.11-53.14.26-53.14.26,23.79.26,53.14S133.83,435.76,133.69,435.76Z"/></g><g id="Socks"><g class="cls-16"><path class="cls-10" d="M172.74,190.4l16.85-12.24,21.89,25.93a11,11,0,0,1,2.25,10l-7.37,28a9.38,9.38,0,0,1-9.73,7h0A9.38,9.38,0,0,1,188,238.49l3.25-25.26Z"/><path class="cls-8" d="M188.9,211.77a6.36,6.36,0,0,1-.44-1,26.29,26.29,0,0,1-1-2.74,33.72,33.72,0,0,1,0-18.89,26.43,26.43,0,0,1,1-2.73,9,9,0,0,1,.44-1,6.93,6.93,0,0,1-.33,1c-.23.64-.53,1.58-.85,2.75a35.72,35.72,0,0,0,0,18.77c.32,1.18.62,2.12.85,2.76A6.93,6.93,0,0,1,188.9,211.77Z"/><path class="cls-8" d="M189.27,199.57a14.23,14.23,0,0,0-1.69,4,14.62,14.62,0,0,0-.14,4.3,3.81,3.81,0,0,1-.31-1.25,9.22,9.22,0,0,1,.14-3.12,9,9,0,0,1,1.19-2.88A3.78,3.78,0,0,1,189.27,199.57Z"/><path class="cls-8" d="M183.65,194s.36.28.78.85a9.52,9.52,0,0,1,1.3,2.49,9.7,9.7,0,0,1,.55,2.75,3.16,3.16,0,0,1-.07,1.16,19.69,19.69,0,0,0-.77-3.81A19.28,19.28,0,0,0,183.65,194Z"/><path class="cls-8" d="M189.66,190.87a14,14,0,0,0-2.06,2.61,13,13,0,0,0-1.1,3.14,6.65,6.65,0,0,1,3.16-5.75Z"/><path class="cls-8" d="M187,185.8a6.28,6.28,0,0,1-.09,5.25c-.09,0,.29-1.16.31-2.62S187,185.83,187,185.8Z"/><path class="cls-8" d="M207.25,247.4a5.88,5.88,0,0,1-.44-1,27.16,27.16,0,0,1-.95-2.74,33.6,33.6,0,0,1,0-18.89,26,26,0,0,1,1-2.73,7.91,7.91,0,0,1,.44-1,6,6,0,0,1-.32,1c-.24.64-.54,1.58-.86,2.75a35.72,35.72,0,0,0,0,18.77c.32,1.17.62,2.11.86,2.75A7.52,7.52,0,0,1,207.25,247.4Z"/><path class="cls-8" d="M207.63,235.21a11.49,11.49,0,0,0-1.83,8.24,3.39,3.39,0,0,1-.32-1.25,9.18,9.18,0,0,1,1.33-6A3.14,3.14,0,0,1,207.63,235.21Z"/><path class="cls-8" d="M202,229.62a3.26,3.26,0,0,1,.79.86,10.17,10.17,0,0,1,1.3,2.49,9.93,9.93,0,0,1,.54,2.75,3.16,3.16,0,0,1-.07,1.16,19.55,19.55,0,0,0-.77-3.81A19.17,19.17,0,0,0,202,229.62Z"/><path class="cls-8" d="M208,226.5a13.7,13.7,0,0,0-2.07,2.61,13.88,13.88,0,0,0-1.1,3.14,5.59,5.59,0,0,1,.83-3.29A5.66,5.66,0,0,1,208,226.5Z"/><path class="cls-8" d="M205.39,221.44a4.89,4.89,0,0,1,.53,2.63,5,5,0,0,1-.62,2.62c-.09,0,.29-1.17.31-2.62S205.3,221.47,205.39,221.44Z"/><path class="cls-8" d="M198.67,233.14a7,7,0,0,1-.44-1,26.29,26.29,0,0,1-.95-2.74,33.72,33.72,0,0,1,0-18.89,26.43,26.43,0,0,1,1-2.73,7,7,0,0,1,.44-1,6.93,6.93,0,0,1-.33,1c-.23.64-.53,1.58-.85,2.75a35.72,35.72,0,0,0,0,18.77c.32,1.18.62,2.12.85,2.76A6.93,6.93,0,0,1,198.67,233.14Z"/><path class="cls-8" d="M199,220.94a14.23,14.23,0,0,0-1.69,3.95,14.62,14.62,0,0,0-.14,4.3,3.63,3.63,0,0,1-.31-1.26,9.17,9.17,0,0,1,.14-3.11,9,9,0,0,1,1.19-2.88A3.56,3.56,0,0,1,199,220.94Z"/><path class="cls-8" d="M193.42,215.36s.35.27.78.85a9.52,9.52,0,0,1,1.3,2.49,9.64,9.64,0,0,1,.55,2.75,3.16,3.16,0,0,1-.07,1.16,19.69,19.69,0,0,0-.77-3.81A20.08,20.08,0,0,0,193.42,215.36Z"/><path class="cls-8" d="M199.43,212.24a10.18,10.18,0,0,0-3.17,5.75,5.82,5.82,0,0,1,.83-3.3A5.65,5.65,0,0,1,199.43,212.24Z"/><path class="cls-8" d="M180.44,200.65a5.79,5.79,0,0,1-.44-1,26,26,0,0,1-.95-2.73,33.6,33.6,0,0,1,0-18.89,26,26,0,0,1,.95-2.73,7.91,7.91,0,0,1,.44-1,6,6,0,0,1-.32,1c-.24.64-.54,1.58-.86,2.75a35.72,35.72,0,0,0,0,18.77c.32,1.17.62,2.11.86,2.75A7.52,7.52,0,0,1,180.44,200.65Z"/><path class="cls-8" d="M180.82,188.46A11.46,11.46,0,0,0,179,196.7a3.39,3.39,0,0,1-.32-1.25,9,9,0,0,1,.15-3.11,9.05,9.05,0,0,1,1.18-2.89A3.16,3.16,0,0,1,180.82,188.46Z"/><path class="cls-8" d="M175.19,182.87a3.26,3.26,0,0,1,.79.86,10.17,10.17,0,0,1,1.3,2.49,9.93,9.93,0,0,1,.54,2.75,3.16,3.16,0,0,1-.07,1.16,19.55,19.55,0,0,0-.77-3.81A19.17,19.17,0,0,0,175.19,182.87Z"/><path class="cls-8" d="M181.21,179.75a13.7,13.7,0,0,0-2.07,2.61,13.88,13.88,0,0,0-1.1,3.14,5.59,5.59,0,0,1,.83-3.29A5.66,5.66,0,0,1,181.21,179.75Z"/><path class="cls-8" d="M195.62,183.78a5.93,5.93,0,0,1,.63.85,24.48,24.48,0,0,1,1.52,2.46,33.58,33.58,0,0,1,4,18.46,26.16,26.16,0,0,1-.34,2.87,6.91,6.91,0,0,1-.23,1,7.92,7.92,0,0,1,.1-1.05c.1-.68.19-1.66.25-2.87a35.75,35.75,0,0,0-4-18.34c-.56-1.08-1-1.93-1.42-2.51A6.81,6.81,0,0,1,195.62,183.78Z"/><path class="cls-8" d="M197.87,195.77a11.56,11.56,0,0,0,0-8.45,3.56,3.56,0,0,1,.57,1.16,9.08,9.08,0,0,1,0,6.14A3.54,3.54,0,0,1,197.87,195.77Z"/><path class="cls-8" d="M204.56,200a3.05,3.05,0,0,1-.95-.67,9.77,9.77,0,0,1-1.8-2.14,10.19,10.19,0,0,1-1.13-2.57,3.59,3.59,0,0,1-.18-1.15,20.68,20.68,0,0,0,1.57,3.55A19.57,19.57,0,0,0,204.56,200Z"/><path class="cls-8" d="M199.36,204.35a13.49,13.49,0,0,0,1.46-3,14.42,14.42,0,0,0,.4-3.31,5.78,5.78,0,0,1-.1,3.4A5.65,5.65,0,0,1,199.36,204.35Z"/><path class="cls-8" d="M203,208.73a5,5,0,0,1-1.08-2.45,5,5,0,0,1,0-2.69c.1,0,0,1.2.26,2.62S203.09,208.69,203,208.73Z"/><path class="cls-8" d="M206.66,204.09a7.64,7.64,0,0,1,.63.86,24.48,24.48,0,0,1,1.52,2.46,33.58,33.58,0,0,1,4,18.46,26.16,26.16,0,0,1-.34,2.87,6.23,6.23,0,0,1-.23,1,7.4,7.4,0,0,1,.11-1.06c.09-.67.18-1.65.24-2.87a35.87,35.87,0,0,0-4-18.33c-.57-1.08-1.06-1.94-1.43-2.51A5.85,5.85,0,0,1,206.66,204.09Z"/><path class="cls-8" d="M208.91,216.09a11.56,11.56,0,0,0,0-8.45,3.54,3.54,0,0,1,.58,1.15,9.36,9.36,0,0,1,.52,3.08,9,9,0,0,1-.54,3.07A3.69,3.69,0,0,1,208.91,216.09Z"/><path class="cls-8" d="M215.6,220.33a3.19,3.19,0,0,1-.95-.67,9.62,9.62,0,0,1-1.8-2.15,9.89,9.89,0,0,1-1.13-2.57,3,3,0,0,1-.17-1.14,19.28,19.28,0,0,0,1.56,3.55A19.57,19.57,0,0,0,215.6,220.33Z"/><path class="cls-8" d="M210.4,224.67a13.78,13.78,0,0,0,1.46-3,14.42,14.42,0,0,0,.4-3.31,6.66,6.66,0,0,1-1.86,6.3Z"/><path class="cls-8" d="M214.05,229.05a5,5,0,0,1-1.08-2.46,5,5,0,0,1,0-2.68c.1,0,0,1.2.26,2.62S214.13,229,214.05,229.05Z"/><path class="cls-8" d="M181.44,219.49a5.77,5.77,0,0,1,.87.62,25.24,25.24,0,0,1,2.18,1.9,33.59,33.59,0,0,1,9.39,16.39,24.28,24.28,0,0,1,.53,2.85,6.21,6.21,0,0,1,.1,1.05,6.37,6.37,0,0,1-.22-1c-.11-.67-.32-1.63-.62-2.81a35.84,35.84,0,0,0-9.33-16.28c-.86-.86-1.59-1.53-2.11-2A8.4,8.4,0,0,1,181.44,219.49Z"/><path class="cls-8" d="M187.19,230.25a14.14,14.14,0,0,0-.49-4.27,14,14,0,0,0-2-3.79,3.46,3.46,0,0,1,.9.93,8.9,8.9,0,0,1,1.42,2.77,8.79,8.79,0,0,1,.41,3.09A3.31,3.31,0,0,1,187.19,230.25Z"/><path class="cls-8" d="M194.85,232.29a3,3,0,0,1-1.11-.35,9.81,9.81,0,0,1-2.36-1.51,10.07,10.07,0,0,1-1.85-2.11,3,3,0,0,1-.51-1,18.79,18.79,0,0,0,2.56,2.92A19.39,19.39,0,0,0,194.85,232.29Z"/><path class="cls-8" d="M191.19,238a13.52,13.52,0,0,0,.49-3.29,13.69,13.69,0,0,0-.61-3.27,5.63,5.63,0,0,1,.93,3.26A5.69,5.69,0,0,1,191.19,238Z"/><path class="cls-8" d="M196,241.08a5,5,0,0,1-1.77-2,4.94,4.94,0,0,1-.76-2.58c.09,0,.32,1.16,1,2.42S196.05,241,196,241.08Z"/><path class="cls-8" d="M205.44,248.84a11.24,11.24,0,0,0-18.25-8.51l2.08,7.07,9.08,4.43Z"/><path class="cls-8" d="M217.55,222a11.09,11.09,0,0,1-6.34-19.64l9.33,5.94Z"/></g><g class="cls-12"><path d="M172.74,190.4l16.85-12.24,21.89,25.93a11,11,0,0,1,2.25,10l-7.37,28a9.38,9.38,0,0,1-9.73,7h0A9.38,9.38,0,0,1,188,238.49l3.25-25.26Z"/></g><g class="cls-17"><path class="cls-10" d="M181.44,181.44l16.85-12.25,21.89,25.93a11.09,11.09,0,0,1,2.26,10l-7.38,28a9.39,9.39,0,0,1-9.73,7h0a9.38,9.38,0,0,1-8.65-10.56l3.25-25.27Z"/><path class="cls-8" d="M197.6,202.8a5.88,5.88,0,0,1-.44-1,27.16,27.16,0,0,1-.95-2.74,33.71,33.71,0,0,1,0-18.89,28.06,28.06,0,0,1,1-2.73,7.91,7.91,0,0,1,.44-1,6.93,6.93,0,0,1-.33,1c-.23.64-.53,1.58-.85,2.75a35.72,35.72,0,0,0,0,18.77c.32,1.17.62,2.11.85,2.75A6.93,6.93,0,0,1,197.6,202.8Z"/><path class="cls-8" d="M198,190.61a14.23,14.23,0,0,0-1.69,3.95,14.54,14.54,0,0,0-.14,4.29,3.81,3.81,0,0,1-.31-1.25,9.17,9.17,0,0,1,.14-3.11,9,9,0,0,1,1.19-2.88A3.38,3.38,0,0,1,198,190.61Z"/><path class="cls-8" d="M192.35,185a3.15,3.15,0,0,1,.78.86,9.82,9.82,0,0,1,1.31,2.49,9.93,9.93,0,0,1,.54,2.75,3.16,3.16,0,0,1-.07,1.16,19.55,19.55,0,0,0-.77-3.81A19.17,19.17,0,0,0,192.35,185Z"/><path class="cls-8" d="M198.36,181.9a14.38,14.38,0,0,0-2.06,2.61,13.31,13.31,0,0,0-1.1,3.14,5.62,5.62,0,0,1,.82-3.29A5.78,5.78,0,0,1,198.36,181.9Z"/><path class="cls-8" d="M195.74,176.84a5,5,0,0,1,.53,2.63,5.1,5.1,0,0,1-.62,2.62c-.09,0,.29-1.17.31-2.62S195.65,176.87,195.74,176.84Z"/><path class="cls-8" d="M216,238.44a7.91,7.91,0,0,1-.44-1,26.82,26.82,0,0,1-.95-2.73,33.6,33.6,0,0,1,0-18.89,26.29,26.29,0,0,1,.95-2.74,7.21,7.21,0,0,1,.44-1,6.76,6.76,0,0,1-.32,1c-.24.63-.54,1.57-.86,2.75a35.72,35.72,0,0,0,0,18.77c.32,1.17.62,2.11.86,2.75A7.52,7.52,0,0,1,216,238.44Z"/><path class="cls-8" d="M216.33,226.24a11.5,11.5,0,0,0-1.83,8.25,3.39,3.39,0,0,1-.32-1.25,9.19,9.19,0,0,1,1.33-6A3.48,3.48,0,0,1,216.33,226.24Z"/><path class="cls-8" d="M210.7,220.66s.36.28.79.86a9.9,9.9,0,0,1,1.3,2.48,10,10,0,0,1,.54,2.75,3.12,3.12,0,0,1-.07,1.16,19.53,19.53,0,0,0-.77-3.8A19.17,19.17,0,0,0,210.7,220.66Z"/><path class="cls-8" d="M216.72,217.54a13.32,13.32,0,0,0-2.07,2.61,14.31,14.31,0,0,0-1.1,3.14,5.59,5.59,0,0,1,.83-3.29A5.66,5.66,0,0,1,216.72,217.54Z"/><path class="cls-8" d="M214.09,212.48a4.85,4.85,0,0,1,.53,2.63,4.93,4.93,0,0,1-.62,2.61c-.09,0,.29-1.16.31-2.62S214,212.5,214.09,212.48Z"/><path class="cls-8" d="M207.37,224.17a5.79,5.79,0,0,1-.44-1,26,26,0,0,1-1-2.73,33.71,33.71,0,0,1,0-18.89,25.59,25.59,0,0,1,1-2.73,6.36,6.36,0,0,1,.44-1,6.93,6.93,0,0,1-.33,1c-.23.64-.53,1.58-.85,2.75a35.72,35.72,0,0,0,0,18.77c.32,1.17.62,2.11.85,2.75A6.93,6.93,0,0,1,207.37,224.17Z"/><path class="cls-8" d="M207.74,212a14.23,14.23,0,0,0-1.69,4,14.54,14.54,0,0,0-.14,4.29,3.53,3.53,0,0,1-.31-1.25,9.17,9.17,0,0,1,.14-3.11,8.88,8.88,0,0,1,1.19-2.88A3.38,3.38,0,0,1,207.74,212Z"/><path class="cls-8" d="M202.12,206.39a3.15,3.15,0,0,1,.78.86,9.52,9.52,0,0,1,1.3,2.49,9.64,9.64,0,0,1,.55,2.75,3.16,3.16,0,0,1-.07,1.16,19.55,19.55,0,0,0-.77-3.81A20,20,0,0,0,202.12,206.39Z"/><path class="cls-8" d="M208.13,203.27a14.38,14.38,0,0,0-2.06,2.61A13.31,13.31,0,0,0,205,209a5.62,5.62,0,0,1,.82-3.29A5.78,5.78,0,0,1,208.13,203.27Z"/><path class="cls-8" d="M189.14,191.69a7.91,7.91,0,0,1-.44-1,26.29,26.29,0,0,1-.95-2.74,33.56,33.56,0,0,1,0-18.88,26.29,26.29,0,0,1,.95-2.74,7.21,7.21,0,0,1,.44-1,6.76,6.76,0,0,1-.32,1c-.24.63-.54,1.57-.86,2.75a35.68,35.68,0,0,0,0,18.76c.32,1.18.62,2.12.86,2.76A7.52,7.52,0,0,1,189.14,191.69Z"/><path class="cls-8" d="M189.52,179.49a11.5,11.5,0,0,0-1.83,8.25,3.39,3.39,0,0,1-.32-1.25,9.19,9.19,0,0,1,1.33-6A3.48,3.48,0,0,1,189.52,179.49Z"/><path class="cls-8" d="M183.89,173.91s.36.28.79.86a9.9,9.9,0,0,1,1.3,2.48,10,10,0,0,1,.54,2.75,3.12,3.12,0,0,1-.07,1.16,19.53,19.53,0,0,0-.77-3.8A19.17,19.17,0,0,0,183.89,173.91Z"/><path class="cls-8" d="M189.91,170.79a13.32,13.32,0,0,0-2.07,2.61,14.31,14.31,0,0,0-1.1,3.14,6.69,6.69,0,0,1,3.17-5.75Z"/><path class="cls-8" d="M204.32,174.81a6.82,6.82,0,0,1,.63.85,26.1,26.1,0,0,1,1.52,2.47,33.57,33.57,0,0,1,4,18.45,26.39,26.39,0,0,1-.34,2.88,7.85,7.85,0,0,1-.23,1,7.28,7.28,0,0,1,.11-1.06c.09-.67.18-1.66.24-2.87a35.75,35.75,0,0,0-4-18.34c-.56-1.07-1.05-1.93-1.42-2.5A6.45,6.45,0,0,1,204.32,174.81Z"/><path class="cls-8" d="M206.57,186.8a11.53,11.53,0,0,0,0-8.44,3.43,3.43,0,0,1,.57,1.15,9.07,9.07,0,0,1,.53,3.07,9,9,0,0,1-.54,3.07A3.54,3.54,0,0,1,206.57,186.8Z"/><path class="cls-8" d="M213.26,191.05a3.29,3.29,0,0,1-.95-.67,9.62,9.62,0,0,1-1.8-2.15,10,10,0,0,1-1.13-2.57,3.53,3.53,0,0,1-.18-1.15,20.58,20.58,0,0,0,1.57,3.56A20.87,20.87,0,0,0,213.26,191.05Z"/><path class="cls-8" d="M208.06,195.39a13.78,13.78,0,0,0,1.46-3,14.47,14.47,0,0,0,.4-3.31,6.67,6.67,0,0,1-1.86,6.3Z"/><path class="cls-8" d="M211.71,199.77a5,5,0,0,1-1.08-2.46,5,5,0,0,1,0-2.69c.1,0,0,1.21.26,2.63S211.79,199.72,211.71,199.77Z"/><path class="cls-8" d="M215.36,195.13a7.39,7.39,0,0,1,.64.85,26.39,26.39,0,0,1,1.51,2.47,33.57,33.57,0,0,1,4,18.45,26.39,26.39,0,0,1-.34,2.88,9.36,9.36,0,0,1-.22,1,5.17,5.17,0,0,1,.1-1.06c.09-.67.18-1.66.24-2.87a35.87,35.87,0,0,0-4-18.34c-.57-1.07-1.06-1.93-1.43-2.5A6.45,6.45,0,0,1,215.36,195.13Z"/><path class="cls-8" d="M217.61,207.12a11.53,11.53,0,0,0,0-8.44,3.54,3.54,0,0,1,.58,1.15,9.3,9.3,0,0,1,.52,3.07,9,9,0,0,1-.54,3.07A3.32,3.32,0,0,1,217.61,207.12Z"/><path class="cls-8" d="M224.3,211.37a3.45,3.45,0,0,1-1-.67,9.62,9.62,0,0,1-1.8-2.15,10.19,10.19,0,0,1-1.13-2.57,3.07,3.07,0,0,1-.17-1.15,19.2,19.2,0,0,0,1.56,3.56A20.87,20.87,0,0,0,224.3,211.37Z"/><path class="cls-8" d="M219.1,215.71a14,14,0,0,0,1.46-3,13.73,13.73,0,0,0,.4-3.3,5.65,5.65,0,0,1-.1,3.39A5.77,5.77,0,0,1,219.1,215.71Z"/><path class="cls-8" d="M222.75,220.09a5,5,0,0,1-1.08-2.46,5,5,0,0,1,0-2.69c.1,0,0,1.2.26,2.63S222.83,220,222.75,220.09Z"/><path class="cls-8" d="M190.14,210.52a8,8,0,0,1,.87.63,24.8,24.8,0,0,1,2.18,1.89,34,34,0,0,1,5.87,7.53,33.63,33.63,0,0,1,3.52,8.86,24.66,24.66,0,0,1,.53,2.85,5.22,5.22,0,0,1,.1,1.06,7.14,7.14,0,0,1-.22-1c-.11-.67-.32-1.64-.62-2.81A35.81,35.81,0,0,0,193,213.2c-.86-.86-1.59-1.52-2.11-2A6.36,6.36,0,0,1,190.14,210.52Z"/><path class="cls-8" d="M195.9,221.29a14.74,14.74,0,0,0-.5-4.27,14,14,0,0,0-2-3.79,3.31,3.31,0,0,1,.9.92A9.16,9.16,0,0,1,196.1,220,3.92,3.92,0,0,1,195.9,221.29Z"/><path class="cls-8" d="M203.55,223.33a3.39,3.39,0,0,1-1.1-.36,9.75,9.75,0,0,1-4.22-3.62,3.29,3.29,0,0,1-.51-1,19.33,19.33,0,0,0,2.56,2.92A20.19,20.19,0,0,0,203.55,223.33Z"/><path class="cls-8" d="M199.89,229a13.52,13.52,0,0,0,.49-3.29,13.84,13.84,0,0,0-.61-3.28,6.64,6.64,0,0,1,.12,6.57Z"/><path class="cls-8" d="M204.69,232.11a6.26,6.26,0,0,1-2.53-4.6c.09,0,.32,1.16,1,2.43S204.76,232,204.69,232.11Z"/><g class="cls-18"><path class="cls-3" d="M214.14,239.88a11.24,11.24,0,0,0-18.25-8.52l2.08,7.08,9.08,4.43Z"/></g><g class="cls-18"><path class="cls-3" d="M226.25,213a11.09,11.09,0,0,1-6.34-19.65l9.33,5.95Z"/></g></g></g><g id="Handbag"><rect class="cls-10" x="465.49" y="191.74" width="29.74" height="44.51" rx="3.58" transform="translate(101.06 578.24) rotate(-67.85)"/><g class="cls-12"><rect x="465.49" y="191.74" width="29.74" height="44.51" rx="3.58" transform="translate(101.06 578.24) rotate(-67.85)"/></g><path class="cls-6" d="M493.29,209.13a2.37,2.37,0,0,1,.22-.52l.69-1.47a34.75,34.75,0,0,0,2.2-5.53,13.36,13.36,0,0,0-.18-8.57,8.78,8.78,0,0,0-3.14-3.92,24.65,24.65,0,0,0-4.94-2.52c-3.52-1.42-7.28-2.14-10.43-1.16a9.58,9.58,0,0,0-3.94,2.36,14,14,0,0,0-2.45,3.23,30,30,0,0,0-2.24,5.5l-.49,1.56a2.11,2.11,0,0,1-.2.53,2.27,2.27,0,0,1,.1-.56c.08-.37.21-.9.4-1.58a26.17,26.17,0,0,1,2.11-5.62,14,14,0,0,1,2.47-3.37,10,10,0,0,1,4.09-2.51,12.46,12.46,0,0,1,5.29-.37,23.44,23.44,0,0,1,5.48,1.51,24.29,24.29,0,0,1,5.05,2.59,9.2,9.2,0,0,1,3.29,4.16,13.68,13.68,0,0,1,.09,8.85,31.14,31.14,0,0,1-2.37,5.51c-.34.62-.6,1.1-.79,1.43A2,2,0,0,1,493.29,209.13Z"/><rect class="cls-10" x="460.34" y="189.47" width="29.74" height="44.51" rx="3.58" transform="translate(99.96 572.06) rotate(-67.85)"/><g class="cls-19"><path class="cls-3" d="M455.07,202.17a74,74,0,0,0,8.51,4.76c3,1.23.2,2,5.17,1.45s5.39-.55,6.5.34,1.62,2.21,2.46,2.67,2.39,1,2.39,1,3.61,1.5,4.44,1.73c5.84,1.62,7.16.23,8.83,2.67s2.74,2.59,2.74,2.59l1.13-2.78L492,214.49s-2.43-2-3.14-2.46-1-1.45-2.28-.93a7.39,7.39,0,0,1-3.15.49c-.74,0-3.36-.45-3.36-.45l-2.28-.93-.51-2-2.08-1.43-1.11-.16-2.82-.7-3.91-.56-4-1-2.28-.93-3.46-.22Z"/></g><g class="cls-19"><path class="cls-3" d="M454.26,207.45l5.94,4.63,2.95,2.53s4,2.21,5.33,2.17a11.56,11.56,0,0,1,3.5.83l2,1.66,2.79,1.14,3.08.4,2.77.08,2.41,1,3.17,1.29,2.91,1.18,1.78.72.45,1.22,1-2.52-8.26-5.61-6.2-.72-5.13-2.09-2.35-2.76-4.15-.32-3.88-1-4.21-2-4.43-1.8Z"/></g><g class="cls-19"><polygon class="cls-3" points="451.78 210.25 454.45 217.13 456.72 220.26 463.94 223.2 459.46 216.06 455.97 213.76 453.12 210.23 452.24 209.13 451.78 210.25"/></g><g class="cls-19"><polygon class="cls-3" points="463.01 216.77 467.84 221.25 468.63 225.1 473.32 227.01 478.77 229.23 482.36 227.67 486.83 227.2 488.73 227.24 485.06 225.74 480.54 225.97 477.04 225.5 473.42 222.41 469.37 220.76 468.21 218.88 466.26 217.5 463.01 216.77"/></g><g class="cls-19"><path class="cls-3" d="M458.4,197.77l6.9,1.18,5.73-1.36,4-1,4.33,2.79,5,2.34,6.23,1.21,4,.43,3.08,2.58,1.42,4.86.09,1.25-.56,1.37-3.48-5.26a36.08,36.08,0,0,0-2.83-2.48c-.38-.15-2.12-1.3-2.91-1.18a14.91,14.91,0,0,1-5-.72c-1.82-.59-5.06-1.47-5.06-1.47l-3-1.83-1.78-.72-4.29,0-2.44.93-2.23,1.11-3.67-1.49-5.3-1.65.78-1.93Z"/></g><g class="cls-19"><polygon class="cls-3" points="466.21 192.49 458.28 194.29 457.69 195.74 462.24 195.79 466.54 195.41 469.35 193.77 466.21 192.49"/></g><path class="cls-6" d="M486.9,232.54a4.85,4.85,0,0,0,1.41.21,3.56,3.56,0,0,0,1.64-.47,3.45,3.45,0,0,0,1.51-1.72l5.68-14.15q.9-2.25,1.89-4.69c.31-.81.69-1.66,1-2.48a3.28,3.28,0,0,0-.29-2.54,3.54,3.54,0,0,0-2.09-1.66l-2.77-1.12-5.76-2.34-25.67-10.42a3.31,3.31,0,0,0-3.22.4,3.21,3.21,0,0,0-1.05,1.29c-.23.56-.46,1.11-.68,1.66-.91,2.21-1.8,4.4-2.67,6.54l-5.05,12.37a4.52,4.52,0,0,0-.43,1.45,3.52,3.52,0,0,0,.2,1.44,3.35,3.35,0,0,0,2,2l5.43,2.22,9.74,4,14.1,5.83,3.82,1.61,1,.43.33.16a2,2,0,0,1-.35-.11l-1-.39-3.86-1.51-14.16-5.68-9.76-3.94-5.44-2.2a3.84,3.84,0,0,1-2.24-2.24,4,4,0,0,1-.23-1.64,4.94,4.94,0,0,1,.45-1.59c1.6-3.94,3.28-8.09,5-12.38l2.66-6.55c.23-.55.44-1.1.69-1.67a3.75,3.75,0,0,1,1.21-1.5,3.86,3.86,0,0,1,3.73-.46l25.65,10.46,5.76,2.35,2.75,1.13a4.05,4.05,0,0,1,2.31,1.87,3.78,3.78,0,0,1,.32,2.86c-.32.91-.68,1.69-1,2.52l-1.92,4.67c-2.45,5.94-4.44,10.74-5.83,14.1a3.65,3.65,0,0,1-3.34,2.22A2.9,2.9,0,0,1,486.9,232.54Z"/></g><g id="Speech_Bubble" data-name="Speech Bubble"><path class="cls-6" d="M607.25,264.55s0-.22,0-.65.12-1.08.21-1.91c0-.42.12-.88.14-1.4s0-1.09,0-1.71,0-1.27,0-2-.12-1.46-.19-2.26a36.7,36.7,0,0,0-3-11.19,36.13,36.13,0,0,0-9-12.32l-1.63-1.42c-.58-.44-1.19-.85-1.79-1.29a35.75,35.75,0,0,0-3.89-2.39,36.3,36.3,0,0,0-9.08-3.29,37.7,37.7,0,0,0-5-.79c-.86-.09-1.73,0-2.61-.09l-1.32,0c-.44,0-.88.06-1.33.09a35.08,35.08,0,0,0-10.69,2.36,36.54,36.54,0,0,0-17.88,14.77,37,37,0,0,0-5.14,24.3q.12.83.27,1.65l0,.11-.07.09-11.77,16.36-.25-.41,17.38-2.68.16,0,.09.13a36.72,36.72,0,0,0,13.41,12,36.31,36.31,0,0,0,8,3,27.17,27.17,0,0,0,4,.75l2,.25c.66.08,1.32,0,2,.07a36.11,36.11,0,0,0,14.44-2.58,37.4,37.4,0,0,0,10.74-6.61l2.05-1.93,1.75-2a18.54,18.54,0,0,0,1.53-2c.46-.66,1-1.26,1.34-1.92a38.27,38.27,0,0,0,3.39-6.9c.33-1,.63-1.87.89-2.64s.34-1.43.47-2l.3-1.21.11-.41s0,.14-.07.42-.15.69-.26,1.22-.26,1.2-.42,2l-.87,2.66a37.67,37.67,0,0,1-3.34,7c-.36.66-.87,1.27-1.33,1.95a19.56,19.56,0,0,1-1.52,2l-1.76,2-2.06,1.95a37.42,37.42,0,0,1-10.8,6.73,36.62,36.62,0,0,1-14.59,2.65c-.67,0-1.34,0-2-.07l-2-.24a27.81,27.81,0,0,1-4.08-.75,36.55,36.55,0,0,1-21.66-15.2l.24.11-17.38,2.7-.6.09.35-.49c3.82-5.3,7.75-10.78,11.77-16.37l0,.2c-.11-.55-.2-1.11-.28-1.67a37.62,37.62,0,0,1,5.23-24.64,37,37,0,0,1,18.14-14.95,35.05,35.05,0,0,1,10.83-2.36c.45,0,.9-.08,1.35-.1l1.34,0c.88,0,1.77,0,2.64.1a35.86,35.86,0,0,1,18.2,6.6c.61.44,1.22.86,1.81,1.31l1.64,1.44a36.3,36.3,0,0,1,12,23.76c.06.81.12,1.56.17,2.27s0,1.38,0,2,0,1.18-.05,1.71-.11,1-.16,1.4c-.11.83-.19,1.46-.25,1.91S607.25,264.55,607.25,264.55Z"/><polygon class="cls-7" points="583.05 244.25 587.44 277.5 554.93 277.5 559.66 244.25 583.05 244.25"/><path class="cls-3" d="M562.3,249.08a15.55,15.55,0,0,0,1.66,3.14,8.66,8.66,0,0,0,2.83,2.5,10.26,10.26,0,0,0,9,.09,7.71,7.71,0,0,0,2.8-2.52,14,14,0,0,0,1.49-3.21,2.31,2.31,0,0,1-.13,1,8.94,8.94,0,0,1-1.06,2.44,7.78,7.78,0,0,1-2.87,2.75,9.71,9.71,0,0,1-4.73,1.08,9.41,9.41,0,0,1-4.71-1.18,8.68,8.68,0,0,1-2.9-2.71,9.28,9.28,0,0,1-1.17-2.39A2.47,2.47,0,0,1,562.3,249.08Z"/></g></g></svg>