<svg xmlns="http://www.w3.org/2000/svg" viewBox="0 0 700.07 412.33"><defs><style>.cls-1{fill:#f5f5f5;}.cls-2{fill:#ebebeb;}.cls-3{fill:#fafafa;}.cls-4{fill:#e0e0e0;}.cls-5{fill:#263238;}.cls-6{fill:#e8505b;}.cls-7{fill:#fff;}.cls-8{opacity:0.6;}.cls-9{opacity:0.4;}.cls-10{fill:#ffbe9d;}.cls-11{opacity:0.2;}.cls-12{fill:#455a64;}.cls-13{opacity:0.3;}.cls-14{fill:#eb996e;}</style></defs><title>Asset 1</title><g id="Layer_2" data-name="Layer 2"><g id="Background_Complete" data-name="Background Complete"><rect class="cls-1" x="61.02" y="198" width="104.15" height="80.33" transform="translate(226.19 476.33) rotate(180)"/><path class="cls-2" d="M87.12,277.76c.14,0,.26-17.9.26-40s-.12-40-.26-40-.26,17.9-.26,40S87,277.76,87.12,277.76Z"/><rect class="cls-3" x="69.85" y="260.04" width="7.98" height="9.03" transform="translate(147.69 529.12) rotate(180)"/><rect class="cls-2" x="121.57" y="198.2" width="11.83" height="17.14"/><rect class="cls-2" x="121.57" y="260.95" width="11.83" height="17.14"/><rect class="cls-2" x="32.93" y="279.46" width="171.94" height="132.61"/><path class="cls-4" d="M161.79,411.14c-.19,0-.34-29.56-.34-66s.15-66,.34-66,.34,29.55.34,66S162,411.14,161.79,411.14Z"/><rect class="cls-3" x="177.1" y="381.89" width="13.18" height="14.9"/><rect class="cls-4" x="85.38" y="279.8" width="19.53" height="28.3"/><rect class="cls-4" x="85.38" y="383.38" width="19.53" height="28.3"/><path class="cls-2" d="M339.2,45.86a12.15,12.15,0,0,1-5,0,12.15,12.15,0,0,1,5,0Z"/><path class="cls-2" d="M349.2,45.86a12.15,12.15,0,0,1-5,0,12.15,12.15,0,0,1,5,0Z"/><path class="cls-2" d="M359.2,45.86a12.15,12.15,0,0,1-5,0,12.15,12.15,0,0,1,5,0Z"/><path class="cls-2" d="M369.2,45.86a12.15,12.15,0,0,1-5,0,12.15,12.15,0,0,1,5,0Z"/><path class="cls-2" d="M379.2,45.86a12.15,12.15,0,0,1-5,0,12.15,12.15,0,0,1,5,0Z"/><path class="cls-2" d="M389.2,45.86a12.15,12.15,0,0,1-5,0,12.15,12.15,0,0,1,5,0Z"/><path class="cls-2" d="M399.2,45.86a12.15,12.15,0,0,1-5,0,12.15,12.15,0,0,1,5,0Z"/><path class="cls-2" d="M409.2,45.86a12.15,12.15,0,0,1-5,0,12.15,12.15,0,0,1,5,0Z"/><path class="cls-2" d="M419.2,45.86a12.15,12.15,0,0,1-5,0,12.15,12.15,0,0,1,5,0Z"/><path class="cls-2" d="M429.2,45.86a12.15,12.15,0,0,1-5,0,12.15,12.15,0,0,1,5,0Z"/><path class="cls-2" d="M439.2,45.86a12.15,12.15,0,0,1-5,0,12.15,12.15,0,0,1,5,0Z"/><path class="cls-2" d="M449.2,45.86a12.15,12.15,0,0,1-5,0,12.15,12.15,0,0,1,5,0Z"/><path class="cls-2" d="M459.2,45.86a12.15,12.15,0,0,1-5,0,12.15,12.15,0,0,1,5,0Z"/><path class="cls-2" d="M469.2,45.86a12.15,12.15,0,0,1-5,0,12.15,12.15,0,0,1,5,0Z"/><path class="cls-2" d="M479.2,45.86a12.15,12.15,0,0,1-5,0,12.15,12.15,0,0,1,5,0Z"/><path class="cls-2" d="M489.2,45.86a12.15,12.15,0,0,1-5,0,12.15,12.15,0,0,1,5,0Z"/><path class="cls-2" d="M499.2,45.86a12.15,12.15,0,0,1-5,0,12.15,12.15,0,0,1,5,0Z"/><path class="cls-2" d="M509.2,45.86a12.15,12.15,0,0,1-5,0,12.15,12.15,0,0,1,5,0Z"/><path class="cls-2" d="M519.2,45.86a12.15,12.15,0,0,1-5,0,12.15,12.15,0,0,1,5,0Z"/><path class="cls-2" d="M529.2,45.86a12.15,12.15,0,0,1-5,0,12.15,12.15,0,0,1,5,0Z"/><path class="cls-2" d="M539.2,45.86a12.15,12.15,0,0,1-5,0,12.15,12.15,0,0,1,5,0Z"/><path class="cls-2" d="M549.2,45.86a12.15,12.15,0,0,1-5,0,12.15,12.15,0,0,1,5,0Z"/><path class="cls-2" d="M559.2,45.86a12.15,12.15,0,0,1-5,0,12.15,12.15,0,0,1,5,0Z"/><path class="cls-2" d="M561.76,53.29a6.07,6.07,0,0,1-.26-2.5,6.11,6.11,0,0,1,.26-2.5,6.31,6.31,0,0,1,.26,2.5A6.27,6.27,0,0,1,561.76,53.29Z"/><path class="cls-2" d="M561.76,63.29a6.07,6.07,0,0,1-.26-2.5,6.11,6.11,0,0,1,.26-2.5,6.31,6.31,0,0,1,.26,2.5A6.27,6.27,0,0,1,561.76,63.29Z"/><path class="cls-2" d="M561.76,73.29a6.07,6.07,0,0,1-.26-2.5,6.11,6.11,0,0,1,.26-2.5,6.31,6.31,0,0,1,.26,2.5A6.27,6.27,0,0,1,561.76,73.29Z"/><path class="cls-2" d="M561.76,83.29a6.07,6.07,0,0,1-.26-2.5,6.11,6.11,0,0,1,.26-2.5,6.31,6.31,0,0,1,.26,2.5A6.27,6.27,0,0,1,561.76,83.29Z"/><path class="cls-2" d="M561.76,93.29a6.07,6.07,0,0,1-.26-2.5,6.11,6.11,0,0,1,.26-2.5,6.31,6.31,0,0,1,.26,2.5A6.27,6.27,0,0,1,561.76,93.29Z"/><path class="cls-2" d="M563.71,101.34c0,.13-.83.23-2,.26h-.25v-.81a6.11,6.11,0,0,1,.26-2.5,6.31,6.31,0,0,1,.26,2.5c0,.19,0,.37,0,.55l-.25-.25A4.64,4.64,0,0,1,563.71,101.34Z"/><path class="cls-2" d="M573.71,101.34a11.71,11.71,0,0,1-5,0,12.15,12.15,0,0,1,5,0Z"/><path class="cls-2" d="M583.71,101.34a11.71,11.71,0,0,1-5,0,12.15,12.15,0,0,1,5,0Z"/><path class="cls-2" d="M593.71,101.34a11.71,11.71,0,0,1-5,0,12.15,12.15,0,0,1,5,0Z"/><path class="cls-2" d="M603.71,101.34a11.71,11.71,0,0,1-5,0,12.15,12.15,0,0,1,5,0Z"/><path class="cls-2" d="M613.71,101.34a11.71,11.71,0,0,1-5,0,12.15,12.15,0,0,1,5,0Z"/><path class="cls-2" d="M623.71,101.34a11.71,11.71,0,0,1-5,0,12.15,12.15,0,0,1,5,0Z"/><path class="cls-2" d="M633.71,101.34a11.71,11.71,0,0,1-5,0,12.15,12.15,0,0,1,5,0Z"/><path class="cls-2" d="M643.71,101.34a11.71,11.71,0,0,1-5,0,12.15,12.15,0,0,1,5,0Z"/><path class="cls-2" d="M647.6,107.46a6.11,6.11,0,0,1-.26-2.5,6.11,6.11,0,0,1,.26-2.5,6.31,6.31,0,0,1,.26,2.5A6.31,6.31,0,0,1,647.6,107.46Z"/><path class="cls-2" d="M647.6,117.46a6.11,6.11,0,0,1-.26-2.5,6.11,6.11,0,0,1,.26-2.5,6.31,6.31,0,0,1,.26,2.5A6.31,6.31,0,0,1,647.6,117.46Z"/><path class="cls-2" d="M647.6,127.46a6.11,6.11,0,0,1-.26-2.5,6.11,6.11,0,0,1,.26-2.5,12.15,12.15,0,0,1,0,5Z"/><path class="cls-2" d="M647.6,137.46a12.15,12.15,0,0,1,0-5,12.15,12.15,0,0,1,0,5Z"/><path class="cls-2" d="M647.6,147.46a12.15,12.15,0,0,1,0-5,12.15,12.15,0,0,1,0,5Z"/><path class="cls-2" d="M647.6,157.46a12.15,12.15,0,0,1,0-5,12.15,12.15,0,0,1,0,5Z"/><path class="cls-2" d="M647.6,167.46a12.15,12.15,0,0,1,0-5,12.15,12.15,0,0,1,0,5Z"/><path class="cls-2" d="M647.6,177.46a12.15,12.15,0,0,1,0-5,12.15,12.15,0,0,1,0,5Z"/><path class="cls-2" d="M647.6,187.46a12.15,12.15,0,0,1,0-5,12.15,12.15,0,0,1,0,5Z"/><path class="cls-2" d="M647.6,197.46a12.15,12.15,0,0,1,0-5,12.15,12.15,0,0,1,0,5Z"/><path class="cls-2" d="M647.6,207.46a12.15,12.15,0,0,1,0-5,12.15,12.15,0,0,1,0,5Z"/><path class="cls-2" d="M391.67,62.92S383.91,58.62,376.3,77s-10.22,28.8-10.22,28.8-2.08,3.89-4.81,1.67-6.75-8.8-11-7.23c-4.38,1.64-5.46,6.75-4,14s4,23.33,4.2,24.78-.43,3.61-2.53,2.39-14.58-13.08-19.86-6.83,2,25.88,2.79,28,.41,3.13-.6,3.76-4.82-3.76-8.51-7-8.53-6.33-11.27-2.47-2.53,19,13.72,42.33l8.24,10.32,13.14-1.77c27.9-5.5,38.56-16.24,39.27-20.93s-4.93-5.82-9.82-6-10.7.27-11-.88.13-2.1,2.18-3.13,20.93-10.06,21.48-18.23-16.68-8.29-19-8.88-1.31-2.6-.16-3.48,14.16-10.67,20.24-14.91,8.85-8.67,6.84-12.89c-2-4.06-9.41-2.11-12.91-2.42s-2.31-4.54-2.31-4.54,5.38-9.33,12.65-27.82-1.53-20.8-1.53-20.8"/><path class="cls-4" d="M332.9,206.84c5.39-13.56,13-32.23,21.47-52.83S370.5,114.77,376,101.24c2.72-6.75,4.93-12.22,6.46-16l1.76-4.35.47-1.13c.11-.25.18-.38.18-.38s0,.14-.13.4-.25.65-.43,1.14l-1.68,4.39c-1.47,3.81-3.63,9.3-6.33,16.08-5.39,13.56-13,32.23-21.47,52.82S338.66,193.43,333.2,207"/><path class="cls-4" d="M355.55,109.66a4.21,4.21,0,0,1,.41.86c.24.57.55,1.4.94,2.43.76,2,1.75,4.92,2.77,8.1l2.58,8.17c.32,1,.58,1.79.8,2.47a3.74,3.74,0,0,1,.25.92,3.87,3.87,0,0,1-.42-.86c-.23-.57-.55-1.4-.93-2.43-.74-2.06-1.69-4.94-2.71-8.13s-1.93-6-2.64-8.14l-.81-2.47A3.94,3.94,0,0,1,355.55,109.66Z"/><path class="cls-4" d="M364.53,132.75c0-.12,5.77-2.41,13-5.11s13.12-4.81,13.16-4.69-5.78,2.41-13,5.11S364.57,132.87,364.53,132.75Z"/><path class="cls-4" d="M350.09,163.79a3.86,3.86,0,0,1,1-.13l2.64-.21c2.23-.17,5.31-.42,8.69-.82s6.45-.85,8.66-1.2l2.61-.41a3.91,3.91,0,0,1,1-.09,4.16,4.16,0,0,1-.93.27c-.61.14-1.5.33-2.6.55-2.2.42-5.26.94-8.65,1.33s-6.49.6-8.73.69c-1.12,0-2,.07-2.65.06A4.45,4.45,0,0,1,350.09,163.79Z"/><path class="cls-4" d="M337.37,144.69s.23.23.58.69.84,1.14,1.44,2c1.21,1.69,2.84,4,4.62,6.63s3.38,5,4.51,6.71c.57.86,1,1.57,1.33,2.06a3.22,3.22,0,0,1,.43.79,3.71,3.71,0,0,1-.58-.69c-.35-.46-.84-1.14-1.44-2-1.2-1.69-2.84-4-4.62-6.63s-3.38-5-4.51-6.71c-.57-.86-1-1.57-1.32-2.06A3.56,3.56,0,0,1,337.37,144.69Z"/><path class="cls-4" d="M321.15,170.47a6,6,0,0,1,.73.9l1.85,2.53c1.56,2.15,3.67,5.13,6,8.45s4.39,6.33,5.88,8.53l1.74,2.61a5.37,5.37,0,0,1,.58,1,6.23,6.23,0,0,1-.73-.89l-1.85-2.53c-1.56-2.15-3.67-5.14-6-8.45s-4.39-6.33-5.88-8.53c-.69-1.05-1.28-1.92-1.74-2.61A5.21,5.21,0,0,1,321.15,170.47Z"/><path class="cls-4" d="M337.69,193.8a6.47,6.47,0,0,1,1.22-.2l3.34-.37c2.82-.33,6.71-.78,11-1.4s8.15-1.28,10.95-1.77l3.31-.58a6.77,6.77,0,0,1,1.22-.16,5.85,5.85,0,0,1-1.19.33c-.77.19-1.89.44-3.28.72-2.79.58-6.65,1.29-10.94,1.9s-8.2,1-11,1.27c-1.42.12-2.56.2-3.36.24A6.79,6.79,0,0,1,337.69,193.8Z"/><path class="cls-1" d="M682.73,231.93a35.13,35.13,0,1,0-65.42,17.75h0l.1.13c1.35,2.27,3,3.89,4.74,6.28l20.4,27a6.34,6.34,0,0,0,10.13,0l20.06-26.57a74.11,74.11,0,0,0,5.1-6.77l.08-.09h0A34.85,34.85,0,0,0,682.73,231.93Zm-35.13,15.3a15.47,15.47,0,1,1,15.46-15.47A15.47,15.47,0,0,1,647.6,247.23Z"/><path class="cls-1" d="M516.84,75.7V117a1.61,1.61,0,0,0,1.61,1.61h86.64A1.61,1.61,0,0,0,606.7,117l-.2-15.13a1.59,1.59,0,0,0-.32-.94L593.75,84.31a1.59,1.59,0,0,0-1.27-.64l-14.32-.11a1.61,1.61,0,0,1-1.6-1.61V75.7A1.61,1.61,0,0,0,575,74.09h-56.5A1.61,1.61,0,0,0,516.84,75.7Z"/><path class="cls-2" d="M580.59,87.16v13.26a.92.92,0,0,0,.94.92l19.12-.34a.92.92,0,0,0,.75-1.44l-8.94-13.19a1,1,0,0,0-.79-.41l-10.18.28A.92.92,0,0,0,580.59,87.16Z"/><rect class="cls-1" x="515.09" y="119.89" width="93.33" height="2.88"/><circle class="cls-2" cx="536.73" cy="120.99" r="9.23" transform="translate(71.65 414.96) rotate(-45)"/><path class="cls-3" d="M542.16,121a5.44,5.44,0,1,1-5.43-5.43A5.44,5.44,0,0,1,542.16,121Z"/><path class="cls-2" d="M576.49,118.63c-.24,0-.42-10-.42-22.27s.18-22.27.42-22.27.42,10,.42,22.27S576.72,118.63,576.49,118.63Z"/><circle class="cls-2" cx="587.03" cy="120.99" r="9.23" transform="translate(86.38 450.53) rotate(-45)"/><path class="cls-3" d="M592.47,121a5.44,5.44,0,1,1-5.44-5.43A5.45,5.45,0,0,1,592.47,121Z"/><path class="cls-2" d="M587.06,104c0,.23-1.33.42-3,.42s-3-.19-3-.42,1.32-.42,3-.42S587.06,103.73,587.06,104Z"/></g><g id="Floor"><path class="cls-5" d="M700.07,412.07c0,.15-156.73.26-350,.26s-350-.11-350-.26,156.7-.26,350.05-.26S700.07,411.93,700.07,412.07Z"/></g><g id="Plant"><path class="cls-6" d="M139.8,407.67c13.47-9.34,16.58-26.76,16.11-42.44-.08-2.61.22-5.37-1-7.67s-4.13-3.87-6.48-2.78c-1.95.91-2.8,3.16-3.89,5a15.38,15.38,0,0,1-6.16,5.84c-1.67.85-3.73,1.38-5.37.46-2.25-1.25-2.51-4.37-2.48-7q.08-7.27.14-14.54a24.13,24.13,0,0,0-.76-7.73c-.8-2.47-2.58-4.77-5-5.48s-5.54.72-6.07,3.26a23.3,23.3,0,0,0-.08,3.24,2.76,2.76,0,0,1-1.61,2.57c-1,.3-2.08-.44-2.86-1.2-2.67-2.64-4.48-6-6.17-9.4s-3.33-6.82-5.76-9.69-5.79-5.16-9.51-5.38-7.71,2.06-8.66,5.71,1.17,7.4,3.49,10.37a58,58,0,0,0,12,11.57,4.8,4.8,0,0,1,2,2.18c.56,1.74-1.09,3.45-2.8,4-1.94.64-4.05.43-6.08.66s-4.23,1.12-5,3c-1.07,2.66,1.14,5.45,3.32,7.28a49.48,49.48,0,0,0,14.69,8.55,16.86,16.86,0,0,1,5.46,2.68c1.54,1.35,2.46,3.69,1.53,5.52s-3.34,2.41-5.34,2-3.79-1.47-5.7-2.2c-3.57-1.36-8.19-1.13-10.49,1.95a8.25,8.25,0,0,0-.9,7.28,19,19,0,0,0,3.92,6.44,50,50,0,0,0,21.3,15.08c8.29,2.91,16,3.71,24.22.73"/><path class="cls-5" d="M138.91,412.08c-.55-6.21-.83-6.34-3.12-14.25a234.25,234.25,0,0,0-9.17-25.13q-1.38-3.27-2.74-6.46c-.9-2.12-1.8-4.22-2.8-6.22a115.7,115.7,0,0,0-6.43-11.17c-2.22-3.45-4.45-6.65-6.55-9.63s-4.14-5.7-6.09-8.11a92.09,92.09,0,0,0-10-10.68c-1.28-1.17-2.31-2-3-2.62l-.8-.65c-.18-.15-.27-.22-.28-.21a2.18,2.18,0,0,0,.25.25l.77.69c.68.6,1.68,1.49,2.94,2.68a97.92,97.92,0,0,1,9.9,10.76c1.93,2.41,3.93,5.15,6,8.13s4.31,6.18,6.51,9.63a117.43,117.43,0,0,1,6.38,11.14c1,2,1.88,4.08,2.79,6.2l2.73,6.46A239,239,0,0,1,135.37,398c2.31,7.88,2.62,8,3.2,14.15"/><path class="cls-5" d="M120.94,360a5.6,5.6,0,0,0,.26-1.11c.14-.72.31-1.76.49-3.06.38-2.59.78-6.18,1.2-10.14s.88-7.54,1.29-10.12c.21-1.29.38-2.33.51-3.05a5.15,5.15,0,0,0,.15-1.13,5.4,5.4,0,0,0-.33,1.09c-.19.71-.41,1.75-.66,3-.5,2.57-1,6.16-1.43,10.13s-.78,7.45-1.06,10.15c-.14,1.22-.25,2.25-.34,3.07A5.71,5.71,0,0,0,120.94,360Z"/><path class="cls-5" d="M87.52,353.63a6.67,6.67,0,0,0,1.33.17c.86.08,2.1.18,3.63.37,3.06.34,7.28,1,11.9,1.85s8.76,1.88,11.74,2.68c1.49.39,2.69.74,3.52,1a8.15,8.15,0,0,0,1.3.32,7,7,0,0,0-1.25-.5c-.81-.3-2-.69-3.48-1.13-3-.89-7.11-1.93-11.74-2.83a116.6,116.6,0,0,0-12-1.71c-1.54-.14-2.79-.2-3.66-.22A7.34,7.34,0,0,0,87.52,353.63Z"/><path class="cls-5" d="M135.38,397.22a2.1,2.1,0,0,0,.23-.41l.58-1.21c.49-1.05,1.17-2.59,2-4.5,1.63-3.83,3.71-9.18,5.93-15.12s4.24-11.31,5.79-15.17c.76-1.87,1.38-3.41,1.84-4.56.2-.5.36-.91.5-1.24a2.62,2.62,0,0,0,.14-.45s-.1.13-.23.41-.35.72-.58,1.2c-.49,1.06-1.17,2.6-2,4.51-1.63,3.82-3.71,9.18-5.93,15.12s-4.24,11.31-5.79,15.17L136,395.52l-.5,1.25A2.62,2.62,0,0,0,135.38,397.22Z"/><path class="cls-5" d="M91,382.74a1.89,1.89,0,0,0,.44.18l1.29.44,4.75,1.56c4,1.31,9.54,3.2,15.64,5.29s11.64,3.92,15.69,5.15c2,.62,3.66,1.1,4.8,1.42l1.31.35a2.64,2.64,0,0,0,.47.09,1.85,1.85,0,0,0-.44-.19l-1.29-.43L128.9,395c-4-1.32-9.54-3.2-15.64-5.29s-11.65-3.93-15.69-5.16c-2-.62-3.66-1.1-4.8-1.41l-1.31-.35A1.43,1.43,0,0,0,91,382.74Z"/></g><g id="Device"><path class="cls-5" d="M302.18,412.07H163c-16.82-.07-31-14.41-31-31.23l1.48-350.51A30.45,30.45,0,0,1,164.13,0L303.94.65a30.45,30.45,0,0,1,30.32,30.58l-1.48,350.52A30.46,30.46,0,0,1,302.18,412.07Z"/><path class="cls-1" d="M303.74,14l-27.1-.13A6.72,6.72,0,0,0,270,20.69l0,4.92a6.72,6.72,0,0,1-6.61,6.85l-52.84-.25A6.74,6.74,0,0,1,204,25.3l0-4.91a6.75,6.75,0,0,0-6.55-6.92l-9.54,0-23.72-.11a21.34,21.34,0,0,0-21.43,21.24l-1.44,342.13a21.33,21.33,0,0,0,21.23,21.42l139.53.64a21.33,21.33,0,0,0,21.43-21.24L325,35.38A21.32,21.32,0,0,0,303.74,14Z"/><path class="cls-1" d="M244.52,334.1c-.16,4.13-.31,8-.43,11.23h20L261.68,333Z"/><path class="cls-1" d="M163.07,339.25l.17,6.08h78.85c.13-3.42.28-7.2.43-11.1Z"/><polygon class="cls-1" points="262.68 332.95 265.15 345.33 302.1 345.33 301.66 330.49 262.68 332.95"/><polygon class="cls-1" points="246.53 159.96 253.51 119.45 235.21 118.09 235.21 159.96 246.53 159.96"/><polygon class="cls-1" points="161.42 316.76 141.56 324.54 141.5 338.61 162.01 337.31 161.42 316.76"/><polygon class="cls-1" points="161.33 313.6 160.24 275.87 160.22 275.87 160.22 262.56 141.81 264.51 141.57 321.32 161.32 313.58 161.33 313.6"/><polygon class="cls-1" points="160.22 232.86 141.95 230.44 141.82 261.5 160.22 259.55 160.22 232.86"/><polygon class="cls-1" points="296.41 263.12 295.64 273.94 274.06 276.26 275.73 284.82 300.23 282.97 299.86 270.7 301.82 262.58 296.41 263.12"/><polygon class="cls-1" points="257.52 286.19 274.73 284.89 270.98 265.69 255.96 267.21 257.52 286.19"/><polygon class="cls-1" points="257.68 288.19 259 304.2 261.33 326.16 262.29 330.97 301.6 328.49 300.29 284.97 257.68 288.19"/><path class="cls-1" d="M190,212.58l1.51,2.59-30.31,17.69V274.8l32-2.27,61.66-6.22-2.26-27.49-58.9-7.7.39-3,58.26,7.61-3.82-46.53-57.67,5.55-.19-2,57.7-5.54-2-24.28H190.92l-48.72,8.86-.23,55.6,18.44,2.44Zm-25.7,58.21s.23-34.58,0-35.87l24.74-13.16,3.2,47.27Z"/><polygon class="cls-1" points="294.39 263.33 271.98 265.59 273.68 274.29 293.76 272.13 294.39 263.33"/><path class="cls-1" d="M244.81,326.69q-.1,2.73-.21,5.4l16.68-1-.86-4.31Z"/><polygon class="cls-1" points="208.88 159.96 211.82 146.64 234.21 146.64 234.21 118.02 164.19 112.83 164.19 139.7 142.32 144.65 142.22 168.77 190.65 159.96 208.88 159.96"/><path class="cls-1" d="M255.6,80.33,255,77.88,281.75,67.3l-17.4-34.92a6,6,0,0,1-1,.08l-29.55-.14.81,48.87Z"/><path class="cls-1" d="M296.13,61.6l0-47.67-19.46-.09A6.72,6.72,0,0,0,270,20.69l0,4.92a7,7,0,0,1-2.86,5.64l17.41,34.94Z"/><path class="cls-1" d="M195.61,63.65l-2.26-50.19-5.42,0-21.14-.1-9,44.89Zm-4.83-45.11.73,40.88-28.12-4.11,6.16-36.77Z"/><path class="cls-1" d="M196.63,63.8v.42c.05,3.92.13,11,.19,18.51l36.83-1.5-.81-48.91-22.29-.11A6.74,6.74,0,0,1,204,25.3l0-4.91a6.75,6.75,0,0,0-6.55-6.92h-3.12l2.26,50.33Z"/><path class="cls-1" d="M154.8,57.79l8.92-44.45a21.33,21.33,0,0,0-20.94,21.22l-.09,22.16.09-.65Z"/><polygon class="cls-1" points="161.19 112.61 142.46 111.22 142.33 141.57 161.19 137.31 161.19 112.61"/><polygon class="cls-1" points="154.6 58.77 142.69 57.06 142.48 106.21 145.04 106.4 154.6 58.77"/><polygon class="cls-1" points="192.44 313.02 192.75 273.57 161.24 275.8 162.35 314.45 192.44 313.02"/><path class="cls-1" d="M198.23,303.92l44.63,21.38c.53-14,1-27,1-27.87l1-.05.47-.94c.64.31.64.31.3,9.84-.18,5.31-.45,12.38-.71,19.46h15.43L258,304.29l-3-37-58.3,5.88Z"/><polygon class="cls-1" points="307.62 238.44 307.12 233.23 253.63 238.8 255.88 266.21 302.06 261.55 307.62 238.44"/><polygon class="cls-1" points="234.21 149.64 214.23 149.64 211.95 159.96 234.21 159.96 234.21 149.64"/><path class="cls-1" d="M299.36,153.12l-50-3.46-2,11.82,2.1,25.66,52.78-5.07Zm-48.2,8.34,2.68-7.46,43.47,2.75,2.52,21.34-47.2,5.6Z"/><polygon class="cls-1" points="304.56 206.75 302.36 184.06 249.55 189.13 251.53 213.29 304.56 206.75"/><polygon class="cls-1" points="162.07 339.31 141.58 340.61 141.49 339.28 141.47 345.33 162.24 345.33 162.07 339.31"/><path class="cls-1" d="M324.61,50.33l.3.77L325,35.38A21.33,21.33,0,0,0,303.74,14l-6.64,0,0,47.28Z"/><path class="cls-1" d="M242.82,326.39l-45.56-21.83-1.6-31.27-1.91.19-.32,40.5-31.05,1.47,0,.9v0h0l.6,20.88,79.59-5C242.67,330.28,242.74,328.33,242.82,326.39ZM164.33,318l43.46-3,28.27,13.11L164.33,332Z"/><path class="cls-1" d="M311.66,102.84l1.86-11c-16.33-5.83-17.46-22.87-17.42-28L285.44,68l16.06,32.23Z"/><polygon class="cls-1" points="253.38 235.81 275.59 233.5 271.21 213.88 251.78 216.28 253.38 235.81"/><polygon class="cls-1" points="299.44 119.78 257.96 119.78 254.51 119.52 249.83 146.69 299.07 150.09 297.93 138.28 302.77 120.84 299.44 119.78"/><path class="cls-1" d="M298.43,114.78l.51-13-16.3-32.73-25.28,10,8.69,35.68ZM281.66,73.07l14.94,28.42-2.16,8.86-25.56-1-6.4-26.88Z"/><polygon class="cls-1" points="304.88 271.22 305.64 296.69 323.62 295.68 323.67 296.68 305.67 297.69 306.59 328.17 323.58 327.1 323.71 329.09 306.65 330.17 307.1 345.33 323.66 345.33 324.02 260.34 307.09 262.05 304.88 271.22"/><path class="cls-1" d="M195.64,64.66,157.58,59.2l-9.52,47.42,47.74,3.54C196,102.86,195.83,80.46,195.64,64.66Z"/><polygon class="cls-1" points="258.24 114.78 263.99 114.78 255.84 81.32 234.66 82.19 235.17 113.08 258.24 114.78"/><path class="cls-1" d="M141.37,369.67l0,7c0,.21,0,.42,0,.64Z"/><path class="cls-1" d="M196.78,110.23,234.17,113l-.51-30.77-36.83,1.5C196.9,94.14,196.94,105.24,196.78,110.23Z"/><polygon class="cls-1" points="304.84 209.74 272.21 213.76 276.59 233.39 306.83 230.25 304.84 209.74"/><path class="cls-1" d="M313.69,90.78l2.09-12.4,9,.7.11-26.71-27.78,11C296.55,82.16,308.36,88.77,313.69,90.78Z"/><polygon class="cls-1" points="302.99 138.72 304.13 150.44 324.48 151.85 324.58 127.72 307.54 122.34 302.99 138.72"/><path class="cls-1" d="M312.68,238.79,307.33,261l16.7-1.69.1-23.31c-5.13-1.35-9.6-2.44-12-2.91Z"/><polygon class="cls-1" points="301.41 115.16 324.61 122.49 324.66 109.3 301.88 103.41 301.41 115.16"/><path class="cls-1" d="M311.83,230.06c1.87.28,5.42,1,12.31,2.85l.21-51-17,1.64Z"/><polygon class="cls-1" points="307.14 181.59 324.36 179.93 324.47 154.86 304.42 153.47 307.14 181.59"/><path class="cls-1" d="M315.61,91.42c3.27,1,6.3,1.76,9.12,2.32l0-12.65-7.33-.58Z"/><path class="cls-1" d="M313.6,103.34l11.07,2.86.05-11.43c-2.86-.58-6-1.35-9.27-2.36Z"/><path class="cls-7" d="M162.07,339.32l.17,6h1l-.17-6.08,79.45-5c-.15,3.9-.3,7.68-.43,11.1h2c.12-3.22.27-7.1.43-11.23L261.68,333l2.45,12.32h1L262.68,333l39-2.46.44,14.84h5l-.45-15.16,17.06-1.08-.13-2-17,1.08-.92-30.48,18-1-.05-1-18,1-.76-25.47,2.21-9.17L324,260.34v-1L307.33,261l5.35-22.23-.55-5.68c2.4.47,6.87,1.56,12,2.91v-3.11c-6.89-1.82-10.44-2.57-12.31-2.85l-4.5-46.48,17-1.64v-2l-17.22,1.66-2.72-28.12,20.05,1.39v-3l-20.35-1.41L303,138.73l4.55-16.39,17,5.38,0-5.23-23.2-7.33.47-11.75,22.78,5.89v-3.1l-11.07-2.86,1.85-10.93c3.32,1,6.41,1.78,9.27,2.36v-1c-2.82-.56-5.85-1.33-9.12-2.32l1.84-10.91,7.33.58v-2l-9-.7-2.09,12.4c-5.33-2-17.14-8.62-16.57-27.42l27.78-11V51.1l-.3-.77L297.13,61.21l0-47.28h-1l0,47.67-11.58,4.59L267.14,31.25a6.25,6.25,0,0,1-2.79,1.13l17.4,34.92L255,77.88l.59,2.45-20.95.86-.81-48.87h-1l.81,48.91-36.83,1.5c-.06-7.54-.14-14.59-.19-18.51V63.8h0l-2.26-50.33h-1l2.26,50.19-37.83-5.43,9-44.89h-2.58l-.49,0L154.8,57.79l-12-1.72-.09.65v.34l11.91,1.71L145,106.4l-2.56-.19,0,5,18.73,1.39V137.3l-18.86,4.27v3.08l21.87-5V112.83l70,5.19v28.62H211.82L208.88,160H190.65l-48.44,8.81v3L190.92,163H246.4l2,24.28-57.7,5.54.19,2,57.67-5.55,3.82,46.53-58.26-7.61-.39,3,58.9,7.7,2.26,27.49-61.66,6.22-32,2.27V232.86l30.31-17.69L190,212.58l-29.62,17.28L142,227.42l0,3,18.28,2.41v26.69l-18.41,1.95v3l18.42-1.95v13.31h0l1.09,37.73v0l-19.75,7.74v3.22l19.86-7.78.59,20.55-20.51,1.3v.67l.09,1.33Zm82.53-7.23q.1-2.67.21-5.4l15.61,0,.86,4.31ZM262.29,331l-1-4.81-2.33-22-1.32-16L300.29,285l1.31,43.52ZM272,265.59l22.41-2.26-.62,8.8-20.09,2.16Zm-1,.1,3.75,19.21-17.21,1.29-1.56-19ZM300.23,283l-24.5,1.85-1.67-8.56,21.58-2.32.77-10.82,5.41-.54-2,8.12Zm-29-69.09,4.38,19.62-22.21,2.31-1.6-19.53Zm5.38,19.51-4.38-19.63,32.63-4,2,20.51Zm22.48-83.3-49.24-3.4,4.69-27.17,3.44.26h41.48l3.33,1.06-4.84,17.44Zm-3-86.33c0,5.16,1.09,22.2,17.42,28l-1.86,11-10.16-2.63L285.44,68Zm-13.46,5.33,16.3,32.73-.51,13H266.05L257.36,79.1Zm-26.8,12.23L264,114.78h-5.75l-23.07-1.7-.51-30.89Zm-22.18.91.51,30.77-37.39-2.77c.16-5,.12-16.09.05-26.5Zm-76.08-23,38.06,5.46c.19,15.8.36,38.2.16,45.5l-47.74-3.54Zm95.93,60.25-7,40.51H235.21V118.09Zm-39.28,30.19h20V160H212Zm33.05,11.84,2-11.82,50,3.46,2.8,28.95-52.78,5.07Zm55.08,22.58,2.19,22.69-53,6.54-2-24.16ZM253.63,238.8l53.49-5.57.5,5.21-5.56,23.11-46.18,4.66ZM258,304.29l2.28,21.45H244.85c.26-7.08.53-14.15.71-19.46.34-9.53.34-9.53-.3-9.84l-.47.94-1,.05c.05.83-.43,13.9-1,27.87l-44.63-21.38-1.57-30.73,58.3-5.88Zm-65.25-30.72L192.44,313l-30.09,1.42-1.11-38.65Zm-30.34,42.8h0v0l0-.9L193.43,314l.32-40.5,1.91-.19,1.6,31.27,45.56,21.83c-.08,1.94-.15,3.89-.22,5.83l-79.59,5Z"/><polygon class="cls-2" points="207.79 314.98 164.33 318.02 164.33 331.98 236.06 328.09 207.79 314.98"/><polygon class="cls-2" points="297.31 156.75 253.84 154 251.16 161.46 252.63 183.69 299.83 178.09 297.31 156.75"/><path class="cls-2" d="M162.57,398.11l139.53.64a21.33,21.33,0,0,0,21.43-21.24l.13-32.18H141.47l-.1,24.34v7.66A21.32,21.32,0,0,0,162.57,398.11Z"/><polygon class="cls-2" points="191.5 59.42 190.78 18.54 169.55 18.54 163.39 55.31 191.5 59.42"/><polygon class="cls-2" points="294.44 110.35 296.6 101.49 281.66 73.07 262.49 82.51 268.88 109.39 294.44 110.35"/><path class="cls-2" d="M164.33,234.92c.23,1.29,0,35.87,0,35.87L192.27,269l-3.2-47.27Z"/><polygon class="cls-2" points="257.52 263 256.05 241.57 303.97 235.41 303.97 239.11 298.18 258.82 257.52 263"/><path class="cls-6" d="M222.07,85.27a5.84,5.84,0,1,1-5.83-5.84A5.84,5.84,0,0,1,222.07,85.27Z"/><g class="cls-8"><path class="cls-7" d="M222.07,85A5.84,5.84,0,1,1,216,79.44,5.84,5.84,0,0,1,222.07,85Z"/></g><circle class="cls-6" cx="216.24" cy="85.07" r="3.88"/><path class="cls-6" d="M306.46,318.42a2.49,2.49,0,1,1-2.49-2.5A2.49,2.49,0,0,1,306.46,318.42Z"/><path class="cls-6" d="M302.47,317.61l-.6-14-42.13,2.05a6.37,6.37,0,0,1-3.18-.68l-59.75-30.18a4.33,4.33,0,0,1-2.38-3.64L186.3,113.44a2.63,2.63,0,0,1,2.83-2.76l25.61,1.89v-28h3V113a2.64,2.64,0,0,1-2.84,2.63l-25.58-1.89L197.43,271a1.3,1.3,0,0,0,.73,1.11l59.75,30.18a3.39,3.39,0,0,0,1.69.36l42.47-2.06a2.63,2.63,0,0,1,2.78,2.53l.62,14.33Z"/><circle class="cls-6" cx="191.19" cy="181.93" r="7.56"/><circle class="cls-3" cx="191.19" cy="181.93" r="5.25"/><path class="cls-6" d="M191.19,187.56a5.63,5.63,0,1,1,5.63-5.63A5.64,5.64,0,0,1,191.19,187.56Zm0-10.5a4.88,4.88,0,1,0,4.88,4.87A4.88,4.88,0,0,0,191.19,177.06Z"/><path class="cls-6" d="M235.73,150.22h-36a3.17,3.17,0,0,0-3.17,3.17v13a3.17,3.17,0,0,0,3.17,3.17h.42v3.11l3.6-3.11h32a3.17,3.17,0,0,0,3.17-3.17v-13A3.17,3.17,0,0,0,235.73,150.22Z"/><g class="cls-9"><path class="cls-7" d="M235.73,150.22h-36a3.17,3.17,0,0,0-3.17,3.17v13a3.17,3.17,0,0,0,3.17,3.17h.42v3.11l3.6-3.11h32a3.17,3.17,0,0,0,3.17-3.17v-13A3.17,3.17,0,0,0,235.73,150.22Z"/></g><path class="cls-7" d="M204.65,159.7a2.17,2.17,0,1,1,2.17,2.08A2.07,2.07,0,0,1,204.65,159.7Zm3.75,0a1.58,1.58,0,1,0-1.58,1.57A1.53,1.53,0,0,0,208.4,159.7Z"/><path class="cls-7" d="M213,160.2a1.5,1.5,0,0,1-1.56,1.57,1.3,1.3,0,0,1-1.1-.52v.49h-.53v-4.32h.56v1.7a1.3,1.3,0,0,1,1.07-.49A1.49,1.49,0,0,1,213,160.2Zm-.56,0a1,1,0,1,0-1,1.08A1,1,0,0,0,212.42,160.2Z"/><path class="cls-7" d="M212.69,162.71l.18-.43a.66.66,0,0,0,.45.15c.3,0,.46-.19.46-.54v-3.23h.56v3.22a.92.92,0,0,1-1,1A1.09,1.09,0,0,1,212.69,162.71Zm1-5a.37.37,0,0,1,.38-.36.36.36,0,0,1,.38.35.38.38,0,0,1-.76,0Z"/><path class="cls-7" d="M218.18,160.38h-2.5a1,1,0,0,0,1.11.9,1.14,1.14,0,0,0,.89-.37l.31.36a1.68,1.68,0,0,1-2.87-1.07,1.51,1.51,0,0,1,1.55-1.57,1.48,1.48,0,0,1,1.52,1.58S218.18,160.33,218.18,160.38Zm-2.5-.4h2a.94.94,0,0,0-1-.88A1,1,0,0,0,215.68,160Z"/><path class="cls-7" d="M218.68,160.2a1.54,1.54,0,0,1,1.62-1.57,1.36,1.36,0,0,1,1.26.65l-.42.28a1,1,0,0,0-.84-.44,1.08,1.08,0,0,0,0,2.16,1,1,0,0,0,.84-.44l.42.27a1.37,1.37,0,0,1-1.26.66A1.54,1.54,0,0,1,218.68,160.2Z"/><path class="cls-7" d="M224.05,161.56a1.05,1.05,0,0,1-.67.21.88.88,0,0,1-1-1v-1.69h-.52v-.46h.52V158H223v.68h.89v.46H223v1.66a.45.45,0,0,0,.48.52.72.72,0,0,0,.44-.14Z"/><path class="cls-7" d="M224.63,157.7a.38.38,0,1,1,.38.36A.36.36,0,0,1,224.63,157.7Zm.1,1h.56v3.08h-.56Z"/><path class="cls-7" d="M229.08,158.66l-1.35,3.08h-.57l-1.35-3.08h.58l1.06,2.47,1.08-2.47Z"/><path class="cls-7" d="M232.29,160.38h-2.5a1,1,0,0,0,1.11.9,1.14,1.14,0,0,0,.89-.37l.31.36a1.68,1.68,0,0,1-2.87-1.07,1.51,1.51,0,0,1,1.54-1.57,1.49,1.49,0,0,1,1.53,1.58S232.29,160.33,232.29,160.38Zm-2.5-.4h2a1,1,0,0,0-2,0Z"/><path class="cls-6" d="M223.84,65.66a7.49,7.49,0,1,0-13.94,3.78h0l0,0c.29.48.65.83,1,1.34l4.34,5.75a1.35,1.35,0,0,0,2.16,0l4.27-5.66a15.94,15.94,0,0,0,1.09-1.44l0,0h0A7.37,7.37,0,0,0,223.84,65.66Zm-7.49,3.26a3.3,3.3,0,1,1,3.3-3.3A3.29,3.29,0,0,1,216.35,68.92Z"/><path class="cls-5" d="M175.38,360.53H174V360h3.37v.51H176v3.56h-.57Z"/><path class="cls-5" d="M177.3,362.55a1.6,1.6,0,1,1,1.6,1.58A1.53,1.53,0,0,1,177.3,362.55Zm2.64,0a1,1,0,1,0-1,1.09A1,1,0,0,0,179.94,362.55Z"/><path class="cls-5" d="M183,363.91a1,1,0,0,1-.68.22.88.88,0,0,1-1-1v-1.69h-.53V361h.53v-.67h.55V361h.89v.46h-.89v1.67a.46.46,0,0,0,.49.52.7.7,0,0,0,.43-.15Z"/><path class="cls-5" d="M186.12,362.23v1.86h-.53v-.4a1.16,1.16,0,0,1-1,.44c-.7,0-1.14-.37-1.14-.91s.32-.9,1.24-.9h.88v-.11c0-.47-.27-.75-.82-.75a1.53,1.53,0,0,0-1,.34l-.23-.42a2,2,0,0,1,1.27-.4C185.65,361,186.12,361.39,186.12,362.23Zm-.56.92v-.43h-.86c-.55,0-.71.22-.71.48s.26.5.68.5A.89.89,0,0,0,185.56,363.15Z"/><path class="cls-5" d="M187.16,359.78h.56v4.31h-.56Z"/><path class="cls-5" d="M193.25,359.78v4.31h-.54v-.49a1.29,1.29,0,0,1-1.09.53,1.58,1.58,0,0,1,0-3.15,1.31,1.31,0,0,1,1.07.5v-1.7Zm-.55,2.77a1,1,0,1,0-1,1.09A1,1,0,0,0,192.7,362.55Z"/><path class="cls-5" d="M194.21,360.06a.37.37,0,0,1,.38-.37.36.36,0,0,1,.37.36.36.36,0,0,1-.37.37A.36.36,0,0,1,194.21,360.06Zm.1.95h.56v3.08h-.56Z"/><path class="cls-5" d="M195.54,363.77l.23-.44a2,2,0,0,0,1.08.32c.52,0,.74-.16.74-.42,0-.69-2-.1-2-1.32,0-.56.49-.93,1.28-.93a2.3,2.3,0,0,1,1.13.28l-.24.44a1.62,1.62,0,0,0-.89-.24c-.49,0-.73.18-.73.42,0,.73,1.95.14,1.95,1.33,0,.56-.51.92-1.33.92A2.25,2.25,0,0,1,195.54,363.77Z"/><path class="cls-5" d="M200.58,363.91a1,1,0,0,1-.68.22.89.89,0,0,1-1-1v-1.69h-.52V361h.52v-.67h.56V361h.89v.46h-.89v1.67a.46.46,0,0,0,.48.52.73.73,0,0,0,.44-.15Z"/><path class="cls-5" d="M203.69,362.23v1.86h-.53v-.4a1.16,1.16,0,0,1-1,.44c-.7,0-1.14-.37-1.14-.91s.32-.9,1.24-.9h.88v-.11c0-.47-.27-.75-.82-.75a1.53,1.53,0,0,0-1,.34l-.23-.42a2,2,0,0,1,1.27-.4A1.15,1.15,0,0,1,203.69,362.23Zm-.56.92v-.43h-.86c-.55,0-.71.22-.71.48s.26.5.68.5A.89.89,0,0,0,203.13,363.15Z"/><path class="cls-5" d="M207.65,362.32v1.77h-.56v-1.71c0-.6-.3-.9-.83-.9a.92.92,0,0,0-1,1v1.58h-.55V361h.53v.47a1.31,1.31,0,0,1,1.11-.5A1.2,1.2,0,0,1,207.65,362.32Z"/><path class="cls-5" d="M208.42,362.55a1.54,1.54,0,0,1,1.63-1.57,1.37,1.37,0,0,1,1.25.66l-.42.27a1,1,0,0,0-.84-.44,1.09,1.09,0,0,0,0,2.17,1,1,0,0,0,.84-.44l.42.26a1.35,1.35,0,0,1-1.25.67A1.55,1.55,0,0,1,208.42,362.55Z"/><path class="cls-5" d="M214.75,362.74h-2.5a1,1,0,0,0,1.11.9,1.14,1.14,0,0,0,.89-.37l.31.36a1.68,1.68,0,0,1-2.87-1.08,1.51,1.51,0,0,1,1.55-1.57,1.48,1.48,0,0,1,1.52,1.59C214.76,362.62,214.75,362.69,214.75,362.74Zm-2.5-.4h2a1,1,0,0,0-2,0Z"/><path class="cls-5" d="M179,368.66v9.71h-2.24v-7.91h-1.95v-1.8Z"/><path class="cls-5" d="M183.35,377.12a3.21,3.21,0,0,1-.38,1.38l-.79,2h-1.37l.61-2.2a1.2,1.2,0,0,1-.75-1.18,1.34,1.34,0,0,1,2.68,0Z"/><path class="cls-5" d="M187.88,368.66v9.71h-2.25v-7.91h-1.94v-1.8Z"/><path class="cls-5" d="M189.57,373.51c0-3.2,1.78-5,4.16-5s4.17,1.82,4.17,5-1.77,5-4.17,5S189.57,376.71,189.57,373.51Zm6.06,0c0-2.2-.77-3.12-1.9-3.12s-1.88.92-1.88,3.12.77,3.12,1.88,3.12S195.63,375.72,195.63,373.51Z"/><path class="cls-5" d="M199,373.51c0-3.2,1.78-5,4.16-5s4.16,1.82,4.16,5-1.76,5-4.16,5S199,376.71,199,373.51Zm6.06,0c0-2.2-.77-3.12-1.9-3.12s-1.89.92-1.89,3.12.78,3.12,1.89,3.12S205.05,375.72,205.05,373.51Z"/><path class="cls-5" d="M225.4,374.09v4.28h-2.16v-3.94c0-1.21-.55-1.77-1.42-1.77s-1.65.63-1.65,2v3.75H218v-3.94c0-1.21-.52-1.77-1.42-1.77s-1.64.63-1.64,2v3.75h-2.16V370.9h2.07v.86a3,3,0,0,1,2.34-1,2.79,2.79,0,0,1,2.46,1.22,3.34,3.34,0,0,1,2.69-1.22C224.12,370.79,225.4,371.82,225.4,374.09Z"/><circle class="cls-6" cx="160.74" cy="367.9" r="8.37" transform="translate(-234.19 440.15) rotate(-76.77)"/><path class="cls-3" d="M157.36,369.42a12.94,12.94,0,0,1,2.15-.13c1.37,0,3.32-.07,5.66-.09l-.17.37-2.13-2.47-.14-.15.13-.17,2.11-2.63.2.42h-.95l-6.86,0,.23-.23c0,2.54-.05,4.68-.09,6.18a14.85,14.85,0,0,1-.14,2.37,14.85,14.85,0,0,1-.14-2.37c0-1.5-.07-3.64-.09-6.18v-.23h.24l6.86,0h1.5l-.34.42-2.13,2.63v-.32l2.1,2.5.31.37h-.49c-2.34,0-4.29-.06-5.66-.09A12.12,12.12,0,0,1,157.36,369.42Z"/><path class="cls-6" d="M296.16,353.61H270.85a4.85,4.85,0,0,0-4.84,4.85v19.92a4.84,4.84,0,0,0,4.84,4.84h.64V388l5.51-4.75h19.16a4.84,4.84,0,0,0,4.84-4.84V358.46A4.85,4.85,0,0,0,296.16,353.61Z"/><path class="cls-3" d="M273.26,362.75V373a.4.4,0,0,0,.4.4h21.42a.41.41,0,0,0,.4-.41l-.05-3.74a.4.4,0,0,0-.08-.23l-3.07-4.11a.39.39,0,0,0-.32-.16l-3.54,0a.39.39,0,0,1-.39-.39v-1.55a.4.4,0,0,0-.4-.4h-14A.4.4,0,0,0,273.26,362.75Z"/><path class="cls-6" d="M289,365.59v3.27a.23.23,0,0,0,.24.23L294,369a.23.23,0,0,0,.18-.36L292,365.39a.25.25,0,0,0-.2-.1l-2.51.07A.23.23,0,0,0,289,365.59Z"/><rect class="cls-3" x="272.83" y="373.68" width="23.07" height="0.71"/><path class="cls-6" d="M280.46,374a2.28,2.28,0,1,1-2.28-2.28A2.28,2.28,0,0,1,280.46,374Z"/><path class="cls-3" d="M279.53,374a1.35,1.35,0,1,1-1.35-1.34A1.35,1.35,0,0,1,279.53,374Z"/><path class="cls-6" d="M288,373.37c-.06,0-.1-2.47-.1-5.51s0-5.51.1-5.51.11,2.47.11,5.51S288.07,373.37,288,373.37Z"/><path class="cls-6" d="M292.9,374a2.28,2.28,0,1,1-2.28-2.28A2.28,2.28,0,0,1,292.9,374Z"/><path class="cls-3" d="M292,374a1.35,1.35,0,1,1-1.34-1.34A1.34,1.34,0,0,1,292,374Z"/><path class="cls-6" d="M290.62,369.74c0,.06-.32.1-.73.1s-.73,0-.73-.1.33-.11.73-.11S290.62,369.68,290.62,369.74Z"/></g><g id="Character"><path class="cls-10" d="M529.27,202s16.14,2.73,17.43,3.07,6.41,2.77,6.67,4.33a46.79,46.79,0,0,1,0,6.15s-.92.75-1.5-.75a15.31,15.31,0,0,1-.49-4.47l-2.86-1.1,1.56,2.77.26,6.49s-2-.18-2.38-1.73a15.31,15.31,0,0,1-.38-3.29l-2.09-1.76,1.56,2.11.53,4.67s-1.52.5-2-.54a16.1,16.1,0,0,1-.52-4.13l-5.88-2.06-3.89,2.17L528,209.83Z"/><path class="cls-6" d="M472.8,162.14c.07.32,19.44,27,19.44,27l38.9,12.1-1.77,14.61-47.68-9.6-16.92-19.41Z"/><g class="cls-11"><path d="M472.8,162.14c.07.32,19.44,27,19.44,27l38.9,12.1-1.77,14.61-47.68-9.6-16.92-19.41Z"/></g><rect class="cls-1" x="322.51" y="198.83" width="85.58" height="15.49" rx="3.05"/><path class="cls-5" d="M405,214.32s.18,0,.5-.07a3,3,0,0,0,2.45-2.63c0-.94,0-2.06,0-3.3s0-2.63,0-4.14c0-.76,0-1.55,0-2.37a2.89,2.89,0,0,0-2.15-2.73,4.59,4.59,0,0,0-1.35-.09h-9.28l-69.61.08a2.78,2.78,0,0,0-2.06.91,2.87,2.87,0,0,0-.73,2.15v8.71a3.82,3.82,0,0,0,.1,1.14,2.82,2.82,0,0,0,2.38,2.05c.36,0,.79,0,1.18,0h18.48l31.3.06,21.1.08,5.73.05,1.49,0,.51,0s-.17,0-.51,0l-1.49,0-5.73,0-21.1.08-31.3.06-18.48,0c-.41,0-.78,0-1.23,0a3.23,3.23,0,0,1-1.24-.4,3.29,3.29,0,0,1-1.59-2,4.74,4.74,0,0,1-.12-1.28v-8.71a3.44,3.44,0,0,1,.86-2.5,3.32,3.32,0,0,1,2.45-1.08l69.61.08h9.28a5.8,5.8,0,0,1,1.43.12,3.06,3.06,0,0,1,1.23.66,3.18,3.18,0,0,1,1.11,2.35c0,.83,0,1.62,0,2.38,0,1.51,0,2.89,0,4.14s0,2.35-.05,3.32a3.09,3.09,0,0,1-1.21,2.09,3,3,0,0,1-1.38.57A1.8,1.8,0,0,1,405,214.32Z"/><circle class="cls-5" cx="618.89" cy="371.42" r="40.89" transform="translate(-17.1 30.11) rotate(-2.75)"/><path class="cls-5" d="M578,370.72v.11A40.88,40.88,0,0,0,659.77,372v-.11Z"/><path class="cls-3" d="M590.19,371a28.7,28.7,0,1,0,29.11-28.29A28.7,28.7,0,0,0,590.19,371Z"/><path class="cls-4" d="M619.3,342.71A28.71,28.71,0,0,0,590.19,371l57.4.83A28.71,28.71,0,0,0,619.3,342.71Z"/><path class="cls-5" d="M601.41,371.17a17.49,17.49,0,1,0,17.73-17.24A17.48,17.48,0,0,0,601.41,371.17Z"/><path class="cls-6" d="M599.48,311.46s41.87-12.66,59.18,32.82l-87.6,27.14Z"/><circle class="cls-5" cx="366.6" cy="371.42" r="40.89" transform="translate(-17.39 18.01) rotate(-2.75)"/><path class="cls-5" d="M325.73,370.72s0,.07,0,.11A40.89,40.89,0,0,0,407.49,372s0-.07,0-.11Z"/><path class="cls-3" d="M337.9,371A28.71,28.71,0,1,0,367,342.71,28.71,28.71,0,0,0,337.9,371Z"/><path class="cls-4" d="M367,342.71A28.71,28.71,0,0,0,337.9,371l57.41.83A28.71,28.71,0,0,0,367,342.71Z"/><path class="cls-5" d="M349.12,371.17a17.49,17.49,0,1,0,17.74-17.24A17.48,17.48,0,0,0,349.12,371.17Z"/><path class="cls-12" d="M424.76,355c-.23.12-21.52-3.29-21.52-3.29h0a13,13,0,0,1-9.71,5.08c-9.19.45-18.19.85-26,1.2A13.18,13.18,0,0,0,355,371.72h0a13.2,13.2,0,0,0,12.67,12.64l45.28,1.78c7.45.29,17.34-4.23,22-10.06h0Z"/><path class="cls-6" d="M313.52,336.91s-1.95-39.85,35.5-48.15v-5.11H480.21v12.18S461,319,467.24,338.27s8.25,21.22,8.25,21.22h74.67a51,51,0,0,0,9.43-28.29c.39-16.9-6.63-45.79-11.87-64.26-4.76-16.8-7.78-30.84-7.78-30.84l22.4-7.47s41.45,54.2,43.14,57.24,7.45,10.16,6.1,25.74-38.6,63.65-48.42,69.07-18.63,5.76-27.43,7.11c-7.64,1.18-64.17.4-79,.17a29,29,0,0,1-14.6-4c-4.42-2.68-7.75-7.12-11.42-14.4L423,354.27Z"/><path class="cls-12" d="M323.56,334.14,307,360a4,4,0,0,0,4.92,5.92,19.21,19.21,0,0,0,5.54-3.76c7.56-7.19,21-26.13,21-26.13Z"/><path class="cls-5" d="M442.05,338.8a1.52,1.52,0,0,1,.1-.38l.33-1.09a27.74,27.74,0,0,0,.86-4.27,30.12,30.12,0,0,0-2.55-15.62,32.72,32.72,0,0,0-6.09-9.15,39.94,39.94,0,0,0-10-7.66,50.83,50.83,0,0,0-13.11-4.88,69.58,69.58,0,0,0-15-1.55,112.86,112.86,0,0,0-15,1.11c-4.84.65-9.49,1.45-13.86,2.45A82.08,82.08,0,0,0,345.43,306a55.67,55.67,0,0,0-12.72,9.71c-1.32,1.36-2.26,2.49-2.9,3.26l-.71.89a2.26,2.26,0,0,1-.25.29,32.9,32.9,0,0,1,3.71-4.58,54.11,54.11,0,0,1,12.69-9.89,81.29,81.29,0,0,1,22.32-8.38c4.39-1,9.05-1.83,13.9-2.49a113.77,113.77,0,0,1,15.12-1.12,68.88,68.88,0,0,1,15.08,1.57,51.23,51.23,0,0,1,13.22,5A40.39,40.39,0,0,1,435,308a33.1,33.1,0,0,1,6.1,9.3,30,30,0,0,1,2.43,15.8,26.31,26.31,0,0,1-1,4.27c-.16.46-.29.81-.38,1.08A2.11,2.11,0,0,1,442.05,338.8Z"/><path class="cls-1" d="M434.49,329.85c-.05,0,.22-.63.5-1.77a13.14,13.14,0,0,0,.15-5,20.55,20.55,0,0,0-2.44-6.94,23.7,23.7,0,0,0-2.42-3.64,21.94,21.94,0,0,0-3.25-3.37,28.54,28.54,0,0,0-7.8-4.56,36.71,36.71,0,0,0-7.16-2,50,50,0,0,0-5-.57,14.75,14.75,0,0,1-1.85-.14,1.68,1.68,0,0,1,.48,0c.31,0,.78,0,1.37,0a37.41,37.41,0,0,1,5.05.41,34.65,34.65,0,0,1,7.27,1.87,28.51,28.51,0,0,1,8,4.61,22.43,22.43,0,0,1,3.32,3.45,24.3,24.3,0,0,1,2.44,3.73,20.1,20.1,0,0,1,2.38,7.12,12.29,12.29,0,0,1-.32,5.06,6.59,6.59,0,0,1-.47,1.29C434.58,329.71,434.51,329.86,434.49,329.85Z"/><g class="cls-9"><path d="M408.8,294.94a52.65,52.65,0,0,1,19.76,8,35,35,0,0,1,13.23,16.44c2.62,6.74,2.22,15.67-.53,21.25l9.27.77c3.12-10.41-.28-23.18-7.78-31.33a46,46,0,0,0-33.95-15.17"/></g><rect class="cls-12" x="316.17" y="213.54" width="98.25" height="70.11" rx="8.58"/><path class="cls-5" d="M414.43,229.18c0,.15-22.09.26-49.34.26s-49.33-.11-49.33-.26,22.08-.26,49.33-.26S414.43,229,414.43,229.18Z"/><path class="cls-5" d="M480.15,288.29c0,.14-29.49.26-65.85.26s-65.86-.12-65.86-.26,29.48-.26,65.86-.26S480.15,288.15,480.15,288.29Z"/><path class="cls-12" d="M480.21,283.65a11.37,11.37,0,0,0,2.37-5.88c.21-3.29-1.29-7.41-4.84-7.41h-45.3a13.29,13.29,0,0,0-13.29,13.29h61.06Z"/><path class="cls-6" d="M539.94,236.1l-7.88-16.43a10.06,10.06,0,0,1,4-12.85l23.55-14a7.91,7.91,0,0,1,4.08-1.13h5.09l2,33.21-7.86,3,5,8.08Z"/><path class="cls-2" d="M568.84,192.85s8.06,1.85,9.08,14.27-7.11,16.3-7.11,16.3Z"/><path class="cls-5" d="M542.69,213.23s-16.3,7.73-18.28,9c-1.38.88-2.57,2.42-1.49,5.13,1.85,4.61,9.47.27,9.47.27L547.55,220s5.83-2.75,3.68-6.2C548.82,210,542.69,213.23,542.69,213.23Z"/><path class="cls-10" d="M519.63,210.42s15.3,2.62,16.6,3,6.41,2.77,6.67,4.33a46.79,46.79,0,0,1,0,6.15s-.92.75-1.5-.75a15.39,15.39,0,0,1-.49-4.48l-2.86-1.1,1.56,2.78.26,6.49s-2-.18-2.38-1.74a15.55,15.55,0,0,1-.39-3.28L535,220l1.56,2.11.52,4.68s-1.52.49-2-.55a16.39,16.39,0,0,1-.51-4.13l-5.88-2-3.9,2.17-6.12-3.36Z"/><path class="cls-5" d="M543.47,189.1c0,6.2-2.85,11.22-6.37,11.22s-6.36-5-6.36-11.22,2.85-11.22,6.36-11.22S543.47,182.91,543.47,189.1Z"/><path class="cls-5" d="M538.15,196.81l3.49,12.12a3.13,3.13,0,0,0,1.63-3.58c-.88-4.15-1.37-7.1-2.33-10.74-.12-.36-2.79,2.2-2.79,2.2"/><g class="cls-9"><path d="M469,343.45c-.35-1-.7-2-1-3.07s-.68-2-.95-3a32,32,0,0,1-.87-4.57c-5.9,24,3.1,40.93,18.57,42.12,22.59,1.74,50.14,3,61.29.08,20.3-5.33,27.76-22.27,29.53-25.06s17.94-32.32,8-60.75-27.16-58.62-27.16-58.62l-16.45,5.48s3,14,7.78,30.84C553,285.41,560,314.3,559.59,331.2a51,51,0,0,1-9.43,28.29H475.49s-1.6-1.6-6.52-16"/></g><path class="cls-6" d="M310.54,330.66l.52-5.7,136.28,15.7A13.46,13.46,0,0,1,459,356.38l-.61,3.45-141-20.49A8,8,0,0,1,310.54,330.66Z"/><g class="cls-8"><path d="M310.54,330.66l.52-5.7,136.28,15.7A13.46,13.46,0,0,1,459,356.38l-.61,3.45-141-20.49A8,8,0,0,1,310.54,330.66Z"/></g><g class="cls-13"><path d="M575.51,368.78s30-33,36.19-58.94a58.24,58.24,0,0,1,9.29.69S603.25,358.76,575.51,368.78Z"/></g><path class="cls-5" d="M611.27,298.22a6.51,6.51,0,0,1,.16.83c.08.55.24,1.36.34,2.41a37.78,37.78,0,0,1-.23,9,45.8,45.8,0,0,1-4,12.68,147.91,147.91,0,0,1-7.94,14.2A189.6,189.6,0,0,1,582.08,361c-2.45,2.89-4.46,5.19-5.86,6.77l-1.63,1.81a5.51,5.51,0,0,1-.59.61,5.6,5.6,0,0,1,.51-.67l1.55-1.88,5.73-6.87A203.82,203.82,0,0,0,599.19,337a150.11,150.11,0,0,0,7.95-14.13,46.06,46.06,0,0,0,4-12.54,39.46,39.46,0,0,0,.4-8.88c-.07-1.05-.2-1.86-.25-2.42A4.81,4.81,0,0,1,611.27,298.22Z"/><path class="cls-5" d="M559.4,368.54a39.59,39.59,0,0,1-4.8-4.34,40.21,40.21,0,0,1-4.44-4.71,40.65,40.65,0,0,1,4.8,4.34A40.09,40.09,0,0,1,559.4,368.54Z"/><path class="cls-5" d="M470.37,367.53a20,20,0,0,1,5.36-7.9c.11.11-1.26,1.75-2.73,3.92S470.51,367.59,470.37,367.53Z"/><path class="cls-5" d="M412.73,386.58a20.14,20.14,0,0,0,4.09-5.2,18.08,18.08,0,0,0,2-6.84,15.91,15.91,0,0,0-7.18-15.05,17.94,17.94,0,0,0-6.58-2.75,20.54,20.54,0,0,0-6.62-.09,2.18,2.18,0,0,1,.45-.13,10.66,10.66,0,0,1,1.31-.26,15.69,15.69,0,0,1,4.92.12,18,18,0,0,1,6.79,2.71,16.13,16.13,0,0,1,7.38,15.49,17.83,17.83,0,0,1-2.16,7,15.89,15.89,0,0,1-3,3.9,11.25,11.25,0,0,1-1,.86A2,2,0,0,1,412.73,386.58Z"/><path class="cls-5" d="M363,376.13a23,23,0,0,1-.49-4.8,23.52,23.52,0,0,1,0-4.84,44.88,44.88,0,0,1,.46,9.64Z"/><path class="cls-5" d="M366.58,376.14a22.93,22.93,0,0,1-.88-4.8,23.28,23.28,0,0,1-.36-4.86,22.35,22.35,0,0,1,.88,4.8A23.28,23.28,0,0,1,366.58,376.14Z"/><path class="cls-5" d="M422.78,283.65c0,.14-16.57.26-37,.26s-37-.12-37-.26,16.56-.26,37-.26S422.78,283.51,422.78,283.65Z"/><path class="cls-5" d="M369.12,283.6c-.14,0-.26-19-.26-42.38s.12-42.39.26-42.39.26,19,.26,42.39S369.27,283.6,369.12,283.6Z"/><path class="cls-5" d="M359,283.53c-.14,0,.56-19,1.58-42.36s2-42.35,2.11-42.34-.57,19-1.59,42.36S359.12,283.54,359,283.53Z"/><path class="cls-12" d="M336,399.18a2.36,2.36,0,0,1-.44-.44c-.27-.31-.69-.74-1.17-1.35a38.64,38.64,0,0,1-3.69-5.42,41.5,41.5,0,0,1,.17-41.48,38.4,38.4,0,0,1,3.74-5.39c.48-.61.91-1,1.18-1.34s.43-.45.44-.43a3.22,3.22,0,0,1-.36.5c-.25.33-.65.77-1.1,1.4a42.3,42.3,0,0,0-3.75,46.56,44.86,44.86,0,0,0,3.53,5.47c.45.63.85,1.08,1.09,1.41A2.57,2.57,0,0,1,336,399.18Z"/><path class="cls-12" d="M479.29,323l-.31.58-6,11.34L464.52,343l16.86,22.46,14.06-2.33s-1.58-3.21-8.63-3.83l-2.7-13.42L494,330.55"/><polygon class="cls-4" points="464.52 343.03 481.38 365.49 495.44 363.16 493.51 361.31 481.97 362.57 466.31 341.3 464.52 343.03"/><path class="cls-5" d="M485.69,353.16c-.08.16-1-.17-2.05,0s-1.8.79-1.93.67.5-1.06,1.82-1.29S485.8,353,485.69,353.16Z"/><path class="cls-5" d="M484.91,349.85c-.13.12-.89-.6-2.05-.63s-2,.62-2.08.49.06-.31.42-.59a2.67,2.67,0,0,1,1.68-.53,2.61,2.61,0,0,1,1.64.63C484.86,349.53,485,349.8,484.91,349.85Z"/><path class="cls-5" d="M484.28,345.54c-.14.1-.75-.63-1.79-.81s-1.86.29-2,.14.1-.29.47-.5a2.46,2.46,0,0,1,3,.54C484.29,345.23,484.35,345.49,484.28,345.54Z"/><path class="cls-5" d="M487.49,341.58c-.16.08-.68-.65-1.65-1.07S484,340.15,484,340s1-.58,2.15,0S487.66,341.53,487.49,341.58Z"/><path class="cls-5" d="M488.84,338.39a6.4,6.4,0,0,1-1.47-1.27l-1.47-1.49a4.89,4.89,0,0,1-.84-1,1.17,1.17,0,0,1-.05-.87.87.87,0,0,1,.77-.58,2.59,2.59,0,0,1,1.43.46,4.79,4.79,0,0,1,2.09,2.74,2.68,2.68,0,0,1,0,2,17.81,17.81,0,0,0-.42-1.83,4.87,4.87,0,0,0-1.08-1.65,4.31,4.31,0,0,0-.91-.7,2.26,2.26,0,0,0-1.05-.37.28.28,0,0,0-.25.17.59.59,0,0,0,0,.41,5.31,5.31,0,0,0,.71.89l1.37,1.58C488.46,337.73,488.91,338.33,488.84,338.39Z"/><path class="cls-5" d="M489.42,338.72c-.07,0-.14-.74.48-1.71a3.56,3.56,0,0,1,4-1.45.65.65,0,0,1,.3.47.77.77,0,0,1-.09.47,2.23,2.23,0,0,1-.43.53,7.39,7.39,0,0,1-.9.73,6,6,0,0,1-1.76.82,2.92,2.92,0,0,1-1.77.13c0-.1.66-.16,1.62-.54a7.74,7.74,0,0,0,1.58-.88,5.67,5.67,0,0,0,.79-.7,1.59,1.59,0,0,0,.31-.37c.05-.14,0-.1,0-.13a1.11,1.11,0,0,0-.43-.09,3.25,3.25,0,0,0-.54,0,3.51,3.51,0,0,0-2.37,1.26A12.41,12.41,0,0,0,489.42,338.72Z"/><path class="cls-4" d="M475.66,340.74a1.69,1.69,0,1,1-2-1.39A1.7,1.7,0,0,1,475.66,340.74Z"/><path class="cls-12" d="M530.49,333.79,535,363.07l36.46-5.42c-.73-3.45-20.63-7.64-20.63-7.64l-2.12-18.88Z"/><path class="cls-4" d="M539.32,350.11a1.5,1.5,0,0,0-.78,1.85,1.46,1.46,0,0,0,1.83.79,1.59,1.59,0,0,0,.81-2,1.5,1.5,0,0,0-2-.61"/><path class="cls-4" d="M535,363.07l-.34-3L569.75,356s1.72.47,1.71,1.64Z"/><path class="cls-5" d="M551.39,349.74c0,.18-.86.39-1.65,1.09s-1.15,1.52-1.32,1.48-.06-1.12.91-1.95S551.4,349.57,551.39,349.74Z"/><path class="cls-5" d="M555.45,350.75c.06.17-.66.58-1.15,1.43s-.55,1.66-.73,1.68-.44-1,.19-2S555.42,350.58,555.45,350.75Z"/><path class="cls-5" d="M558.3,355c-.15.07-.53-.79-.22-1.83s1.08-1.55,1.18-1.42-.34.74-.58,1.6S558.48,355,558.3,355Z"/><path class="cls-5" d="M550.43,345.49c0,.17-.91.05-1.9.26s-1.74.66-1.85.52.54-.89,1.72-1.13S550.49,345.33,550.43,345.49Z"/><path class="cls-5" d="M548.92,341.29a3.5,3.5,0,0,1-1.83.26,8.3,8.3,0,0,1-2-.3,7.65,7.65,0,0,1-1.13-.4,2.21,2.21,0,0,1-.62-.35.79.79,0,0,1-.22-.93,1,1,0,0,1,.72-.53,2.72,2.72,0,0,1,.7,0,5.58,5.58,0,0,1,1.19.22,6.5,6.5,0,0,1,1.85.85c1,.66,1.35,1.28,1.3,1.33s-.57-.43-1.53-.95a6.88,6.88,0,0,0-1.76-.67,6.48,6.48,0,0,0-1.1-.17c-.4,0-.73,0-.8.19s0,.09.07.2a1.85,1.85,0,0,0,.45.25,9.87,9.87,0,0,0,1,.41,10.37,10.37,0,0,0,1.86.41A13.17,13.17,0,0,1,548.92,341.29Z"/><path class="cls-5" d="M548.72,341.58c-.06,0-.5-.55-.74-1.69a5.93,5.93,0,0,1-.05-2,6,6,0,0,1,.3-1.18,1.52,1.52,0,0,1,1-1.09.87.87,0,0,1,.84.39,2.55,2.55,0,0,1,.28.65,4.09,4.09,0,0,1,.19,1.23,4.25,4.25,0,0,1-.5,2c-.57,1-1.29,1.37-1.31,1.31a13.46,13.46,0,0,0,.91-1.5,4.32,4.32,0,0,0,.32-1.8,3.53,3.53,0,0,0-.19-1.05c-.11-.38-.31-.67-.45-.61s-.44.36-.55.69a7.36,7.36,0,0,0-.3,1.06,6.39,6.39,0,0,0-.08,1.87C548.53,340.9,548.82,341.54,548.72,341.58Z"/><polyline class="cls-5" points="501.8 265.01 470.52 333.15 491.18 345.55 534.41 263.56"/><path class="cls-5" d="M553.36,347.1l-22.44,3.6L517.5,270.56l-66.35,4.81a16.16,16.16,0,0,1-5.23-.5c-18.64-5.11-16.12-28.87-14.32-32.68l91.81-2.63a19.56,19.56,0,0,1,19.93,16.83Z"/><path class="cls-6" d="M430.69,246l.33-33.88s-4.37-22-5.66-30.69c-2-13.44-4.76-19.83,17.26-29.38l4.81-1.86,7.45.1c8.89.67,18.25,8.7,18.46,14l8.58,76.35Z"/><path class="cls-6" d="M432.07,159.88s-6.21,13.38-5,25.57l23.16,22.24c5.2,5.78,11.69,8.24,20,8.74l48,5.24,1.33-12.54-45.61-12.92c-1.81-.34-2.72-2.23-4.11-3.45l-37.75-32.88"/><path class="cls-5" d="M428.33,163.74a3.31,3.31,0,0,1,.91-.62,11.54,11.54,0,0,1,3.1-.87,16,16,0,0,1,5.18,0,5.27,5.27,0,0,1,1.52.52,11.79,11.79,0,0,1,1.41,1,35.41,35.41,0,0,1,2.81,2.44c1.92,1.79,3.73,4.06,5.86,6.36s4.47,4.77,7,7.36,5.26,5.3,8.19,8.1c1.47,1.4,3,2.82,4.58,4.21.82.66,1.62,1.44,2.39,2.17A5.71,5.71,0,0,0,474,196h0l45.62,12.9.21.06,0,.22c-.1.89-.2,1.85-.3,2.81-.36,3.33-.71,6.63-1,9.73l0,.26-.26,0-20.29-2.23-9.61-1-9.18-.93c-3-.33-5.89-.67-8.71-1.08a39.23,39.23,0,0,1-8.05-1.87,29.75,29.75,0,0,1-6.79-3.65c-2-1.41-3.87-2.88-5.6-4.32-6.85-5.85-11.88-11.08-15.37-14.64-1.74-1.79-3.06-3.2-3.95-4.16l-1-1.1a4.64,4.64,0,0,1-.33-.39l.36.35,1,1.07,4,4.1c3.53,3.51,8.6,8.7,15.46,14.49,1.73,1.43,3.58,2.89,5.6,4.28a29.22,29.22,0,0,0,6.71,3.58,39.38,39.38,0,0,0,8,1.82c2.8.4,5.7.74,8.69,1.06l9.18.9,9.61,1.05,20.29,2.21-.28.23c.33-3.1.68-6.4,1-9.74.1-1,.2-1.92.3-2.81l.19.28-45.6-12.95h0a6.12,6.12,0,0,1-2.92-1.69c-.8-.77-1.54-1.49-2.37-2.18-1.6-1.4-3.12-2.83-4.58-4.23-2.93-2.81-5.65-5.54-8.17-8.14s-4.86-5.08-7-7.41-3.92-4.59-5.82-6.38A35.24,35.24,0,0,0,440.3,164a13.1,13.1,0,0,0-1.37-1,4.92,4.92,0,0,0-1.45-.51,15.57,15.57,0,0,0-5.12-.08,11.46,11.46,0,0,0-3.08.79A6.25,6.25,0,0,0,428.33,163.74Z"/><path class="cls-10" d="M440.29,120.76l2.33,33a10.28,10.28,0,0,0,10.26,9.55h0a10.28,10.28,0,0,0,10.26-11c-.21-3.14-.4-5.71-.4-5.71s8-1.24,8.09-9.23c.05-4.61-.74-15.07-1.42-23.09A10.47,10.47,0,0,0,459,104.75h-4.82A14.77,14.77,0,0,0,440.29,120.76Z"/><path class="cls-14" d="M462.76,146.52a18.6,18.6,0,0,1-10.41-3s2.46,5.74,10.43,5Z"/><path class="cls-5" d="M467.61,124.58a1.13,1.13,0,0,1-1.1,1.15,1.07,1.07,0,0,1-1.17-1,1.15,1.15,0,0,1,1.09-1.16A1.1,1.1,0,0,1,467.61,124.58Z"/><path class="cls-5" d="M468,122.33c-.14.15-1-.49-2.23-.49s-2.13.62-2.26.47.08-.33.47-.62a3.21,3.21,0,0,1,1.81-.56,3.05,3.05,0,0,1,1.78.58C468,122,468.1,122.26,468,122.33Z"/><path class="cls-5" d="M456.09,124.58a1.13,1.13,0,0,1-1.1,1.15,1.08,1.08,0,0,1-1.17-1,1.15,1.15,0,0,1,1.1-1.16A1.09,1.09,0,0,1,456.09,124.58Z"/><path class="cls-5" d="M456,122.56c-.14.15-1-.49-2.23-.49s-2.13.62-2.26.47.08-.34.47-.62a3.13,3.13,0,0,1,3.59,0C455.91,122.22,456,122.49,456,122.56Z"/><path class="cls-5" d="M460.42,131.66a8.35,8.35,0,0,1,2-.36c.31,0,.61-.1.66-.31a1.65,1.65,0,0,0-.21-.93c-.29-.76-.6-1.55-.93-2.38a43,43,0,0,1-2.08-6.24,41.13,41.13,0,0,1,2.58,6l.89,2.4a1.81,1.81,0,0,1,.16,1.23.75.75,0,0,1-.51.46,1.82,1.82,0,0,1-.54.07A8.07,8.07,0,0,1,460.42,131.66Z"/><path class="cls-5" d="M456.81,132.51c.2,0,.21,1.32,1.35,2.26s2.55.8,2.56,1-.31.25-.91.27a3.29,3.29,0,0,1-2.14-.75,2.84,2.84,0,0,1-1-1.9C456.57,132.83,456.72,132.5,456.81,132.51Z"/><path class="cls-5" d="M456.29,117.75c-.12.34-1.35.18-2.79.35s-2.6.57-2.79.27.12-.46.59-.78a4.68,4.68,0,0,1,2.07-.73,4.78,4.78,0,0,1,2.18.26C456.08,117.33,456.34,117.59,456.29,117.75Z"/><path class="cls-5" d="M467.58,118.78c-.22.28-1.06,0-2.08,0s-1.87.18-2.07-.11.05-.42.42-.68a2.83,2.83,0,0,1,1.69-.46,2.92,2.92,0,0,1,1.66.56C467.56,118.36,467.68,118.64,467.58,118.78Z"/><path class="cls-10" d="M443,126.76c-.13-.06-5.48-1.63-5.31,3.83s5.62,4.16,5.62,4S443,126.76,443,126.76Z"/><path class="cls-14" d="M441.56,132.58s-.09.07-.25.15a1,1,0,0,1-.71,0,2.36,2.36,0,0,1-1.16-2.07,3,3,0,0,1,.23-1.37,1.11,1.11,0,0,1,.69-.76.5.5,0,0,1,.57.25c.08.15,0,.26.07.27s.12-.1.07-.32a.65.65,0,0,0-.23-.34.72.72,0,0,0-.53-.12,1.33,1.33,0,0,0-1,.88,3.3,3.3,0,0,0-.28,1.53,2.46,2.46,0,0,0,1.47,2.31,1,1,0,0,0,.86-.17C441.55,132.71,441.58,132.59,441.56,132.58Z"/><path class="cls-5" d="M440,126.57a2.86,2.86,0,0,1,2.62,1.35c.36.78.44,1.66.79,2.44a1.92,1.92,0,0,0,2,1.29,1.69,1.69,0,0,0,1.13-1.25,4.53,4.53,0,0,0,0-1.76c-.32-2.55-.86-5.07-1-7.64a13.11,13.11,0,0,1,1.61-7.42,7.17,7.17,0,0,1,6.39-3.59c1.69.14,3.25,1,4.93,1.26A6.68,6.68,0,0,0,464,109.4c.19-.18,1-.75,1-.75a3.12,3.12,0,0,0-.58-1.68c-3.34-3.1-9.36-4-13.78-2.85a15.9,15.9,0,0,0-10.45,8.37c-1.9,4.14-1.34,9.89-.29,14.08"/><path class="cls-6" d="M469.5,113.09s-20.95-6.73-30,11.38a34,34,0,0,1-1.35-7c0-1.62,1-11.29,10.92-14.33C449.06,103.18,464.05,97.46,469.5,113.09Z"/><path class="cls-5" d="M451.5,113.55a4.56,4.56,0,0,0,7.25.65,2.69,2.69,0,0,0,5.08-.26,6.21,6.21,0,0,0,2,1.49,2.07,2.07,0,0,0,2.32-.49,2,2,0,0,0-.14-2.4,4.93,4.93,0,0,0-2.12-1.43,15.37,15.37,0,0,0-7.91-1.2,10.67,10.67,0,0,0-6.93,3.77"/><g class="cls-9"><path d="M469.5,113.09a9.76,9.76,0,0,0-6.66-3c-6.18-.27-17.74,3.2-23.35,14.4a34,34,0,0,1-1.35-7c0-1.62,1-11.29,10.92-14.33C449.06,103.18,464.05,97.46,469.5,113.09Z"/></g><path class="cls-6" d="M440.37,122.35a39.32,39.32,0,0,1,12.2-11.68c4.81-3,12.77-6,18.26-7.44a11.88,11.88,0,0,1,5-.53,4.54,4.54,0,0,1,3.74,3.06c.52,2.07-3.15,5.26-4.87,6.51a56.56,56.56,0,0,1-5.24,3.1s0-3.84-6.1-4.63C455.05,109.67,440.37,122.35,440.37,122.35Z"/><g class="cls-13"><path d="M433,190.4c2.16,5.21,4.33,11.64,7.46,16.33s7.32,8.86,12.52,11c6.53,2.74,14.26,3.18,20.76.38.53-.23,1.57-.52,1.48-1.09,0,0-2.16-.24-2.82-.36-13.14-2.21-14.56-3.83-20.85-8.8-3.92-3.1-12.61-12.47-18.55-17.49"/></g><path class="cls-5" d="M474.75,228.34a5.1,5.1,0,0,1-.54,1.22,15.38,15.38,0,0,1-2.13,3,22.86,22.86,0,0,1-10.17,6.23,46.59,46.59,0,0,1-11.84,1.77c-1.53.06-2.77.07-3.63.07a7.84,7.84,0,0,1-1.33-.06,6,6,0,0,1,1.32-.15l3.62-.23a51.65,51.65,0,0,0,11.7-1.9,23.74,23.74,0,0,0,10.06-6A25.64,25.64,0,0,0,474.75,228.34Z"/><path class="cls-12" d="M531.33,353.09a1,1,0,0,1-.08-.31c0-.23-.11-.53-.18-.92-.16-.84-.37-2-.65-3.54-.54-3.12-1.31-7.57-2.27-13.06-1.87-11.06-4.45-26.29-7.3-43.11-1.27-7.61-2.49-14.9-3.59-21.55l.25.21-28.7,2.1-8.25.56-2.19.12-.57,0h-.19s.06,0,.19,0l.56-.07,2.19-.2,8.24-.7,28.69-2.29.22,0,0,.22c1.11,6.65,2.34,13.93,3.62,21.54,2.79,16.83,5.32,32.07,7.15,43.14.89,5.5,1.61,10,2.11,13.08.24,1.52.42,2.72.55,3.57.05.38.1.69.13.92A2.54,2.54,0,0,1,531.33,353.09Z"/><path class="cls-12" d="M524.23,263.42c.1.12-1.65,1.62-3.63,3.64s-3.47,3.79-3.59,3.69a24.42,24.42,0,0,1,7.22-7.33Z"/><path class="cls-5" d="M462.94,153.05a1.13,1.13,0,0,1,.12.33,6.52,6.52,0,0,1,.19,1,8.24,8.24,0,0,1-.49,3.64,9.36,9.36,0,0,1-3.29,4.32,10,10,0,0,1-6.42,1.72,11.64,11.64,0,0,1-6.23-2.34,13.5,13.5,0,0,1-3.54-4.13,14.17,14.17,0,0,1-1.35-3.4,8.4,8.4,0,0,1-.2-1,1.54,1.54,0,0,1,0-.35,23.2,23.2,0,0,0,1.9,4.54,13.71,13.71,0,0,0,3.51,3.93,11.29,11.29,0,0,0,6,2.2,9.67,9.67,0,0,0,6.11-1.59,9.18,9.18,0,0,0,3.23-4.06,8.84,8.84,0,0,0,.63-3.49C463,153.53,462.88,153.07,462.94,153.05Z"/><path class="cls-5" d="M477,196.72a4.39,4.39,0,0,1-.21-1c-.11-.79-.25-1.74-.4-2.86-.34-2.55-.76-5.83-1.23-9.45s-.81-7.06-1-9.49c-.11-1.21-.19-2.2-.23-2.88a4.54,4.54,0,0,1,0-1.06,3.71,3.71,0,0,1,.21,1c.11.79.24,1.74.4,2.86.31,2.55.72,5.83,1.17,9.46s.85,7,1.08,9.48c.12,1.21.2,2.2.24,2.88A3.93,3.93,0,0,1,477,196.72Z"/></g></g></svg>