<svg xmlns="http://www.w3.org/2000/svg" viewBox="0 0 432.88 422.78"><defs><style>.cls-1{fill:#f5f5f5;}.cls-2{fill:#e0e0e0;}.cls-3{fill:#ebebeb;}.cls-4{fill:#b78876;}.cls-5{fill:#aa6550;}.cls-6{fill:#263238;}.cls-7{fill:#e8505b;}.cls-10,.cls-13,.cls-8{opacity:0.4;}.cls-9{fill:#fafafa;}.cls-11{opacity:0.2;}.cls-12{fill:#455a64;}.cls-13,.cls-14{fill:#fff;}</style></defs><title>Asset 1</title><g id="Layer_2" data-name="Layer 2"><g id="Background_Complete" data-name="Background Complete"><path class="cls-1" d="M358.93,422.39c-26.16-10.35-38.15-38.24-43.47-64.61-.88-4.4-2.46-8.88-1.29-13.21s5.4-8.09,9.74-7.18c3.61.76,5.91,4.2,8.47,6.89a26.32,26.32,0,0,0,12.55,7.35c3.13.78,6.78.85,9.16-1.32,3.27-3,2.48-8.28,1.43-12.61l-5.91-24.24c-1.06-4.34-2.13-8.77-1.75-13.21s2.45-9,6.3-11.12,9.53-1,11.41,3.08c.78,1.68.86,3.6,1.41,5.38s1.86,3.57,3.69,3.66,3.3-1.54,4.29-3.12c3.45-5.45,5.15-11.82,6.66-18.11s2.9-12.69,5.83-18.44,7.66-10.87,13.8-12.7,13.67.44,16.69,6.17.93,12.81-1.78,18.69a99.39,99.39,0,0,1-15.62,24c-1.14,1.3-2.37,2.7-2.51,4.43-.26,3.12,3.16,5.34,6.25,5.62,3.49.31,6.92-.86,10.4-1.27s7.5.22,9.54,3.12c2.84,4,.23,9.55-2.7,13.46a85.29,85.29,0,0,1-21.21,20c-2.92,1.93-6,3.75-8.08,6.61s-2.67,7.12-.39,9.81,6.51,2.73,9.71,1.31,5.76-3.94,8.66-5.9c5.44-3.67,13.24-5.08,18.29-.83,3.31,2.79,4.65,7.46,4.34,11.8s-2.06,8.43-4,12.29c-6.9,13.49-17,25.43-29.7,33.51s-25.22,12.43-40.17,10.66"/><path class="cls-2" d="M361.79,404.39a400,400,0,0,1,5.51-45.55q1-6,2.05-11.87c.69-3.89,1.37-7.75,2.26-11.48A201.2,201.2,0,0,1,378,314.32c2.36-6.64,4.84-12.85,7.2-18.64s4.68-11.14,7-15.92A157.44,157.44,0,0,1,404.79,258c1.68-2.45,3-4.3,4-5.54l1.08-1.41a3,3,0,0,1,.39-.46,3.72,3.72,0,0,1-.32.51l-1,1.46c-.9,1.27-2.22,3.15-3.86,5.62A167,167,0,0,0,392.71,280c-2.28,4.79-4.55,10.15-6.89,15.94s-4.78,12-7.11,18.63a202.09,202.09,0,0,0-6.32,21.1c-.88,3.71-1.55,7.54-2.23,11.44S368.8,355,368.1,359a411.65,411.65,0,0,0-5.56,45.46"/><path class="cls-2" d="M371.83,335.4a9.46,9.46,0,0,1-.86-1.75c-.51-1.15-1.2-2.83-2-4.92-1.64-4.18-3.7-10-6-16.48s-4.4-12.26-6.1-16.4c-.84-2.07-1.54-3.74-2-4.89a9,9,0,0,1-.69-1.83,9.1,9.1,0,0,1,1,1.69c.59,1.11,1.37,2.75,2.28,4.8,1.85,4.1,4.09,9.89,6.34,16.36l5.74,16.55c.7,2,1.29,3.66,1.77,5A8.37,8.37,0,0,1,371.83,335.4Z"/><path class="cls-2" d="M425.18,311.73a12.76,12.76,0,0,1-2.16.79c-1.4.47-3.43,1.13-5.92,2-5,1.77-11.78,4.45-19.15,7.73s-13.9,6.57-18.56,9.07c-2.34,1.23-4.21,2.28-5.51,3a12.31,12.31,0,0,1-2.05,1,12.58,12.58,0,0,1,1.89-1.33c1.25-.8,3.08-1.93,5.39-3.24,4.6-2.64,11.12-6,18.51-9.31A204.18,204.18,0,0,1,416.91,314c2.52-.83,4.58-1.42,6-1.79A12,12,0,0,1,425.18,311.73Z"/><path class="cls-2" d="M362.23,403.2s-.21-.18-.54-.59l-1.44-1.79c-1.23-1.56-3-3.87-5.07-6.75-4.21-5.76-9.78-13.89-15.8-22.95s-11.5-17.24-15.59-23.07l-4.85-6.9-1.32-1.89a2.92,2.92,0,0,1-.41-.69,3.67,3.67,0,0,1,.55.59c.38.49.86,1.08,1.43,1.79,1.24,1.57,3,3.88,5.07,6.75,4.21,5.76,9.78,13.9,15.8,23s11.51,17.23,15.59,23.07l4.86,6.9,1.31,1.88A3.48,3.48,0,0,1,362.23,403.2Z"/><path class="cls-2" d="M430.74,361.7a2.9,2.9,0,0,1-.66.48l-2,1.23-7.33,4.46c-6.19,3.76-14.68,9.06-24.06,14.93s-17.92,11.1-24.19,14.74c-3.14,1.82-5.69,3.27-7.47,4.23l-2.06,1.1a3,3,0,0,1-.75.33,3.6,3.6,0,0,1,.67-.48l2-1.23,7.33-4.46c6.19-3.76,14.68-9.06,24.06-14.93s17.92-11.1,24.19-14.74c3.14-1.82,5.69-3.27,7.48-4.23L430,362A2.82,2.82,0,0,1,430.74,361.7Z"/><rect class="cls-3" x="31.83" y="110.17" width="70.07" height="103.96" transform="translate(-105.06 196.87) rotate(-79.01)"/><path class="cls-2" d="M124.74,138.56a7.78,7.78,0,0,1-1.13.73l-3.33,1.94-12.32,7L67,171l-.34.19-.25-.3-.6-.71L35.17,133.92l-9.21-11-2.46-3a8.18,8.18,0,0,1-.82-1.1,5.91,5.91,0,0,1,1,1l2.6,2.92,9.44,10.86,30.88,36.06.6.71-.58-.1,41.06-22.53,12.47-6.72,3.41-1.79A6.24,6.24,0,0,1,124.74,138.56Z"/><path class="cls-2" d="M9.32,187.52c-.16-.2,9.35-8.14,21.23-17.73s21.66-17.2,21.83-17S43,160.94,31.15,170.53,9.49,187.73,9.32,187.52Z"/><path class="cls-2" d="M86.47,158.53c.23-.12,6,10.71,12.87,24.19s12.27,24.51,12,24.62-6-10.71-12.88-24.19S86.23,158.64,86.47,158.53Z"/><polygon class="cls-1" points="165.71 104.05 101.19 110.81 95.88 65.98 160.4 59.23 165.71 104.05"/><path class="cls-2" d="M160.67,59.74a4.19,4.19,0,0,1-.53.66l-1.6,1.81-6,6.59c-5.13,5.57-12.17,13.18-20,21.62l-.17.18-.2-.13-.5-.33L106.51,73.53,98.9,68.44,96.85,67a4.62,4.62,0,0,1-.7-.53,4.57,4.57,0,0,1,.76.43L99,68.24l7.71,4.93L132,89.63l.5.33-.37,0,20.08-21.5,6.12-6.45,1.68-1.73A5.65,5.65,0,0,1,160.67,59.74Z"/><path class="cls-2" d="M101.46,111.32c-.13-.09,4-6.74,9.21-14.85s9.57-14.61,9.71-14.52-4,6.75-9.21,14.86S101.6,111.42,101.46,111.32Z"/><path class="cls-2" d="M141.76,79.15c.11-.12,5.63,5.48,12.32,12.5s12,12.8,11.9,12.92-5.63-5.48-12.32-12.5S141.64,79.26,141.76,79.15Z"/><polygon class="cls-1" points="76.32 49.73 40.66 25.04 57.5 0 93.16 24.69 76.32 49.73"/><path class="cls-2" d="M93.07,25.07a3.2,3.2,0,0,1-.56.1l-1.6.22-5.9.73L65.47,28.39l-.16,0,0-.16c0-.12-.07-.25-.11-.38C63,20.3,61,13.46,59.6,8.46,58.92,6,58.36,4,58,2.56c-.17-.67-.32-1.2-.42-1.61a3.46,3.46,0,0,1-.13-.57,2.1,2.1,0,0,1,.2.54c.13.4.29.93.5,1.59l1.76,5.86c1.46,5,3.45,11.82,5.66,19.37l.11.39L65.43,28,85,25.84l5.92-.6,1.6-.15A2.24,2.24,0,0,1,93.07,25.07Z"/><path class="cls-2" d="M40.57,25.42c0-.11,5-1.68,11.15-3.52S62.93,18.66,63,18.77s-5,1.68-11.14,3.52S40.6,25.53,40.57,25.42Z"/><path class="cls-2" d="M75,26.66c.11,0,.47,5.24.8,11.71s.52,11.73.41,11.74-.47-5.23-.8-11.71S74.92,26.67,75,26.66Z"/><path class="cls-1" d="M362.88,82.57a39.75,39.75,0,1,0-74,20.09h0l.12.15c1.52,2.56,3.43,4.4,5.36,7.1l23.08,30.57a7.17,7.17,0,0,0,11.46,0l22.69-30.07a85.57,85.57,0,0,0,5.78-7.65l.08-.1h0A39.48,39.48,0,0,0,362.88,82.57ZM323.13,99.88a17.5,17.5,0,1,1,17.49-17.49A17.49,17.49,0,0,1,323.13,99.88Z"/><path class="cls-3" d="M393.28,150.79a21.44,21.44,0,1,0-39.92,10.83h0l.06.08c.83,1.39,1.86,2.38,2.9,3.83L368.75,182a3.87,3.87,0,0,0,6.18,0l12.24-16.21a47,47,0,0,0,3.11-4.13l.05-.06h0A21.28,21.28,0,0,0,393.28,150.79Zm-21.44,9.34a9.44,9.44,0,1,1,9.44-9.44A9.44,9.44,0,0,1,371.84,160.13Z"/></g><g id="Character"><path class="cls-4" d="M150.77,77.64l6.58,93.21a29.06,29.06,0,0,0,29,27h0a29.06,29.06,0,0,0,29-31c-.58-8.87-1.11-16.14-1.11-16.14s22.56-3.51,22.84-26.07c.16-13-2.08-42.59-4-65.25a29.59,29.59,0,0,0-29.49-27.07H189.93A41.76,41.76,0,0,0,150.77,77.64Z"/><path class="cls-5" d="M214.26,150.44s-14.26,1.16-29.41-8.36c0,0,7,16.24,29.46,14.2Z"/><path class="cls-6" d="M226,86.69a3.23,3.23,0,0,1-3.1,3.26A3.08,3.08,0,0,1,219.61,87a3.22,3.22,0,0,1,3.1-3.25A3.08,3.08,0,0,1,226,86.69Z"/><path class="cls-6" d="M229.16,82.07c-.4.42-2.84-1.39-6.31-1.38s-6,1.74-6.38,1.32c-.18-.19.22-1,1.33-1.75a8.78,8.78,0,0,1,5.11-1.58,8.49,8.49,0,0,1,5,1.62C229,81.12,229.36,81.88,229.16,82.07Z"/><path class="cls-6" d="M192.21,86.7A3.23,3.23,0,0,1,189.1,90,3.09,3.09,0,0,1,185.78,87a3.22,3.22,0,0,1,3.1-3.25A3.08,3.08,0,0,1,192.21,86.7Z"/><path class="cls-6" d="M195.08,82.72c-.4.42-2.84-1.39-6.31-1.38s-6,1.74-6.38,1.32c-.18-.19.22-1,1.33-1.76a8.85,8.85,0,0,1,5.11-1.57,8.49,8.49,0,0,1,5,1.62C194.91,81.77,195.28,82.53,195.08,82.72Z"/><path class="cls-6" d="M207.66,108.43c0-.2,2.14-.57,5.64-1,.88-.09,1.72-.27,1.87-.87a4.5,4.5,0,0,0-.59-2.63c-.84-2.14-1.71-4.38-2.62-6.74-3.64-9.59-6.27-17.49-5.88-17.63s3.65,7.52,7.28,17.12c.88,2.37,1.72,4.62,2.51,6.78a5.1,5.1,0,0,1,.46,3.47,2.21,2.21,0,0,1-1.45,1.3,6.4,6.4,0,0,1-1.51.21C209.86,108.61,207.68,108.62,207.66,108.43Z"/><path class="cls-6" d="M197.46,110.82c.57,0,.57,3.73,3.79,6.4s7.23,2.26,7.26,2.79c.05.23-.89.73-2.59.77a9.3,9.3,0,0,1-6-2.11,8.13,8.13,0,0,1-2.94-5.36C196.78,111.73,197.2,110.8,197.46,110.82Z"/><path class="cls-6" d="M196,69.13c-.34.94-3.81.49-7.87,1s-7.36,1.6-7.9.76c-.24-.41.33-1.29,1.66-2.21a13.83,13.83,0,0,1,12-1.32C195.37,67.94,196.12,68.68,196,69.13Z"/><path class="cls-6" d="M227.89,72c-.61.79-3,0-5.87-.06s-5.31.53-5.87-.3c-.24-.4.14-1.19,1.2-1.93a8.52,8.52,0,0,1,9.46.29C227.82,70.84,228.15,71.65,227.89,72Z"/><path class="cls-4" d="M158.37,94.58c-.38-.17-15.5-4.59-15,10.83s15.88,11.75,15.89,11.31S158.37,94.58,158.37,94.58Z"/><path class="cls-5" d="M154.36,111c-.07,0-.27.19-.72.42a2.68,2.68,0,0,1-2,.1c-1.65-.55-3.11-3.09-3.27-5.87a9,9,0,0,1,.63-3.87,3.08,3.08,0,0,1,2-2.12,1.34,1.34,0,0,1,1.6.68c.22.43.14.74.22.76s.32-.27.18-.9a1.81,1.81,0,0,0-.64-1,2,2,0,0,0-1.5-.34,3.78,3.78,0,0,0-2.73,2.48,9.09,9.09,0,0,0-.79,4.33c.2,3.1,1.88,6,4.13,6.53a2.89,2.89,0,0,0,2.44-.48C154.34,111.4,154.41,111.05,154.36,111Z"/><path class="cls-6" d="M149.79,94.05c2.35-.57,6.42,1.6,7.43,3.81s1.22,4.7,2.22,6.9,3.26,4.2,5.62,3.64a4.76,4.76,0,0,0,3.21-3.52,13.18,13.18,0,0,0,0-5c-.91-7.21-2.43-14.35-2.72-21.6s.75-14.8,4.56-21,10.8-10.72,18-10.14c4.79.39,9.19,2.89,14,3.55a18.8,18.8,0,0,0,15.65-5.22,35.38,35.38,0,0,1,2.93-2.1c0-.38-.35-3.6-1.62-4.77-9.45-8.74-26.47-11.18-39-8s-24.18,12-29.55,23.65-3.78,28-.82,39.79"/><path class="cls-7" d="M233.3,56s-59.19-19-84.79,32.17c0,0-3.82-12.82-3.82-19.69,0-4.58,2.74-31.91,30.85-40.5C175.54,27.94,217.9,11.77,233.3,56Z"/><path class="cls-6" d="M182.45,57.24a12.86,12.86,0,0,0,20.49,1.86,7.59,7.59,0,0,0,14.35-.75A17.27,17.27,0,0,0,223,62.56c2.25.82,5.1.51,6.58-1.38s1.07-4.84-.41-6.79a14,14,0,0,0-6-4A43.33,43.33,0,0,0,200.88,47c-7.55,1-14.86,4.68-19.58,10.66"/><g class="cls-8"><path d="M233.3,56a27.51,27.51,0,0,0-18.82-8.54c-17.46-.77-50.14,9-66,40.71,0,0-3.82-12.82-3.82-19.69,0-4.58,2.74-31.91,30.85-40.5C175.54,27.94,217.9,11.77,233.3,56Z"/></g><path class="cls-7" d="M151,82.13c8.78-13.42,20.88-24.53,34.48-33s36.11-16.9,51.61-21c4.65-1.23,9.51-2.31,14.25-1.49s9.39,4,10.57,8.65c1.47,5.84-8.9,14.86-13.77,18.41S233.3,62.4,233.3,62.4s.13-10.84-17.22-13.08C192.48,46.28,151,82.13,151,82.13Z"/><path class="cls-2" d="M199.52,37.91s8.53-4.72,17.1-5.82A21.9,21.9,0,0,0,212,29.3a43.93,43.93,0,0,0-13.32,4.48Z"/><path class="cls-7" d="M247.56,170.16,228.78,166l-7.63-1.91-6.36-9.86s-3,17.62-14.4,27.11a13.17,13.17,0,0,1-11.18,2.69c-2.57-.54-5.59-1.21-7.83-1.81-.48-.12-1-.29-1.56-.49a36.63,36.63,0,0,1-19.33-16.68c-2.53-4.48-4.65-9.08-3.93-10.82l-8.91,18.45L95.16,196.89,65.35,269.67l57.77,17.09,1.79,60L114,422.36l163.44.12-5.8-168.29"/><path class="cls-6" d="M205.31,235.31a6.29,6.29,0,0,1-1,0l-2.91-.07L191,234.9h-.2v-.21c-.18-4.51-.39-9.85-.61-15.56-.27-8.22-.52-15.67-.7-21.14-.06-2.65-.11-4.82-.15-6.4,0-.72,0-1.29,0-1.75a4.81,4.81,0,0,1,0-.61,2.3,2.3,0,0,1,.08.61c0,.45.07,1,.11,1.74.08,1.58.19,3.75.32,6.4.22,5.47.52,12.91.85,21.13.2,5.71.38,11.05.53,15.56l-.21-.21,10.38.56,2.9.19A6.64,6.64,0,0,1,205.31,235.31Z"/><path class="cls-6" d="M196.4,211a1.35,1.35,0,0,1,.78-.25,3.16,3.16,0,0,1,2.15.6,3.23,3.23,0,0,1,1,1.19,3.08,3.08,0,0,1,.29,1.82,3.69,3.69,0,0,1-2.68,3,3.88,3.88,0,0,1-3.8-1.36,3.7,3.7,0,0,1-.71-3.23,3.93,3.93,0,0,1,1.08-1.95c.38-.37.65-.49.67-.47s-.21.21-.52.6a4.16,4.16,0,0,0-.87,1.89,3.35,3.35,0,0,0,.72,2.85,3.46,3.46,0,0,0,3.31,1.16,3.25,3.25,0,0,0,2.32-2.58,2.74,2.74,0,0,0-1.08-2.64,3.18,3.18,0,0,0-1.92-.69C196.69,211,196.41,211.05,196.4,211Z"/><path class="cls-6" d="M194.65,189.87a1.58,1.58,0,0,1,.82-.37,3.56,3.56,0,0,1,2.44.36,3.63,3.63,0,0,1,1.31,1.15,3.23,3.23,0,0,1,.54,2,3.9,3.9,0,0,1-2.64,3.55,4,4,0,0,1-4.18-1.45,3.6,3.6,0,0,1-.72-1.89,3.92,3.92,0,0,1,.28-1.72,3.85,3.85,0,0,1,1.57-1.9,1.74,1.74,0,0,1,.84-.33c0,.05-.28.16-.72.49a4,4,0,0,0-1.34,1.87,3.26,3.26,0,0,0,.47,3.18A3.56,3.56,0,0,0,197,196a3.44,3.44,0,0,0,2.3-3.07,3,3,0,0,0-1.55-2.76,3.45,3.45,0,0,0-2.22-.48C195,189.77,194.67,189.91,194.65,189.87Z"/><path class="cls-6" d="M189.32,270.59l.25-.12.75-.29a30.69,30.69,0,0,0,2.84-1.21,37,37,0,0,0,9.19-6.54,72.55,72.55,0,0,0,10.53-13.06,184.28,184.28,0,0,0,10.26-17.88A309.43,309.43,0,0,0,237.71,197c1.64-4.51,2.91-8.18,3.8-10.72.44-1.23.78-2.21,1-2.91.11-.31.2-.56.28-.76a1.06,1.06,0,0,1,.11-.25.85.85,0,0,1-.06.27l-.23.77c-.23.71-.54,1.7-.94,2.95-.83,2.55-2,6.24-3.64,10.77a288,288,0,0,1-14.45,34.64,177.52,177.52,0,0,1-10.33,17.9,71.32,71.32,0,0,1-10.67,13.07,36.11,36.11,0,0,1-9.36,6.45,25.68,25.68,0,0,1-2.89,1.13l-.77.24A1.15,1.15,0,0,1,189.32,270.59Z"/><path class="cls-9" d="M223.75,250.62c.43,0,10.38-.69,10.38-.69s-4.1,7.26-8.38,10H217Z"/><path class="cls-6" d="M187.58,292.57a4.73,4.73,0,0,1,.57-.43l1.68-1.16c1.45-1,3.54-2.49,6-4.42,5-3.83,11.66-9.56,18.77-16.1,3.57-3.26,7-6.35,9.95-9.3a77.76,77.76,0,0,0,7.33-8.32,46.14,46.14,0,0,0,4-6.31c.43-.77.71-1.4.92-1.81a4.57,4.57,0,0,1,.34-.63,3.48,3.48,0,0,1-.24.67c-.19.43-.43,1.08-.84,1.86a41.06,41.06,0,0,1-3.9,6.43,73.17,73.17,0,0,1-7.28,8.44c-2.95,3-6.37,6.09-9.94,9.36a246,246,0,0,1-18.9,16c-2.54,1.9-4.67,3.34-6.16,4.3-.74.48-1.33.84-1.73,1.08A3,3,0,0,1,187.58,292.57Z"/><path class="cls-6" d="M159.55,403.67a.86.86,0,0,1,.12-.23c.11-.18.24-.4.41-.66.36-.58.93-1.41,1.68-2.47,1.5-2.11,3.82-5.06,6.88-8.54,6.16-6.92,14.78-16.34,24.29-26.78l24.43-26.67c3.13-3.37,5.67-6.1,7.45-8l2.05-2.17.54-.56c.12-.12.19-.18.2-.17l-.16.21-.5.59-2,2.23-7.32,8.15-24.32,26.77L168.91,392c-3.09,3.44-5.44,6.35-7,8.42-.77,1-1.36,1.85-1.75,2.4l-.46.63A1.51,1.51,0,0,1,159.55,403.67Z"/><path class="cls-7" d="M246.26,169.66c.85,1.29,20.18,3.43,24.9,8.16s52,40.8,52,40.8L289.48,264l-21.75-4.78Z"/><polygon class="cls-10" points="317.44 214.26 279.67 261.84 289.48 264 323.13 218.62 317.44 214.26"/><path class="cls-6" d="M256.55,216.9a10.43,10.43,0,0,1-.39-1.58,17.4,17.4,0,0,1-.33-1.88c-.1-.74-.24-1.58-.29-2.51s-.16-2-.15-3.07,0-2.29.09-3.53a48.71,48.71,0,0,1,1.24-8,49.81,49.81,0,0,1,2.64-7.64c.54-1.12,1-2.2,1.58-3.15s1.06-1.85,1.57-2.64,1-1.48,1.44-2.09a18.48,18.48,0,0,1,1.17-1.51,9.33,9.33,0,0,1,1.09-1.21,10.77,10.77,0,0,1-.93,1.34c-.32.41-.7.93-1.1,1.55s-.9,1.3-1.36,2.11-1,1.67-1.5,2.65-1,2-1.52,3.15A48.08,48.08,0,0,0,256,204.37c-.06,1.22-.15,2.39-.13,3.49s0,2.11.08,3,.15,1.77.22,2.5.15,1.37.24,1.89A8.63,8.63,0,0,1,256.55,216.9Z"/><path class="cls-6" d="M271.67,254.19c-.13.05-2-4.08-4.18-9.23a95.69,95.69,0,0,1-3.69-9.43,97.7,97.7,0,0,1,4.17,9.23A97.46,97.46,0,0,1,271.67,254.19Z"/><path class="cls-6" d="M123.12,221.24c-.08,0-.89-1.44-2.42-3.7a53.24,53.24,0,0,0-6.82-8.12,52.48,52.48,0,0,0-8.33-6.57c-2.3-1.47-3.81-2.23-3.76-2.31a5.5,5.5,0,0,1,1.1.46c.69.32,1.67.84,2.86,1.53A46.16,46.16,0,0,1,121,217.34c.73,1.16,1.28,2.13,1.62,2.82A5.66,5.66,0,0,1,123.12,221.24Z"/><polygon class="cls-10" points="65.35 269.67 67.67 264 131.58 281.4 129.05 288.51 65.35 269.67"/><path class="cls-9" d="M235.93,247.26h24.33v10.05l-31.12-.2S234,251.28,235.93,247.26Z"/><g class="cls-11"><path d="M149.16,174.91c.88,7.8,1.84,15.84,5.69,22.68s11.42,12.23,19.18,11.08c5.19-.76,9.58-4.23,13.11-8.1s6.48-8.28,10.34-11.83a45.59,45.59,0,0,0,7.75,6.68A15.28,15.28,0,0,0,215,198c3.4-.41,5.27-1.75,6.34-5-3.62,1.13-5.62,1-9.22.26a25.18,25.18,0,0,1-10.92-5c-2.12-1.67-2.88-4.18-5.58-4-2.49.14-4.44,2.12-6.08,4a69.26,69.26,0,0,1-8.67,8.37c-3,2.37-5.91,4-9.72,3.88-6.29-.13-11.44-5.07-14.92-10.32a51.86,51.86,0,0,1-7-15.81"/></g><path class="cls-6" d="M222.8,165.18a2.93,2.93,0,0,1,.1.55c0,.37.13.91.2,1.61.15,1.4.3,3.44.36,6a85.18,85.18,0,0,1-1.87,19.58l0,.16,0,.15-.15,0a21.33,21.33,0,0,1-10.78-.28,25.63,25.63,0,0,1-8-3.74,20.5,20.5,0,0,1-4.36-4,11,11,0,0,1-.94-1.31c-.21-.31-.31-.47-.29-.48a25.26,25.26,0,0,0,5.8,5.52,26,26,0,0,0,7.9,3.58,21.11,21.11,0,0,0,10.51.24l-.19.2,0-.16a92,92,0,0,0,2-19.47c0-2.51-.11-4.54-.2-5.94,0-.66-.07-1.19-.09-1.62A2,2,0,0,1,222.8,165.18Z"/><path class="cls-6" d="M192.42,184.91a2.78,2.78,0,0,1-.32.6,16.92,16.92,0,0,1-1.11,1.6,42.83,42.83,0,0,1-4.91,5.18q-1.68,1.53-3.71,3.26c-.68.57-1.36,1.17-2.12,1.76a18.3,18.3,0,0,1-2.47,1.59,15.41,15.41,0,0,1-6,1.84,11.48,11.48,0,0,1-6.59-1.46,21.19,21.19,0,0,1-5.18-4.36,51.33,51.33,0,0,1-3.89-4.92,49.18,49.18,0,0,1-7.34-16.09c-.2-.82-.33-1.46-.41-1.9a3.22,3.22,0,0,1-.1-.67,2.94,2.94,0,0,1,.2.65c.11.43.27,1.06.51,1.87a54.34,54.34,0,0,0,2.39,6.69,51.44,51.44,0,0,0,9,14,20.78,20.78,0,0,0,5.05,4.24,10.93,10.93,0,0,0,6.31,1.41,14.9,14.9,0,0,0,5.84-1.75A18.8,18.8,0,0,0,180,197c.74-.57,1.44-1.17,2.12-1.73,1.36-1.14,2.62-2.2,3.74-3.2a47.85,47.85,0,0,0,5-5c.54-.65.93-1.17,1.18-1.53A3.75,3.75,0,0,1,192.42,184.91Z"/><path class="cls-4" d="M170.88,299.8l7.71-11.23s5.3-18.43,4.58-21-3.07-12.18-2.51-12.29,6.32-2.27,9.45,5.44c1.95,4.8,2.59,11.11,2.79,15.2a3.5,3.5,0,0,0,4.2,3.25c5.33-1.09,14.2-2.76,16.31-2.26,3.06.73,5.79,4.64,6.06,5.94s-1.84,4.26-1.84,4.26,2.6,1.33,3.39,3.34c.11.27.21.54.29.8a4.86,4.86,0,0,1-1.08,4.69l-.81.89s3.24.89,3.64,2.75a10.91,10.91,0,0,1-.11,4.1l-3,3.14a5.15,5.15,0,0,1,1.58,3c.15,1.71-4.41,5.95-4.41,5.95l-19.61,7-7.78,2Z"/><path class="cls-5" d="M217.68,287.13c0,.14-3,.7-6.79,1.47s-6.79,1.44-6.83,1.3a7.63,7.63,0,0,1,1.94-.67c1.21-.34,2.9-.76,4.79-1.14s3.6-.67,4.85-.83A7.34,7.34,0,0,1,217.68,287.13Z"/><path class="cls-5" d="M219.48,296.82a29.16,29.16,0,0,1-5.19,1.86A30.05,30.05,0,0,1,209,300a29.16,29.16,0,0,1,5.19-1.86A29.61,29.61,0,0,1,219.48,296.82Z"/><path class="cls-5" d="M220.65,306.39a36,36,0,0,1-5.51,2.7,38.21,38.21,0,0,1-5.72,2.22,35.39,35.39,0,0,1,5.51-2.7A36.1,36.1,0,0,1,220.65,306.39Z"/><path class="cls-4" d="M125.69,369.27l72.12-48.38-18.19-33-65.83,33.85,7.47-35.57L76.59,273,65.45,333.86h0c-1.73,27.07,20,48.94,46.17,41.83h0A47.58,47.58,0,0,0,125.69,369.27Z"/><path class="cls-5" d="M104.27,340.88A3.34,3.34,0,0,1,104,340a14.59,14.59,0,0,1-.25-2.55,17.73,17.73,0,0,1,7.3-14.64,15.37,15.37,0,0,1,2.19-1.33,2.82,2.82,0,0,1,.87-.35c.05.08-1.16.65-2.83,2a18.68,18.68,0,0,0-7.16,14.35C104.09,339.55,104.36,340.86,104.27,340.88Z"/><path class="cls-4" d="M289.48,264c.45-.61,51.36,30.4,51.36,30.4l16.32,74.36,23.49,8.61s7.33-82.74,1.75-95.62-62.15-59.21-62.15-59.21Z"/><path class="cls-5" d="M352,288.7a16.52,16.52,0,0,1-10,6.45,54.47,54.47,0,0,0,5.33-2.73A55,55,0,0,0,352,288.7Z"/><polygon class="cls-6" points="228.25 264.17 232.24 335.52 313.6 330.02 311.13 276.9 299.29 260.96 228.25 264.17"/><path class="cls-7" d="M209.75,337.11c.25,1.37,7.16,66,7.16,66L338,394.69l20.5-2.74L349,331.76l-14.48-3.46Z"/><path class="cls-10" d="M334.56,328.3l-124.81,8.81c.25,1.37,7.16,66,7.16,66L343,394.34Z"/><polygon class="cls-12" points="301.4 330.85 232.24 335.52 228.25 264.17 299.29 260.96 301.4 330.85"/><polygon class="cls-6" points="254.04 263 255.5 284.99 259.19 282.88 261.25 284.99 263.8 282.88 267.73 284.99 267.73 262.38 254.04 263"/><polygon class="cls-7" points="282.95 332.34 278.21 278.79 324.45 291.53 328.9 328.49 282.95 332.34"/><path class="cls-6" d="M324.45,291.53a2.13,2.13,0,0,1-.29.38l-.89,1.06-3.4,3.88L308.05,310.1l-.18.2-.18-.2-6.3-6.59c-6.41-6.78-12.21-12.92-16.47-17.41L280,280.79l-1.33-1.47a4.33,4.33,0,0,1-.44-.53s.19.14.52.46l1.39,1.4,5.07,5.2,16.58,17.3,6.28,6.61h-.37l11.95-13.12,3.51-3.79,1-1A2,2,0,0,1,324.45,291.53Z"/><path class="cls-6" d="M298.53,301.45c.12.07-3.17,6.39-7.36,14.12s-7.69,13.94-7.82,13.87,3.17-6.39,7.36-14.12S298.4,301.38,298.53,301.45Z"/><path class="cls-6" d="M327.83,328.49c-.12.08-3.33-5-7.16-11.43s-6.83-11.63-6.71-11.7,3.33,5,7.16,11.43S328,328.42,327.83,328.49Z"/><polygon class="cls-7" points="307.77 330.25 304.76 296.15 334.2 304.26 337.04 327.8 307.77 330.25"/><polygon class="cls-13" points="307.77 330.25 304.76 296.15 334.2 304.26 337.04 327.8 307.77 330.25"/><path class="cls-6" d="M334.2,304.26a6.84,6.84,0,0,1-.73.94l-2.14,2.49-7.5,8.46-.18.2-.19-.2-4-4.19c-4.11-4.32-7.81-8.25-10.47-11.11-1.27-1.39-2.33-2.53-3.13-3.4a10.73,10.73,0,0,1-1.09-1.3,11.3,11.3,0,0,1,1.24,1.16l3.25,3.29c2.72,2.79,6.47,6.68,10.58,11,1.39,1.46,2.74,2.88,4,4.21h-.37l7.64-8.33,2.25-2.4A6.71,6.71,0,0,1,334.2,304.26Z"/><path class="cls-6" d="M317.69,310.58a96.14,96.14,0,0,1-4.6,9c-2.67,4.92-4.94,8.86-5.06,8.79a96.14,96.14,0,0,1,4.6-9C315.3,314.45,317.57,310.51,317.69,310.58Z"/><path class="cls-6" d="M336.35,327.8a70.6,70.6,0,0,1-4.64-7.23,74.17,74.17,0,0,1-4.19-7.5,68.64,68.64,0,0,1,4.64,7.23A69.69,69.69,0,0,1,336.35,327.8Z"/><polygon class="cls-14" points="326.54 302.82 326.54 305.56 330.84 306.06 331.06 303.97 326.54 302.82"/><path class="cls-14" d="M311.36,288.91v4l8.12,1.34.45-3.05Z"/><polygon class="cls-7" points="279.67 352.29 279.27 332.34 263.09 333.44 264.83 353.69 279.67 352.29"/><rect class="cls-9" x="306.29" y="364.03" width="27.27" height="24.12" transform="translate(-34.07 31.87) rotate(-5.42)"/><path class="cls-6" d="M334.64,386.81a2.58,2.58,0,0,1-.07-.46c0-.33-.09-.76-.15-1.3-.13-1.17-.3-2.81-.52-4.89-.43-4.22-1-10.18-1.76-17.34l.24.19-27.14,2.62.23-.28h0v.2l0,.2,0,.41.08.81.15,1.62c.1,1.07.2,2.14.3,3.19.2,2.11.39,4.18.58,6.19.38,4,.73,7.85,1.06,11.39l-.25-.21,19.59-1.74,5.56-.47,1.49-.11a4.18,4.18,0,0,1,.53,0,3.23,3.23,0,0,1-.48.07l-1.43.16-5.5.58-19.72,2-.22,0,0-.23c-.34-3.53-.71-7.35-1.1-11.38-.19-2-.39-4.08-.59-6.19-.1-1.05-.2-2.12-.31-3.19l-.15-1.62-.08-.81,0-.41v-.4h0c-.21.25.28-.35.23-.29l27.15-2.53.22,0,0,.22c.64,7.24,1.17,13.25,1.54,17.51.18,2.06.31,3.69.41,4.85q.06.78.09,1.26A2.66,2.66,0,0,1,334.64,386.81Z"/><path class="cls-6" d="M330.24,368.55c0,.14-4.73.76-10.6,1.38s-10.64,1-10.65.86,4.73-.76,10.6-1.38S330.22,368.41,330.24,368.55Z"/><path class="cls-6" d="M330.08,372.63a16.21,16.21,0,0,1-2.92.72c-1.82.36-4.35.78-7.16,1.11s-5.37.51-7.23.58a14.93,14.93,0,0,1-3,0,19.88,19.88,0,0,1,3-.34c1.84-.16,4.39-.39,7.19-.72s5.33-.69,7.16-1A18.32,18.32,0,0,1,330.08,372.63Z"/><path class="cls-6" d="M331.23,381.55a15.22,15.22,0,0,1-2.92.72c-1.82.36-4.35.78-7.16,1.12s-5.38.5-7.23.57a15.12,15.12,0,0,1-3,0,19.92,19.92,0,0,1,3-.34c1.84-.16,4.38-.39,7.19-.72s5.33-.69,7.16-1A18.21,18.21,0,0,1,331.23,381.55Z"/><path class="cls-6" d="M329.86,377a99.19,99.19,0,0,1-9.9,1.68,98.54,98.54,0,0,1-10,1.16,92.72,92.72,0,0,1,9.9-1.68A98.54,98.54,0,0,1,329.86,377Z"/><path class="cls-4" d="M353.83,414.16s22.35-14.78,24.06-22.35,2.76-14.44,2.76-14.44l-23.88-9.89,2.37,8.61s-8.57,5.09-9.44,11.25c-.58,4.12-11.65,11.15-11.65,11.15h0a9.16,9.16,0,0,0-7.68-3.29l-9.3.66L327.35,410Z"/><path class="cls-5" d="M362.56,393.9a4,4,0,0,1-1.06.42c-.69.24-1.73.47-3,.87a11.93,11.93,0,0,0-3.88,2.25,19.2,19.2,0,0,1-4.77,3,16.15,16.15,0,0,1-10.14.85,5.13,5.13,0,0,1-1.7-.63,1.23,1.23,0,0,1-.61-1.23.92.92,0,0,1,.5-.73c.2-.07.31,0,.3,0s-.1,0-.25.11a.81.81,0,0,0-.35.65,1,1,0,0,0,.57,1,5.07,5.07,0,0,0,1.62.51,16.55,16.55,0,0,0,9.85-1,19.87,19.87,0,0,0,4.69-2.93,12,12,0,0,1,4.06-2.22c1.27-.37,2.31-.54,3-.71A6.14,6.14,0,0,1,362.56,393.9Z"/><path class="cls-5" d="M347.08,405.37c-.05.07-1.15-.59-3.05-1.37a27.56,27.56,0,0,0-7.75-1.93c-.79-.08-1.55-.11-2.3-.12h-.14l-.07-.11a23.87,23.87,0,0,0-4.16-4.91c-1.2-1.09-2-1.65-2-1.71a2.29,2.29,0,0,1,.62.33,16.32,16.32,0,0,1,1.56,1.13,21.5,21.5,0,0,1,4.37,4.88l-.21-.11c.75,0,1.54,0,2.34.11a24.39,24.39,0,0,1,7.84,2.11,20.39,20.39,0,0,1,2.18,1.17C346.84,405.14,347.1,405.34,347.08,405.37Z"/><path class="cls-5" d="M353.12,401.3c0,.15-1.52.71-3.27,1.72s-3.05,2-3.15,1.93a7.69,7.69,0,0,1,2.89-2.39A7.84,7.84,0,0,1,353.12,401.3Z"/><path class="cls-5" d="M365.22,374.72a33.12,33.12,0,0,0-3.34.44c-1.79.46-3,1.37-3.13,1.25a6.45,6.45,0,0,1,6.47-1.69Z"/></g><g id="Plant"><path class="cls-7" d="M39.18,366.18c3,3.5,7.92,1.81,10.07-.68s2.85-5.88,3.47-9.11c1.43-7.38,2.84-15.11.65-22.3A12.36,12.36,0,0,0,50,328.35a6.42,6.42,0,0,0-6.25-1.48c-2.5.9-3.87,3.55-4.81,6a52.88,52.88,0,0,0-3.18,23c.31,3.63,1.08,7.41,3.4,10.23"/><g class="cls-11"><path d="M39.18,366.18c3,3.5,7.92,1.81,10.07-.68s2.85-5.88,3.47-9.11c1.43-7.38,2.84-15.11.65-22.3A12.36,12.36,0,0,0,50,328.35a6.42,6.42,0,0,0-6.25-1.48c-2.5.9-3.87,3.55-4.81,6a52.88,52.88,0,0,0-3.18,23c.31,3.63,1.08,7.41,3.4,10.23"/></g><path class="cls-7" d="M50.66,384.2c4.08-2.59,9.08-3.32,13.9-3,2.58.19,5.31.72,7.21,2.48s2.54,5.09.69,6.92a6.69,6.69,0,0,1-4.27,1.5c-3.72.29-7.9,0-10.67,2.5-1.58,1.43-2.51,3.65-4.48,4.45a4.79,4.79,0,0,1-5.47-1.87,8.2,8.2,0,0,1-1.14-6A9.24,9.24,0,0,1,50.66,384.2Z"/><path class="cls-7" d="M32.49,372.17c2.53-3.62,2.63-8.58,1-12.68a24.19,24.19,0,0,0-8.36-10.08,40.06,40.06,0,0,0-13.95-6.63,14.27,14.27,0,0,0-6-.48,6.28,6.28,0,0,0-4.73,3.47c-1.16,2.79.47,5.89,2.15,8.4a100.65,100.65,0,0,0,9.89,12.47c2.91,3.13,6.19,6.19,10.31,7.35s8.22.62,10.08-2.33"/><path class="cls-6" d="M44,422.48a9.25,9.25,0,0,0,.08-1.71c0-1.25,0-2.81,0-4.67a68,68,0,0,1,.43-6.88A53.83,53.83,0,0,1,46.34,401a30,30,0,0,1,3.45-7.62,15.31,15.31,0,0,1,4.78-4.76,14.54,14.54,0,0,1,4.24-1.74,7.73,7.73,0,0,0,1.66-.4,7.92,7.92,0,0,0-1.72.13,13.06,13.06,0,0,0-4.43,1.59A15.18,15.18,0,0,0,49.25,393a28.79,28.79,0,0,0-3.58,7.77A49,49,0,0,0,44,409.14a56.91,56.91,0,0,0-.29,7c0,2,.12,3.57.19,4.68A7.25,7.25,0,0,0,44,422.48Z"/><path class="cls-6" d="M44,418.89a3.92,3.92,0,0,0,0-.79c0-.59-.12-1.33-.21-2.25-.18-2-.43-4.77-.63-8.27-.45-7-.71-16.68-.5-27.38s.92-20.36,1.72-27.32c.18-1.74.38-3.31.58-4.69s.33-2.57.5-3.54.24-1.65.33-2.23a3.13,3.13,0,0,0,.06-.79,3.66,3.66,0,0,0-.2.76c-.12.58-.28,1.32-.46,2.22s-.4,2.14-.62,3.52-.47,2.95-.68,4.69A255.73,255.73,0,0,0,42,380.19c-.22,10.71.12,20.42.7,27.42.27,3.5.6,6.33.86,8.28.14.9.25,1.64.34,2.23A2.94,2.94,0,0,0,44,418.89Z"/><path class="cls-6" d="M42.42,400.26a15.42,15.42,0,0,0-.23-2.35,63.81,63.81,0,0,0-1.29-6.31,84.84,84.84,0,0,0-2.9-9.09,81.82,81.82,0,0,0-4.86-10.63,58.54,58.54,0,0,0-13-16.72,27.41,27.41,0,0,0-2.9-2.25c-.44-.31-.84-.63-1.23-.87l-1.1-.62a12.91,12.91,0,0,0-2.1-1.09,68.07,68.07,0,0,1,7,5.2,62,62,0,0,1,12.69,16.69,89.67,89.67,0,0,1,4.87,10.52,94.08,94.08,0,0,1,3,9c.72,2.61,1.2,4.74,1.5,6.22A15.92,15.92,0,0,0,42.42,400.26Z"/></g></g></svg>