<svg xmlns="http://www.w3.org/2000/svg" xmlns:xlink="http://www.w3.org/1999/xlink" viewBox="0 0 202.71 28.58"><defs><style>.cls-1{font-size:24.43px;fill:#353535;font-family:ToppanBunkyuMidashiGothicStdN-ExtraBold-83pv-RKSJ-H, Toppan Bunkyu Midashi Gothic;letter-spacing:-0.03em;}.cls-2{letter-spacing:-0.05em;}.cls-3{letter-spacing:-0.03em;}.cls-4{fill:#e8505b;}.cls-5{fill:url(#linear-gradient);}</style><linearGradient id="linear-gradient" x1="0.02" y1="17.22" x2="20.77" y2="17.22" gradientUnits="userSpaceOnUse"><stop offset="0" stop-color="#fff" stop-opacity="0"/><stop offset="1" stop-color="#fff"/></linearGradient></defs><title>Asset 4</title><g id="Layer_2" data-name="Layer 2"><g id="Layer_1-2" data-name="Layer 1"><text class="cls-1" transform="translate(27.74 21.5)">Qui<tspan class="cls-2" x="38.77" y="0">k</tspan><tspan class="cls-3" x="52.35" y="0">dispatcher</tspan></text><path class="cls-4" d="M23.33,6.44,20.77,16l-2,7.4a3.24,3.24,0,0,1-5.42,1.45L1,12.44A3.16,3.16,0,0,1,0,10.51,3.23,3.23,0,0,1,2.4,7l17-4.55A3.23,3.23,0,0,1,23.33,6.44Z"/><path class="cls-5" d="M20.77,16l-2,7.4a3.24,3.24,0,0,1-5.42,1.45L1,12.44A3.16,3.16,0,0,1,0,10.51,15.52,15.52,0,0,1,7.45,8.63,15.7,15.7,0,0,1,20.77,16Z"/></g></g></svg>