<?xml version="1.0" encoding="iso-8859-1"?>
<!-- Generator: Adobe Illustrator 19.0.0, SVG Export Plug-In . SVG Version: 6.00 Build 0)  -->
<svg version="1.1" id="Capa_1" xmlns="http://www.w3.org/2000/svg" xmlns:xlink="http://www.w3.org/1999/xlink" x="0px" y="0px"
	 viewBox="0 0 512.016 512.016" style="enable-background:new 0 0 512.016 512.016;" xml:space="preserve">
<path style="fill:#FFD15C;" d="M361.6,0.008H42.667C19.104,0.008,0,19.112,0,42.675v318.933c0,23.563,19.104,42.667,42.667,42.667
	H361.6c23.563,0,42.667-19.104,42.667-42.667V42.675C404.267,19.112,385.163,0.008,361.6,0.008"/>
<rect x="152.011" y="0.008" style="fill:#F3705A;" width="100.256" height="100.245"/>
<path style="fill:#415A6B;" d="M511.275,485.117l-41.792-154.816c-2.517-9.312-10.955-15.776-20.597-15.776H417.6v-44.608
	c0-7.349-5.973-13.333-13.333-13.333H312.96c-7.36,0-13.333,5.984-13.333,13.333v44.608h-31.285c-9.632,0-18.08,6.453-20.608,15.776
	l-41.749,154.816c-3.659,13.557,6.549,26.891,20.597,26.891h264.085C504.704,512.008,514.912,498.675,511.275,485.117
	 M390.933,314.525h-64.64v-31.275h64.64V314.525z"/>
<g>
	<path style="fill:#FFFFFF;" d="M289.504,377.117h16.309v30.005l27.627-30.005h20.213l-29.088,32.331
		c2.507,3.456,7.147,9.984,13.92,19.499c6.795,9.525,11.829,16.651,15.168,21.312h-19.04l-21.461-28.896l-7.339,8.192v20.704
		h-16.309V377.117z"/>
	<path style="fill:#FFFFFF;" d="M411.339,412.989h16.416v25.963c-7.264,8.107-17.312,12.171-30.144,12.171
		c-10.731,0-19.776-3.584-27.061-10.709c-7.296-7.104-10.933-16.085-10.933-26.933c0-10.837,3.733-19.915,11.147-27.168
		c7.456-7.253,16.416-10.88,26.912-10.88c10.485,0,19.627,3.456,27.349,10.379l-8.48,12.224c-3.275-2.859-6.272-4.853-9.045-5.899
		c-2.752-1.109-5.749-1.643-8.96-1.643c-6.187,0-11.435,2.123-15.701,6.336c-4.256,4.224-6.368,9.792-6.368,16.704
		c0,6.88,2.037,12.437,6.123,16.587c4.064,4.171,8.928,6.208,14.581,6.208s10.357-1.067,14.144-3.253v-20.085H411.339z"/>
</g>
<g>
</g>
<g>
</g>
<g>
</g>
<g>
</g>
<g>
</g>
<g>
</g>
<g>
</g>
<g>
</g>
<g>
</g>
<g>
</g>
<g>
</g>
<g>
</g>
<g>
</g>
<g>
</g>
<g>
</g>
</svg>
