<?xml version="1.0" encoding="utf-8"?>
<!-- Generator: Adobe Illustrator 24.0.1, SVG Export Plug-In . SVG Version: 6.00 Build 0)  -->
<svg version="1.1" id="Layer_1" xmlns="http://www.w3.org/2000/svg" xmlns:xlink="http://www.w3.org/1999/xlink" x="0px" y="0px"
	 viewBox="0 0 750 1000" style="enable-background:new 0 0 750 1000;" xml:space="preserve">
<style type="text/css">
	.st0{fill:url(#SVGID_1_);}
	.st1{opacity:0.1;fill:none;stroke:#E8505B;stroke-miterlimit:10;enable-background:new    ;}
	.st2{fill:url(#SVGID_2_);}
	.st3{fill:url(#SVGID_3_);}
</style>
<g>
	
		<linearGradient id="SVGID_1_" gradientUnits="userSpaceOnUse" x1="782.928" y1="608.0303" x2="-20.2105" y2="608.0303" gradientTransform="matrix(-1 0 0 1 762.7175 -234.1688)">
		<stop  offset="0" style="stop-color:#FFFCFA"/>
		<stop  offset="1" style="stop-color:#FFD6BB;stop-opacity:0.1"/>
	</linearGradient>
	<path class="st0" d="M-2.5,239.9c0,0-1.7-9.3,11.3-19.1c0.1-0.1,0.1-0.1,0.2-0.1c0.1-0.1,0.1-0.1,0.2-0.1l0,0
		c0.6-0.4,1.3-0.9,2-1.4l0,0c16.6-11,53.1-22,133.3-20.1c37.3,0.9,73.1,7,107.3,16l0,0c107.8,28.2,199.4,84.2,271.7,90.5
		c95.2,8.3,166.8-13.6,226.6,28.7c59.9,42.3,19.9,197.9,19.9,197.9s-90.7-25.7-140.5-28.7c-49.9-3-171.3,43.1-283.7,45.3
		c-15.5,0.3-32.6-0.7-50.6-2.7C229,538.8,150,519.2,89,509.8c-43.1-6.6-77.3-8.1-91.5,3.5C-42.3,545.8-2.5,239.9-2.5,239.9z"/>
	<ellipse class="st1" cx="321.4" cy="401.9" rx="169.5" ry="173.3"/>
	<ellipse class="st1" cx="583.7" cy="294.4" rx="82.3" ry="84.1"/>
	
		<linearGradient id="SVGID_2_" gradientUnits="userSpaceOnUse" x1="568.282" y1="698.9525" x2="568.282" y2="780.2538" gradientTransform="matrix(-1 0 0 1 762.7175 -234.1688)">
		<stop  offset="0" style="stop-color:#FFDAD8"/>
		<stop  offset="1" style="stop-color:#FFEFEE"/>
	</linearGradient>
	<path class="st2" d="M89,509.9c4.6-9.5,15.6-19.9,37.5-30.3c72.5-34.5,75.2,2.7,110.4,0c34.7-2.7,68.6,56.3,62.1,63.3
		c-0.1,0.1-0.1,0.1-0.1,0.1c-0.1,0.1-0.1,0.1-0.1,0.1l0,0c-0.4,0.3-0.9,0.7-1.6,1.4l0,0c-0.7,0.6-1.4,1.1-2.1,1.6
		C229,538.8,150.1,519.2,89,509.9z"/>
	
		<linearGradient id="SVGID_3_" gradientUnits="userSpaceOnUse" x1="261.2763" y1="567.2682" x2="261.2763" y2="630.2788" gradientTransform="matrix(-1 0 0 1 762.7175 -234.1688)">
		<stop  offset="0" style="stop-color:#FFDAD8"/>
		<stop  offset="1" style="stop-color:#FFEFEE"/>
	</linearGradient>
	<circle class="st3" cx="501.4" cy="364.6" r="31.5"/>
</g>
</svg>
